<svg width="210" height="50" viewBox="0 0 210 50" fill="none" xmlns="http://www.w3.org/2000/svg">
<path fill-rule="evenodd" clip-rule="evenodd" d="M81.4674 36.1425L78.6102 49.4262H72.0386L82.896 1.28456H90.6807L100.895 49.4262H94.2522L91.4665 36.1425H81.4674ZM90.6807 30.7853L88.4664 19.2838C87.8235 15.998 87.1806 11.7146 86.6818 8.28472H86.3949C85.8961 11.7848 85.1794 16.2123 84.5389 19.2838L82.2531 30.7853H90.6807ZM125.979 0V40.4986C125.979 43.1427 126.122 46.9999 126.264 49.4274H120.479L120.05 45.2142H119.836C118.693 47.6416 116.05 50 112.551 50C106.123 50 102.194 42.9986 102.194 32.2151C102.194 19.9291 107.407 14.1432 112.909 14.1432C115.693 14.1432 117.908 15.4301 119.122 18.0719H119.265V0H125.979ZM119.264 27.928C119.264 27.2864 119.264 26.5006 119.192 25.784C118.835 22.6422 117.049 19.9279 114.622 19.9279C110.406 19.9279 108.979 25.784 108.979 32.2139C108.979 39.3569 110.836 44.3558 114.407 44.3558C115.908 44.3558 117.906 43.5701 119.049 39.4283C119.192 38.8569 119.264 37.9985 119.264 37.2152V27.928ZM141.972 49.9988C135.045 49.9988 130.044 44.0701 130.044 32.1436C130.044 19.4993 135.971 14.142 142.328 14.142C149.186 14.142 154.113 20.285 154.113 31.9996C154.113 45.7856 147.327 49.9988 142.043 49.9988H141.972ZM142.186 44.7142C146.327 44.7142 147.257 37.3568 147.257 32.0722C147.257 26.8566 146.328 19.429 142.044 19.429C137.614 19.429 136.758 26.8566 136.758 32.0722C136.758 37.8569 137.758 44.7142 142.115 44.7142H142.186ZM158.161 0H164.874V18.6421H165.017C166.803 15.5004 169.231 14.142 172.303 14.142C178.23 14.142 181.946 20.8564 181.946 31.4996C181.946 43.9272 176.874 49.9988 171.16 49.9988C167.731 49.9988 165.803 48.1404 164.302 45.0689H164.018L163.66 49.4262H157.875C158.018 47.0702 158.161 43.1415 158.161 40.4974V0ZM164.874 37.1402C164.874 37.9283 164.946 38.714 165.16 39.2843C166.23 43.4998 168.303 44.3558 169.659 44.3558C173.659 44.3558 175.159 39.0712 175.159 31.9281C175.159 25.2851 173.589 19.9279 169.587 19.9279C167.373 19.9279 165.587 22.5708 165.087 25.0708C164.944 25.7851 164.873 26.7149 164.873 27.428V37.1402H164.874ZM191.853 33.427C191.925 42.3558 195.781 44.5689 199.852 44.5689C202.281 44.5689 204.352 43.9987 205.852 43.2832L206.853 48.1404C204.781 49.2119 201.638 49.7845 198.567 49.7845C189.853 49.7845 185.282 43.2129 185.282 32.4984C185.282 21.141 190.495 14.1408 197.709 14.1408C204.924 14.1408 208.281 21.0696 208.281 29.7852C208.281 31.4984 208.209 32.571 208.138 33.4984L191.853 33.427ZM201.924 28.6424C201.995 22.4994 199.852 19.2147 197.211 19.2147C193.709 19.2147 192.138 24.2863 191.925 28.6424H201.924Z" fill="black"/>
<path fill-rule="evenodd" clip-rule="evenodd" d="M34.1996 1.41309H54.2561V49.4261L34.1996 1.41309ZM20.0707 1.41309H0V49.4261L20.0707 1.41309ZM27.1364 19.1075L39.9152 49.4261H31.5412L27.7197 39.7699H18.3659L27.1364 19.1075Z" fill="#CC2131"/>
<path fill-rule="evenodd" clip-rule="evenodd" d="M207.711 14.0527C207.912 14.0536 208.111 14.0944 208.297 14.1726C208.482 14.2509 208.65 14.3651 208.791 14.5087C208.932 14.6522 209.043 14.8223 209.118 15.009C209.193 15.1958 209.23 15.3955 209.228 15.5968C209.228 16.4682 208.555 17.148 207.704 17.148C206.86 17.148 206.173 16.4694 206.173 15.5968C206.172 15.3948 206.21 15.1946 206.287 15.0076C206.363 14.8206 206.476 14.6505 206.618 14.5071C206.76 14.3637 206.929 14.2497 207.116 14.1717C207.302 14.0938 207.502 14.0533 207.704 14.0527H207.711ZM207.704 14.292C207.025 14.292 206.468 14.8765 206.468 15.5968C206.468 16.3313 207.025 16.9075 207.711 16.9075C208.397 16.9146 208.945 16.3313 208.945 15.6039C208.945 14.8765 208.397 14.292 207.711 14.292H207.704ZM207.416 16.4968H207.142V14.7729C207.286 14.7527 207.424 14.7313 207.63 14.7313C207.891 14.7313 208.061 14.7872 208.164 14.8622C208.268 14.9372 208.323 15.0539 208.323 15.2194C208.323 15.4456 208.172 15.5837 207.986 15.6384V15.6515C208.137 15.6789 208.241 15.817 208.274 16.0706C208.316 16.3384 208.356 16.4408 208.385 16.4968H208.097C208.055 16.4408 208.014 16.2837 207.98 16.0575C207.938 15.8372 207.829 15.7551 207.609 15.7551H207.417V16.4968H207.416ZM207.416 15.542H207.614C207.841 15.542 208.035 15.4598 208.035 15.2467C208.035 15.0955 207.924 14.9444 207.614 14.9444C207.526 14.9444 207.463 14.9515 207.416 14.9586V15.542ZM56.9002 1.41309C57.1014 1.41401 57.3004 1.45478 57.4858 1.53304C57.6712 1.61131 57.8393 1.72551 57.9803 1.86907C58.1213 2.01263 58.2325 2.1827 58.3074 2.36945C58.3823 2.55621 58.4195 2.75596 58.4169 2.95717C58.4169 3.82862 57.7442 4.5084 56.893 4.5084C56.0489 4.5084 55.362 3.82981 55.362 2.95717C55.3609 2.75519 55.3997 2.55498 55.4761 2.368C55.5525 2.18102 55.665 2.01095 55.8072 1.86752C55.9494 1.72409 56.1185 1.61012 56.3048 1.53214C56.4912 1.45416 56.691 1.41371 56.893 1.41309H56.9002ZM56.893 1.65237C56.2132 1.65237 55.6573 2.23691 55.6573 2.95717C55.6573 3.69171 56.2132 4.26791 56.9002 4.26791C57.5859 4.27505 58.1359 3.69171 58.1359 2.96432C58.1359 2.23692 57.5859 1.65237 56.9002 1.65237H56.893ZM56.6049 3.85719H56.3299V2.13334C56.4912 2.10656 56.6545 2.09303 56.818 2.09286C57.0787 2.09286 57.2502 2.14644 57.3525 2.22263C57.4561 2.29763 57.5109 2.41549 57.5109 2.57978C57.5109 2.80597 57.3597 2.94408 57.174 2.99884V3.01193C57.3252 3.03931 57.4287 3.17741 57.4633 3.43218C57.5037 3.70004 57.5454 3.80243 57.5728 3.85838H57.2847C57.243 3.80243 57.2014 3.64528 57.168 3.41908C57.1264 3.19884 57.0168 3.1167 56.7966 3.1167H56.6049V3.85719ZM56.6049 2.90241H56.8037C57.0299 2.90241 57.2228 2.82026 57.2228 2.60716C57.2228 2.45597 57.1133 2.30477 56.8037 2.30477C56.7144 2.30477 56.6525 2.31192 56.6049 2.31906V2.90241Z" fill="black"/>
</svg>
