<svg width="230" height="50" viewBox="0 0 230 50" fill="none" xmlns="http://www.w3.org/2000/svg">
<path d="M202.233 40.4157L198.113 32.1737L193.988 40.4157H202.233ZM109.845 20.6903L101.603 24.8099L109.845 28.9323V20.6903ZM35.3791 29.9857L39.5015 38.2277L43.6264 29.9857H35.3791ZM223.903 12.4277C222.525 12.4277 221.186 13.4761 221.186 15.0689C221.186 16.778 222.563 17.7452 223.903 17.7452C225.397 17.7452 226.678 16.7401 226.678 15.1271C226.678 13.4761 225.338 12.4277 223.92 12.4277H223.903ZM212.546 20.8549V17.634H219.398C218.175 16.4871 218.175 14.9524 218.175 14.5043C218.175 12.2558 219.788 9.20703 223.865 9.20703C227.746 9.20703 229.689 11.9037 229.689 14.641C229.689 16.1577 228.952 17.3226 228.175 17.7682H229.317V20.8549H212.546ZM223.981 31.6644C224.969 31.6644 226.678 30.9279 226.678 28.9855C226.678 27.8411 226.133 27.1396 225.475 26.732C225.047 26.4613 224.581 26.3244 224.095 26.2864C223.612 26.2484 223.128 26.3446 222.68 26.5571C221.943 26.9067 221.186 27.6435 221.186 29.006C221.186 30.8519 222.738 31.6646 223.958 31.6646H223.981V31.6644ZM229.317 23.063V26.2864H228.152C229.205 26.8687 229.689 28.2083 229.689 29.4693C229.689 32.8875 227.01 34.8881 223.921 34.8881C220.389 34.8881 218.175 32.3457 218.175 29.4693C218.175 27.7042 219.029 26.7145 219.689 26.2864H218.545V23.063H229.317ZM212.546 40.4157V37.1923H229.317V40.4157H212.546Z" fill="#D52B1E"/>
<path d="M142.838 44.7735L145.244 50C156.661 41.2664 158.763 31.5126 151.331 21.0598C145.444 12.7771 151.924 5.41121 153.874 3.49685L149.503 0C146.647 3.13472 139.152 12.9317 145.705 22.7842C152.056 32.3279 151.397 37.5011 142.838 44.7735ZM54.1347 44.7735L56.5404 50C67.9576 41.2664 70.0594 31.5126 62.6251 21.0598C56.7403 12.7771 63.2174 5.41121 65.1673 3.49685L60.7995 0C57.9406 3.13472 50.4454 12.9317 57.0037 22.7842C63.3519 32.3279 62.6933 37.5011 54.1347 44.7735ZM205.342 9.20696L198.113 21.7311L190.878 9.20696H184.994L198.113 31.9305L211.232 9.20696H205.342ZM87.4249 10.9769C85.3636 9.76653 82.8394 9.20696 79.479 9.20696H72.1107V40.4157H78.0005V15.0943H79.4793C83.5559 15.0943 86.3515 16.0994 86.3515 19.7635C86.3515 23.1844 82.9836 24.6834 79.0817 24.8051C78.9627 24.8076 78.5246 24.8076 78.2334 24.8101L82.1454 30.3985C84.08 30.0566 85.8172 29.4286 87.2682 28.5398C87.3744 28.4714 87.4809 28.3981 87.5871 28.3269C90.5471 26.3698 92.2411 23.2703 92.2411 19.7635C92.2411 15.9195 90.5294 12.8 87.4249 10.9769ZM134.047 28.3269C137.005 26.3698 138.699 23.2703 138.699 19.7635C138.699 15.9197 136.987 12.8 133.88 10.9769C131.824 9.76653 129.297 9.20696 125.936 9.20696H118.568V40.4157H124.457V15.0943H125.936C130.013 15.0943 132.811 16.0994 132.811 19.7635C132.811 23.1844 129.443 24.6834 125.541 24.8051C125.417 24.8076 124.984 24.8076 124.693 24.8101L135.62 40.4157H142.51L134.047 28.3269ZM173.829 24.8098L184.756 9.20673H177.863L166.939 24.8098L177.863 40.4154H184.756L173.829 24.8098ZM166.704 9.20696H160.817V40.4157H166.704V9.20696ZM13.0152 24.8098L23.9414 9.20673H17.0516L6.12523 24.8098L17.0516 40.4154H23.9414L13.0152 24.8098ZM5.88958 9.20696H0V40.4157H5.88981V9.20696H5.88958ZM114.028 15.0943V9.20696H95.4823V40.4157H114.028V34.5284H101.367V15.0943H114.028ZM54.6135 40.4157H48.7237L39.5015 20.6397L30.282 40.4157H24.3897L39.5017 8.01162L54.6135 40.4157Z" fill="#006D55"/>
</svg>
