<svg width="235" height="50" viewBox="0 0 235 50" fill="none" xmlns="http://www.w3.org/2000/svg">
<path d="M234.202 22.619V18.5002H229.088V12.097L228.915 12.15L224.111 13.6199L224.017 13.6487V18.5004H216.434V15.7976C216.434 14.539 216.715 13.576 217.27 12.9337C217.821 12.2991 218.608 11.9765 219.613 11.9765C220.336 11.9765 221.083 12.1466 221.836 12.4821L222.025 12.5664V8.22876L221.936 8.19613C221.234 7.94375 220.279 7.81665 219.095 7.81665C217.603 7.81665 216.248 8.14131 215.066 8.78473C213.883 9.42906 212.952 10.3489 212.3 11.5184C211.651 12.6865 211.321 14.0356 211.321 15.5287V18.5002H207.76V22.619H211.321V39.9708H216.434V22.619H224.017V33.6457C224.017 38.1871 226.159 40.4884 230.383 40.4884C231.077 40.4884 231.808 40.4071 232.554 40.2478C233.314 40.0843 233.831 39.9209 234.135 39.7465L234.203 39.7066V35.5497L233.995 35.6872C233.717 35.8721 233.372 36.0232 232.967 36.1356C232.56 36.25 232.22 36.3073 231.957 36.3073C230.967 36.3073 230.235 36.0407 229.78 35.5144C229.321 34.9833 229.088 34.0547 229.088 32.7556V22.619H234.202ZM196.342 36.308C194.486 36.308 193.023 35.6927 191.992 34.4806C190.955 33.2624 190.429 31.5256 190.429 29.3189C190.429 27.0423 190.955 25.2604 191.993 24.0207C193.025 22.7891 194.474 22.1641 196.301 22.1641C198.073 22.1641 199.485 22.761 200.495 23.9394C201.511 25.1238 202.027 26.8914 202.027 29.1946C202.027 31.5261 201.542 33.317 200.586 34.515C199.637 35.704 198.209 36.308 196.342 36.308ZM196.569 17.9829C193.029 17.9829 190.217 19.0203 188.212 21.0664C186.208 23.1126 185.192 25.9444 185.192 29.4837C185.192 32.8453 186.184 35.5493 188.14 37.5192C190.096 39.4898 192.758 40.488 196.052 40.488C199.484 40.488 202.24 39.4361 204.244 37.3617C206.248 35.2896 207.263 32.4846 207.263 29.028C207.263 25.6138 206.31 22.8897 204.431 20.9329C202.55 18.9753 199.905 17.9829 196.569 17.9829ZM176.949 17.9829C174.541 17.9829 172.549 18.599 171.027 19.8135C169.496 21.0353 168.719 22.6378 168.719 24.5769C168.719 25.5848 168.887 26.4802 169.217 27.2396C169.549 28.0015 170.062 28.6724 170.745 29.2353C171.422 29.7938 172.467 30.3788 173.852 30.9739C175.017 31.4531 175.885 31.8584 176.437 32.1779C176.976 32.491 177.359 32.8057 177.575 33.1122C177.785 33.4122 177.891 33.8227 177.891 34.3293C177.891 35.7717 176.811 36.4736 174.588 36.4736C173.764 36.4736 172.824 36.3014 171.793 35.9621C170.771 35.6278 169.805 35.1383 168.931 34.5107L168.719 34.3585V39.2809L168.797 39.3171C169.52 39.6511 170.432 39.9327 171.507 40.1543C172.58 40.3761 173.555 40.4889 174.402 40.4889C177.015 40.4889 179.12 39.8699 180.655 38.6481C182.201 37.4179 182.984 35.7776 182.984 33.7715C182.984 32.3242 182.562 31.0831 181.731 30.0822C180.906 29.0894 179.473 28.178 177.475 27.3724C175.884 26.7335 174.864 26.2031 174.443 25.796C174.038 25.4027 173.832 24.8465 173.832 24.1421C173.832 23.5177 174.086 23.0175 174.608 22.6124C175.134 22.2053 175.866 21.9982 176.784 21.9982C177.635 21.9982 178.507 22.1328 179.374 22.3965C180.24 22.6602 181.001 23.0134 181.636 23.4455L181.845 23.5882V18.9188L181.764 18.8844C181.179 18.6332 180.406 18.4182 179.468 18.2437C178.533 18.0704 177.686 17.9829 176.949 17.9829ZM155.391 36.308C153.535 36.308 152.072 35.6927 151.041 34.4806C150.003 33.2624 149.479 31.5261 149.479 29.3189C149.479 27.0423 150.004 25.2604 151.042 24.0207C152.073 22.7891 153.522 22.1641 155.35 22.1641C157.122 22.1641 158.533 22.761 159.544 23.9394C160.56 25.1238 161.076 26.8914 161.076 29.1946C161.076 31.5261 160.591 33.317 159.635 34.515C158.685 35.704 157.258 36.308 155.391 36.308ZM155.619 17.9829C152.077 17.9829 149.265 19.0203 147.261 21.0664C145.257 23.1126 144.241 25.9444 144.241 29.4837C144.241 32.8467 145.233 35.5493 147.189 37.5192C149.145 39.4898 151.807 40.488 155.101 40.488C158.532 40.488 161.289 39.4361 163.293 37.3617C165.296 35.2896 166.312 32.4846 166.312 29.028C166.312 25.6138 165.359 22.8897 163.479 20.9329C161.598 18.9753 158.953 17.9829 155.619 17.9829ZM136.48 22.2184V18.5002H131.43V39.9703H136.48V28.9875C136.48 27.12 136.903 25.5857 137.739 24.4269C138.564 23.2819 139.663 22.7017 141.005 22.7017C141.46 22.7017 141.971 22.7767 142.524 22.9251C143.071 23.0725 143.468 23.2327 143.701 23.4013L143.914 23.5551V18.4635L143.832 18.4284C143.362 18.2285 142.696 18.1277 141.854 18.1277C140.585 18.1277 139.449 18.5355 138.477 19.3384C137.623 20.0442 137.006 21.0118 136.534 22.2184H136.48ZM122.385 17.9829C120.068 17.9829 118.002 18.4798 116.244 19.4592C114.482 20.4409 113.12 21.8423 112.193 23.6244C111.27 25.4022 110.802 27.4789 110.802 29.7947C110.802 31.8233 111.256 33.6849 112.154 35.3257C113.052 36.9691 114.324 38.2548 115.933 39.1465C117.54 40.0371 119.398 40.4887 121.454 40.4887C123.855 40.4887 125.904 40.0088 127.547 39.0625L127.613 39.0244V34.3974L127.401 34.5524C126.657 35.0946 125.825 35.5273 124.93 35.839C124.037 36.1505 123.224 36.308 122.51 36.308C120.528 36.308 118.937 35.6879 117.783 34.4654C116.625 33.2413 116.039 31.5224 116.039 29.3595C116.039 27.183 116.651 25.4199 117.857 24.119C119.059 22.822 120.653 22.1641 122.593 22.1641C124.253 22.1641 125.871 22.7261 127.401 23.8363L127.613 23.9901V19.1148L127.545 19.0763C126.969 18.7539 126.183 18.4877 125.208 18.2858C124.237 18.0844 123.288 17.9829 122.385 17.9829ZM107.323 18.5004H102.273V39.9703H107.323V18.5004ZM104.85 9.35407C104.019 9.35407 103.294 9.63704 102.698 10.1978C102.1 10.7601 101.797 11.4681 101.797 12.3036C101.797 13.126 102.096 13.8211 102.689 14.3685C103.277 14.9142 104.005 15.1909 104.85 15.1909C105.695 15.1909 106.425 14.9142 107.021 14.3694C107.62 13.8211 107.925 13.1262 107.925 12.3036C107.925 11.4973 107.629 10.7966 107.046 10.2204C106.463 9.64542 105.724 9.35407 104.85 9.35407ZM92.2488 16.9163V39.9703H97.403V10.0113H90.2694L81.2021 32.264L72.4029 10.0113H64.9788V39.9701H69.8224V16.914H69.9887L79.2805 39.9703H82.9357L92.0825 16.9163H92.2488Z" fill="#706D6E"/>
<path d="M23.7586 23.7586H0V0H23.7586V23.7586Z" fill="#F1511B"/>
<path d="M49.9907 23.7586H26.2326V0H49.9907V23.7586Z" fill="#80CC28"/>
<path d="M23.7579 50.0001H0V26.2417H23.7579V50.0001Z" fill="#00ADEF"/>
<path d="M49.9907 50.0001H26.2326V26.2417H49.9907V50.0001Z" fill="#FBBC09"/>
</svg>
