<svg width="211" height="58" viewBox="0 0 211 58" fill="none" xmlns="http://www.w3.org/2000/svg">
<g filter="url(#filter0_d_3_381)">
<path d="M54 25C54 31.6304 51.3661 37.9893 46.6777 42.6777C41.9893 47.3661 35.6304 50 29 50C22.3696 50 16.0107 47.3661 11.3223 42.6777C6.63392 37.9893 4 31.6304 4 25C4 18.3696 6.63392 12.0107 11.3223 7.32233C16.0107 2.63392 22.3696 0 29 0C35.6304 0 41.9893 2.63392 46.6777 7.32233C51.3661 12.0107 54 18.3696 54 25Z" fill="#EE3023"/>
<path d="M29.2056 38.9332C22.3357 38.9574 15.1877 33.1035 15.1514 23.6816C15.1393 17.4528 18.5017 11.4659 22.7832 7.90998C26.9801 4.43877 32.7131 2.22542 37.9139 2.20123C38.5208 2.17838 39.1278 2.24357 39.716 2.39475C37.4326 2.89801 35.3857 4.1568 33.9064 5.96754C32.4271 7.77828 31.6018 10.0351 31.5641 12.373C31.5641 12.5423 31.5641 12.7116 31.5883 12.7842C39.208 14.6347 42.655 19.2307 42.6792 25.5926C42.6745 27.3544 42.3218 29.0979 41.6413 30.723C40.9609 32.3481 39.9662 33.8228 38.7142 35.0624C37.4623 36.302 35.9778 37.282 34.346 37.9463C32.7143 38.6106 30.9673 38.946 29.2056 38.9332Z" fill="white"/>
<path d="M70.1466 35.3532L62.5148 17.1022H67.5099L72.2874 29.2212L76.9076 17.1022H81.673L74.2468 35.3532H70.1466ZM94.9652 26.137C94.9707 25.4029 94.8813 24.6711 94.6991 23.9599C94.5451 23.3305 94.2743 22.7356 93.9008 22.2062C93.5642 21.7262 93.1267 21.3258 92.6188 21.033C92.077 20.7272 91.4629 20.5726 90.8408 20.5855C90.2187 20.572 89.6045 20.7266 89.0629 21.033C88.5497 21.323 88.1076 21.7238 87.7688 22.2062C87.3982 22.7402 87.1315 23.3393 86.9826 23.972C86.8015 24.6793 86.712 25.4069 86.7165 26.137C86.7104 26.8711 86.7999 27.603 86.9826 28.3141C87.1349 28.9415 87.3925 29.5386 87.7446 30.0799C88.0792 30.5902 88.5374 31.0074 89.0767 31.2929C89.6159 31.5784 90.2187 31.7228 90.8287 31.7127C91.4386 31.7312 92.0427 31.5904 92.5815 31.304C93.1203 31.0177 93.575 30.5957 93.9008 30.0799C94.2691 29.5474 94.5394 28.9536 94.6991 28.3262C94.8829 27.6112 94.9723 26.8752 94.9652 26.137ZM99.5733 26.1491C99.5735 27.3393 99.3899 28.5224 99.029 29.6566C98.6772 30.7755 98.1238 31.8208 97.3962 32.7408C96.616 33.7221 95.6165 34.5069 94.4781 35.032C93.3396 35.5572 92.0938 35.808 90.8408 35.7645C89.5865 35.8052 88.34 35.5531 87.2 35.0282C86.06 34.5034 85.058 33.7202 84.2734 32.7408C83.5473 31.8197 82.9941 30.7748 82.6406 29.6566C81.9218 27.3859 81.9218 24.9486 82.6406 22.6779C82.9944 21.5708 83.5478 20.5379 84.2734 19.63C85.0116 18.7215 85.9407 17.9865 86.9947 17.4771C88.1954 16.9078 89.5123 16.6262 90.8408 16.6546C92.086 16.6202 93.3225 16.8703 94.4564 17.3859C95.5903 17.9015 96.5916 18.669 97.3841 19.63C98.1098 20.525 98.6662 21.541 99.029 22.6779C99.3919 23.8148 99.5733 24.9759 99.5733 26.1491ZM113.676 21.1297C112.875 20.7922 112.017 20.6076 111.148 20.5855C110.469 20.5526 109.792 20.6903 109.179 20.986C108.566 21.2818 108.037 21.7262 107.641 22.2787C107.259 22.8096 106.972 23.4031 106.794 24.0325C106.606 24.681 106.513 25.353 106.516 26.0281C106.512 26.7608 106.593 27.4914 106.758 28.2052C106.903 28.85 107.161 29.4642 107.52 30.0194C107.846 30.5304 108.285 30.9605 108.802 31.2773C109.31 31.5918 109.926 31.7611 110.616 31.7611C111.239 31.7472 111.849 31.5811 112.394 31.2773C112.915 31.0315 113.359 30.6464 113.676 30.1646V21.1297ZM114.051 35.3532L113.869 33.9502C113.388 34.4737 112.814 34.9042 112.176 35.2202C111.252 35.6157 110.25 35.7992 109.246 35.7573C108.241 35.7155 107.259 35.4493 106.371 34.9783C105.418 34.4543 104.592 33.7277 103.952 32.8496C103.275 31.9262 102.767 30.8902 102.452 29.7896C102.112 28.6102 101.941 27.3886 101.944 26.1612C101.944 24.9638 102.113 23.8027 102.464 22.6658C102.805 21.562 103.351 20.5321 104.073 19.63C104.852 18.6634 105.846 17.8914 106.975 17.375C108.105 16.8587 109.339 16.612 110.58 16.6546C111.547 16.6546 112.575 16.8361 113.676 17.1868V10.1113H118.369V35.3532H114.051ZM131.576 26.7901C130.542 26.8594 129.512 26.9886 128.492 27.1771C127.476 27.3828 126.775 27.7214 126.375 28.2173C126.002 28.6703 125.797 29.2387 125.795 29.8259C125.795 30.4307 126.013 30.9144 126.46 31.2773C127.002 31.674 127.664 31.8706 128.335 31.8337C128.94 31.8337 129.544 31.7127 130.113 31.4587C130.65 31.224 131.145 30.9011 131.576 30.5032V26.7901ZM131.951 35.3291L131.77 33.9744C131.233 34.5553 130.571 35.0061 129.835 35.2928C128.285 35.9062 126.564 35.932 124.997 35.3653C123.871 34.9901 122.896 34.2635 122.214 33.2924C121.533 32.3213 121.181 31.157 121.211 29.971C121.195 29.1723 121.365 28.3808 121.707 27.6589C122.049 26.937 122.554 26.3042 123.182 25.8104C123.817 25.3167 124.522 24.9212 125.275 24.6372C126.715 24.1264 128.215 23.8012 129.738 23.6696L131.552 23.5003V23.2342C131.552 22.2304 131.286 21.5168 130.766 21.0814C130.146 20.6208 129.384 20.3938 128.613 20.4403C127.242 20.4472 125.907 20.8781 124.791 21.674C124.547 21.8289 124.313 21.9986 124.09 22.182L122.529 18.8922C123.278 18.3244 124.1 17.8605 124.972 17.5134C127.246 16.5684 129.769 16.4067 132.145 17.0538C132.961 17.3091 133.709 17.7482 134.329 18.3373C134.95 18.9265 135.427 19.65 135.725 20.4524C136.088 21.4641 136.261 22.5345 136.233 23.6092V35.3411L131.951 35.3291ZM150.734 14.272C149.898 13.8977 148.989 13.7158 148.074 13.7398C147.433 13.7398 146.876 13.9333 146.441 14.3324C145.993 14.7195 145.776 15.3605 145.776 16.2434V17.1022H149.718V20.8878H145.812V35.3532H141.119V20.8878H138.7V17.1022H141.119V16.1346C141.119 14.9372 141.276 13.9333 141.579 13.1109C141.825 12.3742 142.242 11.7057 142.794 11.1595C143.347 10.6133 144.02 10.2045 144.76 9.96621C146.915 9.39069 149.198 9.53076 151.267 10.3653L150.734 14.272ZM163.531 26.137C163.534 25.403 163.445 24.6715 163.265 23.9599C163.111 23.3305 162.84 22.7356 162.466 22.2062C162.13 21.7262 161.692 21.3258 161.184 21.033C160.643 20.7272 160.028 20.5726 159.406 20.5855C158.784 20.572 158.17 20.7266 157.628 21.033C157.117 21.325 156.675 21.7254 156.334 22.2062C155.963 22.7414 155.693 23.3398 155.536 23.972C155.168 25.4 155.168 26.8981 155.536 28.3262C155.696 28.9494 155.957 29.542 156.31 30.0799C156.641 30.5788 157.084 30.9931 157.604 31.2894C158.157 31.5876 158.778 31.7376 159.406 31.7248C160.015 31.7399 160.618 31.5962 161.154 31.3078C161.691 31.0194 162.143 30.5962 162.466 30.0799C162.835 29.5474 163.105 28.9536 163.265 28.3262C163.446 27.6107 163.536 26.8751 163.531 26.137ZM168.139 26.1491C168.141 27.3395 167.958 28.5229 167.595 29.6566C167.245 30.7764 166.691 31.822 165.962 32.7408C165.182 33.7221 164.182 34.5069 163.044 35.032C161.905 35.5572 160.659 35.808 159.406 35.7645C158.152 35.8052 156.906 35.5531 155.766 35.0282C154.626 34.5034 153.624 33.7202 152.839 32.7408C152.113 31.8197 151.56 30.7748 151.206 29.6566C150.478 27.3874 150.478 24.9471 151.206 22.6779C151.556 21.5717 152.106 20.5388 152.827 19.63C153.569 18.7201 154.502 17.985 155.56 17.4771C156.761 16.9078 158.078 16.6262 159.406 16.6546C160.652 16.6202 161.888 16.8703 163.022 17.3859C164.156 17.9015 165.157 18.669 165.95 19.63C166.675 20.525 167.232 21.541 167.595 22.6779C167.957 23.8148 168.139 24.9759 168.139 26.1491ZM182.713 35.3532V24.9517C182.785 23.8088 182.479 22.6739 181.842 21.7224C181.56 21.3529 181.192 21.0568 180.771 20.8589C180.35 20.6611 179.888 20.5673 179.423 20.5855C178.706 20.5772 178.001 20.7745 177.391 21.1539C176.807 21.5073 176.267 21.9296 175.783 22.4118V35.3532H171.09V17.1022H175.372L175.589 18.5535C177.066 17.3226 178.928 16.6504 180.851 16.6546C181.818 16.6546 182.701 16.7998 183.511 17.0901C184.302 17.3757 185.012 17.8489 185.58 18.4689C186.172 19.0978 186.62 19.9203 186.934 20.9241C187.249 21.9401 187.406 23.1496 187.406 24.5526V35.3532H182.713ZM202.004 24.0325C201.97 23.4649 201.835 22.9079 201.605 22.3876C201.418 21.9589 201.147 21.5722 200.807 21.2507C200.221 20.7083 199.453 20.4061 198.654 20.404C197.797 20.4195 196.973 20.7413 196.332 21.3112C195.946 21.6556 195.632 22.0738 195.41 22.5411C195.188 23.0085 195.061 23.5155 195.038 24.0325H202.004ZM194.929 27.4069C195.026 28.943 195.509 30.0557 196.38 30.733C197.339 31.4458 198.513 31.8087 199.706 31.7611C200.823 31.7597 201.929 31.5548 202.972 31.1563C203.355 31.0048 203.726 30.8269 204.085 30.6242C204.329 30.4853 204.556 30.3189 204.762 30.1283L206.02 33.9502C205.308 34.4317 204.53 34.8066 203.71 35.063C202.212 35.5222 200.656 35.7585 199.089 35.7645C197.937 35.7685 196.791 35.5763 195.703 35.196C194.645 34.8271 193.683 34.2281 192.885 33.4423C192.04 32.5958 191.381 31.5825 190.95 30.4669C190.438 29.1157 190.191 27.6783 190.224 26.2337C190.224 24.6856 190.454 23.331 190.889 22.1457C191.431 20.5208 192.477 19.1115 193.876 18.1236C195.275 17.1357 196.954 16.621 198.666 16.6546C199.768 16.6437 200.863 16.8364 201.896 17.2231C202.875 17.598 203.722 18.1907 204.435 18.9769C205.161 19.7751 205.73 20.8032 206.141 22.0731C206.564 23.331 206.77 24.8307 206.77 26.5724V27.4069H194.929Z" fill="#EE3023"/>
</g>
<defs>
<filter id="filter0_d_3_381" x="0" y="0" width="210.77" height="58" filterUnits="userSpaceOnUse" color-interpolation-filters="sRGB">
<feFlood flood-opacity="0" result="BackgroundImageFix"/>
<feColorMatrix in="SourceAlpha" type="matrix" values="0 0 0 0 0 0 0 0 0 0 0 0 0 0 0 0 0 0 127 0" result="hardAlpha"/>
<feOffset dy="4"/>
<feGaussianBlur stdDeviation="2"/>
<feComposite in2="hardAlpha" operator="out"/>
<feColorMatrix type="matrix" values="0 0 0 0 0 0 0 0 0 0 0 0 0 0 0 0 0 0 0.25 0"/>
<feBlend mode="normal" in2="BackgroundImageFix" result="effect1_dropShadow_3_381"/>
<feBlend mode="normal" in="SourceGraphic" in2="effect1_dropShadow_3_381" result="shape"/>
</filter>
</defs>
</svg>
