<svg width="252" height="216" viewBox="0 0 252 216" fill="none" xmlns="http://www.w3.org/2000/svg">
<path opacity="0.4" d="M54.1154 179.009L53.6668 178.235L125.678 136.782L126.575 137.294L54.1154 179.009Z" fill="#D6D8E5"/>
<path opacity="0.4" d="M98.2968 94.4667L97.8483 95.2413L207.971 158.635L208.42 157.86L98.2968 94.4667Z" fill="#D6D8E5"/>
<path opacity="0.4" d="M209.71 113.369L171.194 91.1978L209.71 69.0265L248.225 91.1978L209.71 113.369Z" fill="#D6D8E5"/>
<path d="M247.006 86.2981L213.414 66.9611L179.828 86.2981L174.898 83.4639V89.1324L213.414 111.304L251.93 89.1324V83.4639L247.006 86.2981Z" fill="#D5D6E0"/>
<path d="M213.414 105.635L174.898 83.464L213.414 61.2927L251.93 83.464L213.414 105.635Z" fill="#E9EAF4"/>
<path d="M213.414 36.8098L181.445 18.4024L213.414 0L245.388 18.4024L213.414 36.8098Z" fill="#E9EAF4"/>
<path d="M181.445 18.4023V84.0218L213.414 102.429V36.8098L181.445 18.4023Z" fill="#DFE0EA"/>
<path d="M213.414 102.429L245.388 84.0218V18.4023L213.414 36.8098V102.429Z" fill="#D5D6E0"/>
<path d="M224.275 44.84L218.741 48.026V41.654L224.275 38.468V44.84Z" fill="#2B303F"/>
<path d="M241.819 34.7393L225.964 43.8651V37.4931L241.819 28.3673V34.7393Z" fill="#2B303F"/>
<path d="M224.275 54.1266L218.741 57.3126V50.9406L224.275 47.7546V54.1266Z" fill="#2B303F"/>
<path d="M241.819 44.026L225.964 53.1569V46.7798L241.819 37.6591V44.026Z" fill="#2B303F"/>
<path d="M224.275 63.4134L218.741 66.5994V60.2274L224.275 57.0414V63.4134Z" fill="#2B303F"/>
<path d="M241.819 53.3178L225.964 62.4436V56.0716L241.819 46.9458V53.3178Z" fill="#2B303F"/>
<path d="M224.275 72.7001L218.741 75.8861V69.5141L224.275 66.3281V72.7001Z" fill="#2B303F"/>
<path d="M241.819 62.6044L225.964 71.7302V65.3582L241.819 56.2324V62.6044Z" fill="#2B303F"/>
<path d="M224.275 81.9866L218.741 85.1776V78.8006L224.275 75.6146V81.9866Z" fill="#2B303F"/>
<path d="M241.819 71.8909L225.964 81.0167V74.6447L241.819 65.5189V71.8909Z" fill="#2B303F"/>
<path d="M190.941 38.649L185.442 35.4832V29.1514L190.941 32.3173V38.649Z" fill="#2B303F"/>
<path d="M208.369 48.6794L192.619 39.6139V33.2821L208.369 42.3526V48.6794Z" fill="#2B303F"/>
<path d="M190.941 47.8753L185.442 44.7095V38.3827L190.941 41.5436V47.8753Z" fill="#2B303F"/>
<path d="M208.369 57.9107L192.619 48.8402V42.5134L208.369 51.5789V57.9107Z" fill="#2B303F"/>
<path d="M190.941 57.1017L185.442 53.9358V47.609L190.941 50.7749V57.1017Z" fill="#2B303F"/>
<path d="M208.369 67.137L192.619 58.0715V51.7397L208.369 60.8053V67.137Z" fill="#2B303F"/>
<path d="M190.941 66.333L185.442 63.1671V56.8353L190.941 60.0012V66.333Z" fill="#2B303F"/>
<path d="M208.369 76.3634L192.619 67.2979V60.9661L208.369 70.0316V76.3634Z" fill="#2B303F"/>
<path d="M190.941 75.5593L185.442 72.3934V66.0616L190.941 69.2275V75.5593Z" fill="#2B303F"/>
<path d="M208.369 85.5897L192.619 76.5242V70.1924L208.369 79.2579V85.5897Z" fill="#2B303F"/>
<path d="M181.445 80.3433L213.414 98.414L245.388 79.6951V84.0218L213.414 102.429L181.445 84.0218V80.3433Z" fill="#8C50FF"/>
<path d="M214.1 18.8346C213.41 18.993 212.693 18.993 212.003 18.8346L210.415 19.7492C212.127 20.3373 213.986 20.3373 215.697 19.7492L214.1 18.8346Z" fill="#2B303F"/>
<path d="M215.627 17.9601L217.224 18.8797C217.461 18.7028 217.653 18.4733 217.786 18.2095C217.918 17.9456 217.987 17.6546 217.987 17.3596C217.987 17.0646 217.918 16.7736 217.786 16.5097C217.653 16.2459 217.461 16.0164 217.224 15.8395L215.632 16.7541C215.762 16.9286 215.832 17.1405 215.831 17.3579C215.83 17.5754 215.758 17.7867 215.627 17.9601Z" fill="#2B303F"/>
<path d="M212.008 15.8797C212.698 15.724 213.414 15.724 214.105 15.8797L215.712 14.9601C214.001 14.372 212.142 14.372 210.43 14.9601L212.008 15.8797Z" fill="#2B303F"/>
<path d="M210.486 16.7541L208.893 15.8395C208.655 16.0158 208.462 16.245 208.329 16.509C208.196 16.7729 208.127 17.0642 208.127 17.3596C208.127 17.655 208.196 17.9463 208.329 18.2102C208.462 18.4742 208.655 18.7035 208.893 18.8797L210.486 17.9651C210.354 17.7907 210.282 17.5781 210.282 17.3596C210.282 17.1411 210.354 16.9285 210.486 16.7541Z" fill="#2B303F"/>
<path d="M218.383 19.5482L219.895 20.4326C222.335 18.6286 222.335 16.0858 219.895 14.2817L218.383 15.1712C220.001 16.4727 220.001 18.2416 218.383 19.5482Z" fill="#2B303F"/>
<path d="M216.861 20.4225C214.411 21.3571 211.701 21.3571 209.251 20.4225L207.714 21.3069C211.134 22.7138 214.974 22.7138 218.394 21.3069L216.861 20.4225Z" fill="#2B303F"/>
<path d="M209.251 14.2918C211.7 13.3594 214.408 13.3594 216.856 14.2918L218.394 13.4073C214.973 12.0053 211.135 12.0053 207.714 13.4073L209.251 14.2918Z" fill="#2B303F"/>
<path d="M207.729 15.1662L206.192 14.2817C203.752 16.0858 203.752 18.6286 206.192 20.4326L207.729 19.5482C206.136 18.2416 206.106 16.4727 207.729 15.1662Z" fill="#2B303F"/>
<path d="M221.07 21.106L222.582 21.9854C226.473 19.327 226.473 15.4124 222.582 12.749L221.07 13.6284C224.134 15.7893 224.129 18.925 221.07 21.106Z" fill="#2B303F"/>
<path d="M219.548 21.9702C215.778 23.7341 210.33 23.7341 206.56 21.9702L205.048 22.8496C209.669 25.0859 216.468 25.0859 221.09 22.8496L219.548 21.9702Z" fill="#2B303F"/>
<path d="M206.56 12.7441C210.335 10.9802 215.778 10.9802 219.548 12.7441L221.06 11.8647C216.438 9.6234 209.639 9.6234 205.017 11.8647L206.56 12.7441Z" fill="#2B303F"/>
<path d="M205.038 13.6183L203.526 12.7389C199.635 15.4023 199.635 19.3169 203.526 21.9753L205.038 21.0958C201.978 18.9249 201.978 15.7892 205.038 13.6183Z" fill="#2B303F"/>
<path opacity="0.4" d="M89.0122 116.048L50.4966 93.8764L89.0122 71.7051L127.528 93.8764L89.0122 116.048Z" fill="#D6D8E5"/>
<path d="M126.303 88.9767L92.7166 69.6447L59.1302 88.9767L54.201 86.1425V91.816L92.7166 113.982L131.232 91.816V86.1425L126.303 88.9767Z" fill="#D5D6E0"/>
<path d="M92.7166 108.314L54.201 86.1424L92.7166 63.9711L131.232 86.1424L92.7166 108.314Z" fill="#E9EAF4"/>
<path d="M92.7165 39.4883L60.7479 21.0809L92.7165 2.67847L124.69 21.0809L92.7165 39.4883Z" fill="#E9EAF4"/>
<path d="M60.7479 21.0807V86.7001L92.7165 105.108V39.4881L60.7479 21.0807Z" fill="#DFE0EA"/>
<path d="M92.7166 105.108L124.69 86.7001V21.0807L92.7166 39.4881V105.108Z" fill="#D5D6E0"/>
<path d="M103.578 47.5185L98.0438 50.7045V44.3325L103.578 41.1465V47.5185Z" fill="#2B303F"/>
<path d="M121.117 37.4229L105.266 46.5487V40.1717L121.117 31.0459V37.4229Z" fill="#2B303F"/>
<path d="M103.578 56.8052L98.0438 59.9912V53.6192L103.578 50.4332V56.8052Z" fill="#2B303F"/>
<path d="M121.117 46.7096L105.266 55.8355V49.4635L121.117 40.3376V46.7096Z" fill="#2B303F"/>
<path d="M103.578 66.0918L98.0438 69.2778V62.9058L103.578 59.7198V66.0918Z" fill="#2B303F"/>
<path d="M121.117 55.9963L105.266 65.1221V58.7501L121.117 49.6243V55.9963Z" fill="#2B303F"/>
<path d="M103.578 75.3783L98.0438 78.5643V72.1923L103.578 69.0063V75.3783Z" fill="#2B303F"/>
<path d="M121.117 65.2826L105.266 74.4084V68.0365L121.117 58.9106V65.2826Z" fill="#2B303F"/>
<path d="M103.578 84.67L98.0438 87.856V81.484L103.578 78.298V84.67Z" fill="#2B303F"/>
<path d="M121.117 74.5694L105.266 83.6952V77.3232L121.117 68.1974V74.5694Z" fill="#2B303F"/>
<path d="M70.2432 41.3275L64.7446 38.1616V31.8298L70.2432 34.9957V41.3275Z" fill="#2B303F"/>
<path d="M87.6665 51.3579L71.9166 42.2924V35.9606L87.6665 45.0311V51.3579Z" fill="#2B303F"/>
<path d="M70.2432 50.5538L64.7446 47.3879V41.0612L70.2432 44.2271V50.5538Z" fill="#2B303F"/>
<path d="M87.6665 60.5892L71.9166 51.5237V45.1919L87.6665 54.2574V60.5892Z" fill="#2B303F"/>
<path d="M70.2432 59.7852L64.7446 56.6193V50.2875L70.2432 53.4534V59.7852Z" fill="#2B303F"/>
<path d="M87.6665 69.8154L71.9166 60.7499V54.4181L87.6665 63.4836V69.8154Z" fill="#2B303F"/>
<path d="M70.2432 69.0115L64.7446 65.8456V59.5138L70.2432 62.6797V69.0115Z" fill="#2B303F"/>
<path d="M87.6665 79.0418L71.9166 69.9763V63.6445L87.6665 72.71V79.0418Z" fill="#2B303F"/>
<path d="M70.2432 78.2378L64.7446 75.0719V68.7401L70.2432 71.906V78.2378Z" fill="#2B303F"/>
<path d="M87.6665 88.2681L71.9166 79.2026V72.8708L87.6665 81.9414V88.2681Z" fill="#2B303F"/>
<path d="M60.7479 83.0218L92.7165 101.098L124.69 82.3735V86.7003L92.7165 105.108L60.7479 86.7003V83.0218Z" fill="#8C50FF"/>
<path d="M93.402 21.5179C92.7118 21.6737 91.9955 21.6737 91.3053 21.5179L89.7127 22.4325C91.4257 23.0206 93.2867 23.0206 94.9997 22.4325L93.402 21.5179Z" fill="#2B303F"/>
<path d="M94.9241 20.6386L96.5217 21.5582C96.7538 21.3809 96.9418 21.1526 97.0712 20.8912C97.2005 20.6298 97.2678 20.3422 97.2678 20.0507C97.2678 19.7591 97.2005 19.4715 97.0712 19.2101C96.9418 18.9487 96.7538 18.7204 96.5217 18.5431L94.9291 19.4577C95.0534 19.6299 95.1198 19.8368 95.1189 20.049C95.118 20.2611 95.0498 20.4675 94.9241 20.6386Z" fill="#2B303F"/>
<path d="M91.3104 18.558C92.0005 18.4022 92.7169 18.4022 93.407 18.558L94.9997 17.6434C93.2862 17.058 91.4261 17.058 89.7127 17.6434L91.3104 18.558Z" fill="#2B303F"/>
<path d="M89.7883 19.4325L88.2007 18.5179C87.9687 18.6953 87.7807 18.9235 87.6513 19.185C87.5219 19.4464 87.4547 19.734 87.4547 20.0255C87.4547 20.317 87.5219 20.6046 87.6513 20.8661C87.7807 21.1275 87.9687 21.3557 88.2007 21.5331L89.7934 20.6185C89.6665 20.4469 89.5976 20.2395 89.5967 20.0263C89.5958 19.8131 89.6629 19.6052 89.7883 19.4325Z" fill="#2B303F"/>
<path d="M97.686 22.2266L99.198 23.1111C101.637 21.307 101.637 18.7643 99.198 16.9602L97.6608 17.8497C99.2887 19.1562 99.2887 20.9201 97.686 22.2266Z" fill="#2B303F"/>
<path d="M96.1589 23.1161C93.71 24.0485 91.0024 24.0485 88.5536 23.1161L87.0416 24.0005C90.4616 25.4074 94.3012 25.4074 97.7213 24.0005L96.1589 23.1161Z" fill="#2B303F"/>
<path d="M88.5536 16.9703C91.0025 16.0379 93.7101 16.0379 96.1589 16.9703L97.6961 16.0808C94.2751 14.6788 90.4375 14.6788 87.0164 16.0808L88.5536 16.9703Z" fill="#2B303F"/>
<path d="M87.0314 17.8445L85.4942 16.9651C83.0549 18.7641 83.0549 21.3069 85.4942 23.1109L87.0314 22.2265C85.4136 20.9199 85.4086 19.1511 87.0314 17.8445Z" fill="#2B303F"/>
<path d="M100.372 23.7744L101.884 24.6539C105.775 21.9955 105.775 18.0809 101.884 15.4175L100.372 16.2969C103.431 18.4678 103.431 21.6086 100.372 23.7744Z" fill="#2B303F"/>
<path d="M98.8502 24.6487C95.0752 26.4125 89.6321 26.4125 85.8622 24.6487L84.3502 25.5281C88.9718 27.7643 95.7708 27.7643 100.392 25.5281L98.8502 24.6487Z" fill="#2B303F"/>
<path d="M85.8622 15.4224C89.6371 13.6636 95.0803 13.6586 98.8502 15.4224L100.362 14.543C95.7405 12.3017 88.9416 12.3017 84.3199 14.543L85.8622 15.4224Z" fill="#2B303F"/>
<path d="M84.3402 16.2969L82.8282 15.4175C78.9373 18.0809 78.9373 21.9955 82.8282 24.6539L84.3402 23.7744C81.2809 21.6086 81.2809 18.4728 84.3402 16.2969Z" fill="#2B303F"/>
<path opacity="0.4" d="M147.219 149.179L108.703 127.008L147.219 104.836L185.734 127.008L147.219 149.179Z" fill="#D6D8E5"/>
<path d="M184.51 122.108L150.923 102.771L117.337 122.108L112.408 119.274V124.942L150.923 147.113L189.439 124.947V119.274L184.51 122.108Z" fill="#D5D6E0"/>
<path d="M150.923 141.445L112.408 119.274L150.923 97.1024L189.439 119.274L150.923 141.445Z" fill="#E9EAF4"/>
<path d="M150.923 72.6196L118.955 54.2122L150.923 35.8098L182.892 54.2172L150.923 72.6196Z" fill="#E9EAF4"/>
<path d="M118.955 54.2122V119.832L150.923 138.239V72.6196L118.955 54.2122Z" fill="#DFE0EA"/>
<path d="M150.923 138.239L182.892 119.836V54.217L150.923 72.6194V138.239Z" fill="#D5D6E0"/>
<path d="M161.784 80.6498L156.251 83.8358V77.4638L161.784 74.2778V80.6498Z" fill="#2B303F"/>
<path d="M179.324 70.5541L163.473 79.6799V73.3079L179.324 64.1821V70.5541Z" fill="#2B303F"/>
<path d="M161.784 89.9366L156.251 93.1226V86.7506L161.784 83.5646V89.9366Z" fill="#2B303F"/>
<path d="M179.324 79.8409L163.473 88.9667V82.5947L179.324 73.4689V79.8409Z" fill="#2B303F"/>
<path d="M161.784 99.2232L156.251 102.409V96.0372L161.784 92.8512V99.2232Z" fill="#2B303F"/>
<path d="M179.324 89.1275L163.473 98.2533V91.8813L179.324 82.7555V89.1275Z" fill="#2B303F"/>
<path d="M161.784 108.51L156.251 111.696V105.324L161.784 102.138V108.51Z" fill="#2B303F"/>
<path d="M179.324 98.414L163.473 107.54V101.168L179.324 92.042V98.414Z" fill="#2B303F"/>
<path d="M161.784 117.801L156.251 120.987V114.615L161.784 111.429V117.801Z" fill="#2B303F"/>
<path d="M179.324 107.701L163.473 116.826V110.454L179.324 101.329V107.701Z" fill="#2B303F"/>
<path d="M128.445 74.4587L122.946 71.2928V64.9661L128.445 68.1269V74.4587Z" fill="#2B303F"/>
<path d="M145.873 84.4892L130.123 75.4237V69.0969L145.873 78.1624V84.4892Z" fill="#2B303F"/>
<path d="M128.445 83.6852L122.946 80.5193V74.1925L128.445 77.3584V83.6852Z" fill="#2B303F"/>
<path d="M145.873 93.7204L130.123 84.6549V78.3231L145.873 87.3886V93.7204Z" fill="#2B303F"/>
<path d="M128.445 92.9165L122.946 89.7506V83.4188L128.445 86.5847V92.9165Z" fill="#2B303F"/>
<path d="M145.873 102.947L130.123 93.8814V87.5496L145.873 96.6151V102.947Z" fill="#2B303F"/>
<path d="M128.445 102.143L122.946 98.9769V92.6451L128.445 95.811V102.143Z" fill="#2B303F"/>
<path d="M145.873 112.173L130.123 103.108V96.7758L145.873 105.841V112.173Z" fill="#2B303F"/>
<path d="M128.445 111.369L122.946 108.203V101.871L128.445 105.037V111.369Z" fill="#2B303F"/>
<path d="M145.873 121.399L130.123 112.334V106.002L145.873 115.073V121.399Z" fill="#2B303F"/>
<path d="M118.955 116.153L150.923 134.229L182.892 115.505V119.837L150.923 138.239L118.955 119.832V116.153Z" fill="#8C50FF"/>
<path d="M151.609 54.6494C150.919 54.8052 150.202 54.8052 149.512 54.6494L147.919 55.564C149.632 56.1521 151.493 56.1521 153.206 55.564L151.609 54.6494Z" fill="#2B303F"/>
<path d="M153.131 53.7701L154.728 54.6897C154.961 54.5123 155.149 54.2841 155.278 54.0227C155.407 53.7613 155.475 53.4737 155.475 53.1821C155.475 52.8906 155.407 52.603 155.278 52.3416C155.149 52.0801 154.961 51.8519 154.728 51.6746L153.136 52.5892C153.26 52.7613 153.327 52.9683 153.326 53.1804C153.325 53.3926 153.257 53.599 153.131 53.7701Z" fill="#2B303F"/>
<path d="M149.517 51.6893C150.207 51.5335 150.924 51.5335 151.614 51.6893L153.217 50.7546C151.503 50.1692 149.643 50.1692 147.93 50.7546L149.517 51.6893Z" fill="#2B303F"/>
<path d="M147.995 52.5638L146.397 51.6492C146.165 51.8265 145.977 52.0548 145.848 52.3162C145.719 52.5776 145.651 52.8652 145.651 53.1567C145.651 53.4483 145.719 53.7359 145.848 53.9973C145.977 54.2587 146.165 54.487 146.397 54.6643L147.99 53.7497C147.865 53.5771 147.798 53.3691 147.798 53.1559C147.799 52.9427 147.868 52.7354 147.995 52.5638Z" fill="#2B303F"/>
<path d="M155.893 55.358L157.405 56.2424C159.844 54.4384 159.844 51.8956 157.405 50.0916L155.868 50.981C157.506 52.2876 157.511 54.0514 155.893 55.358Z" fill="#2B303F"/>
<path d="M154.366 56.2373C151.917 57.1697 149.209 57.1697 146.76 56.2373L145.223 57.1217C148.643 58.5286 152.483 58.5286 155.903 57.1217L154.366 56.2373Z" fill="#2B303F"/>
<path d="M146.76 50.1015C149.209 49.1691 151.917 49.1691 154.366 50.1015L155.903 49.217C152.482 47.815 148.644 47.815 145.223 49.217L146.76 50.1015Z" fill="#2B303F"/>
<path d="M145.233 50.976L143.721 50.0966C141.282 51.8956 141.282 54.4384 143.721 56.2424L145.258 55.358C143.641 54.0514 143.641 52.2624 145.233 50.976Z" fill="#2B303F"/>
<path d="M158.579 56.9057L160.091 57.7851C163.982 55.1267 163.982 51.2121 160.091 48.5487L158.579 49.4281C161.638 51.599 161.638 54.7348 158.579 56.9057Z" fill="#2B303F"/>
<path d="M157.057 57.7902C153.282 59.554 147.839 59.554 144.069 57.7902L142.557 58.6696C147.179 60.9058 153.978 60.9058 158.599 58.6696L157.057 57.7902Z" fill="#2B303F"/>
<path d="M144.069 48.5539C147.844 46.7951 153.287 46.79 157.057 48.5539L158.569 47.6745C153.947 45.4332 147.148 45.4332 142.527 47.6745L144.069 48.5539Z" fill="#2B303F"/>
<path d="M142.547 49.4281L141.035 48.5487C137.144 51.2121 137.144 55.1267 141.035 57.7851L142.547 56.9057C139.488 54.7348 139.488 51.604 142.547 49.4281Z" fill="#2B303F"/>
<path opacity="0.4" d="M209.78 185.225L171.265 163.054L209.78 140.882L248.296 163.054L209.78 185.225Z" fill="#D6D8E5"/>
<path d="M247.076 158.154L213.485 138.822L179.898 158.154L174.969 155.32V160.993L213.485 183.165L252 160.993V155.32L247.076 158.154Z" fill="#D5D6E0"/>
<path d="M213.485 177.491L174.969 155.32L213.485 133.149L252 155.32L213.485 177.491Z" fill="#E9EAF4"/>
<path d="M213.485 108.666L181.516 90.2631L213.485 71.8557L245.453 90.2631L213.485 108.666Z" fill="#E9EAF4"/>
<path d="M181.516 90.2632V155.878L213.485 174.285V108.666L181.516 90.2632Z" fill="#DFE0EA"/>
<path d="M213.485 174.285L245.453 155.883V90.2632L213.485 108.666V174.285Z" fill="#D5D6E0"/>
<path d="M224.346 116.696L218.812 119.882V113.51L224.346 110.324V116.696Z" fill="#2B303F"/>
<path d="M241.885 106.6L226.034 115.726V109.354L241.885 100.228V106.6Z" fill="#2B303F"/>
<path d="M224.346 125.982L218.812 129.168V122.796L224.346 119.61V125.982Z" fill="#2B303F"/>
<path d="M241.885 115.887L226.034 125.013V118.641L241.885 109.515V115.887Z" fill="#2B303F"/>
<path d="M224.346 135.269L218.812 138.455V132.083L224.346 128.897V135.269Z" fill="#2B303F"/>
<path d="M241.885 125.173L226.034 134.299V127.927L241.885 118.801V125.173Z" fill="#2B303F"/>
<path d="M224.346 144.561L218.812 147.747V141.375L224.346 138.189V144.561Z" fill="#2B303F"/>
<path d="M241.885 134.46L226.034 143.586V137.214L241.885 128.088V134.46Z" fill="#2B303F"/>
<path d="M224.346 153.847L218.812 157.033V150.661L224.346 147.475V153.847Z" fill="#2B303F"/>
<path d="M241.885 143.747L226.034 152.872V146.5L241.885 137.375V143.747Z" fill="#2B303F"/>
<path d="M191.011 110.505L185.513 107.339V101.012L191.011 104.178V110.505Z" fill="#2B303F"/>
<path d="M208.435 120.54L192.685 111.47V105.143L208.435 114.208V120.54Z" fill="#2B303F"/>
<path d="M191.011 119.731L185.513 116.57V110.239L191.011 113.404V119.731Z" fill="#2B303F"/>
<path d="M208.435 129.766L192.685 120.701V114.369L208.435 123.435V129.766Z" fill="#2B303F"/>
<path d="M191.011 128.962L185.513 125.796V119.465L191.011 122.63V128.962Z" fill="#2B303F"/>
<path d="M208.435 138.993L192.685 129.927V123.595L208.435 132.661V138.993Z" fill="#2B303F"/>
<path d="M191.011 138.189L185.513 135.023V128.691L191.011 131.857V138.189Z" fill="#2B303F"/>
<path d="M208.435 148.219L192.685 139.154V132.822L208.435 141.892V148.219Z" fill="#2B303F"/>
<path d="M191.011 147.415L185.513 144.249V137.917L191.011 141.083V147.415Z" fill="#2B303F"/>
<path d="M208.435 157.445L192.685 148.38V142.048L208.435 151.119V157.445Z" fill="#2B303F"/>
<path d="M181.516 152.204L213.485 170.275L245.453 151.551V155.883L213.485 174.285L181.516 155.878V152.204Z" fill="#8C50FF"/>
<path d="M214.17 90.6953C213.48 90.8537 212.763 90.8537 212.073 90.6953L210.481 91.6099C212.194 92.198 214.055 92.198 215.768 91.6099L214.17 90.6953Z" fill="#2B303F"/>
<path d="M215.712 89.816L217.31 90.7356C217.547 90.5587 217.739 90.3292 217.871 90.0653C218.004 89.8015 218.073 89.5105 218.073 89.2154C218.073 88.9204 218.004 88.6294 217.871 88.3656C217.739 88.1017 217.547 87.8722 217.31 87.6953L215.712 88.6099C215.843 88.7839 215.914 88.9955 215.914 89.2129C215.914 89.4304 215.843 89.642 215.712 89.816Z" fill="#2B303F"/>
<path d="M212.078 87.7356C212.768 87.5772 213.485 87.5772 214.175 87.7356L215.768 86.816C214.056 86.2332 212.198 86.2332 210.486 86.816L212.078 87.7356Z" fill="#2B303F"/>
<path d="M210.556 88.6099L208.959 87.6953C208.722 87.8722 208.53 88.1017 208.397 88.3656C208.265 88.6294 208.196 88.9204 208.196 89.2154C208.196 89.5105 208.265 89.8015 208.397 90.0653C208.53 90.3292 208.722 90.5587 208.959 90.7356L210.551 89.821C210.42 89.646 210.349 89.4331 210.35 89.2146C210.351 88.9961 210.424 88.7838 210.556 88.6099Z" fill="#2B303F"/>
<path d="M218.454 91.404L219.966 92.2884C222.405 90.4894 222.405 87.9416 219.966 86.1426L218.429 87.027C220.072 88.3336 220.072 90.1025 218.454 91.404Z" fill="#2B303F"/>
<path d="M216.932 92.2832C214.481 93.2155 211.772 93.2155 209.322 92.2832L207.784 93.1727C211.205 94.5747 215.043 94.5747 218.464 93.1727L216.932 92.2832Z" fill="#2B303F"/>
<path d="M209.322 86.1475C211.771 85.2179 214.477 85.2179 216.927 86.1475L218.439 85.263C215.018 83.861 211.18 83.861 207.759 85.263L209.322 86.1475Z" fill="#2B303F"/>
<path d="M207.799 87.027L206.262 86.1426C203.823 87.9416 203.823 90.4894 206.262 92.2884L207.799 91.404C206.182 90.0974 206.177 88.3285 207.799 87.027Z" fill="#2B303F"/>
<path d="M221.14 92.9667L222.652 93.8461C226.543 91.1878 226.543 87.2731 222.652 84.6097L221.14 85.4892C224.2 87.65 224.2 90.7807 221.14 92.9667Z" fill="#2B303F"/>
<path d="M219.618 93.8311C215.843 95.5899 210.4 95.5899 206.63 93.8311L205.118 94.7105C209.74 96.9467 216.539 96.9467 221.16 94.7105L219.618 93.8311Z" fill="#2B303F"/>
<path d="M206.64 84.5997C210.415 82.8409 215.858 82.8359 219.628 84.5997L221.14 83.7203C216.519 81.4791 209.72 81.4841 205.098 83.7203L206.64 84.5997Z" fill="#2B303F"/>
<path d="M205.128 85.479L203.616 84.5996C199.725 87.258 199.725 91.1726 203.616 93.831L205.128 92.9515C202.049 90.7806 202.049 87.6499 205.128 85.479Z" fill="#2B303F"/>
<path opacity="0.4" d="M24.8532 214.215L1.77009 200.924C-0.850696 199.416 -0.523097 196.788 2.50089 195.049L14.2188 188.3C17.2428 186.562 21.8141 186.371 24.4298 187.878L47.513 201.17C50.1338 202.678 49.8011 205.306 46.7822 207.044L35.0642 213.793C32.0402 215.532 27.469 215.723 24.8532 214.215Z" fill="#D6D8E5"/>
<path d="M59.5232 197.632V165.501L10.2574 159.973V192.305C10.2221 193.311 10.7916 194.235 12.0113 194.939L35.0944 208.225C37.7102 209.733 42.2865 209.542 45.3054 207.803L57.0234 201.059C58.7269 200.054 59.5736 198.818 59.5434 197.632H59.5232Z" fill="#D6D8E5"/>
<path d="M59.5132 169.009V165.491H55.7231L34.6762 153.38C32.0604 151.872 27.4891 152.063 24.4652 153.802L12.7472 160.546C12.5389 160.666 12.3371 160.797 12.1424 160.938L10.2575 159.973C10.2575 159.973 10.2575 163.677 10.2575 163.802C10.2323 164.807 10.8018 165.727 12.0164 166.426L35.0995 179.712C37.7153 181.22 42.2916 181.034 45.3105 179.29L57.0285 172.546C58.7824 171.541 59.6241 170.23 59.5132 169.029V169.009Z" fill="#EDF0F9"/>
<path d="M35.0945 175.883L12.0114 162.596C9.39561 161.089 9.72321 158.46 12.7472 156.717L24.4652 149.973C27.4891 148.234 32.0604 148.043 34.6762 149.551L57.7593 162.837C60.375 164.345 60.0474 166.978 57.0234 168.717L45.3055 175.471C42.2865 177.215 37.7102 177.39 35.0945 175.883Z" fill="#E2E5F2"/>
<path d="M46.9536 163.822C46.9564 164.027 46.9036 164.229 46.8006 164.406C46.6977 164.583 46.5485 164.728 46.3689 164.827L35.7346 170.948C35.562 171.047 35.3665 171.099 35.1676 171.099C34.9686 171.099 34.7731 171.047 34.6006 170.948L19.7225 162.35C19.5492 162.251 19.4052 162.109 19.3052 161.937C19.2051 161.765 19.1526 161.569 19.153 161.37V161.31L46.9536 163.822Z" fill="#E5E5E5"/>
<path d="M46.3689 164.827L35.7345 170.948C35.5629 171.047 35.3682 171.099 35.17 171.099V163.822H46.9535C46.9564 164.027 46.9035 164.229 46.8006 164.406C46.6976 164.583 46.5484 164.728 46.3689 164.827Z" fill="#E5E5E5"/>
<path d="M35.5883 170.355C35.4653 170.427 35.3253 170.465 35.1826 170.465C35.04 170.465 34.8999 170.427 34.7769 170.355L19.3042 161.456C19.2602 161.442 19.2219 161.414 19.1947 161.377C19.1674 161.34 19.1528 161.295 19.1528 161.249C19.1528 161.204 19.1674 161.159 19.1947 161.122C19.2219 161.085 19.2602 161.057 19.3042 161.043L30.7096 154.475L46.9535 163.822L35.5883 170.355Z" fill="#F4F4F4"/>
<path d="M25.6647 163.827L25.7453 163.873L30.7097 166.732L33.4313 165.164L33.5069 165.119L28.4669 162.214L25.6647 163.827Z" fill="#BFBFBF"/>
<path d="M25.7453 163.873L30.7097 166.732L33.4313 165.164L28.4669 162.305L25.7453 163.873Z" fill="#E5E5E5"/>
<path d="M42.6443 164.39L43.3449 164.827C43.3798 164.846 43.4188 164.856 43.4583 164.856C43.4978 164.856 43.5368 164.846 43.5717 164.827L44.2521 164.435C44.3227 164.395 44.3277 164.34 44.2521 164.305L43.5364 163.893C43.5015 163.874 43.4626 163.865 43.423 163.865C43.3835 163.865 43.3445 163.874 43.3096 163.893L42.6292 164.285C42.5939 164.325 42.5889 164.355 42.6443 164.39Z" fill="#2B303F"/>
<path d="M41.6313 163.822L42.347 164.235C42.3828 164.253 42.4226 164.263 42.4629 164.263C42.5032 164.263 42.543 164.253 42.5788 164.235L43.2592 163.843C43.3298 163.802 43.3348 163.742 43.2592 163.712L42.5435 163.3C42.5086 163.281 42.4697 163.272 42.4301 163.272C42.3906 163.272 42.3517 163.281 42.3167 163.3L41.6363 163.692C41.5809 163.717 41.5759 163.772 41.6313 163.822Z" fill="#2B303F"/>
<path d="M40.6182 163.224L41.3339 163.636C41.3697 163.655 41.4095 163.665 41.4498 163.665C41.4902 163.665 41.5299 163.655 41.5658 163.636L42.2462 163.244C42.3117 163.204 42.3218 163.144 42.2462 163.114L41.5305 162.702C41.4956 162.683 41.4566 162.674 41.4171 162.674C41.3775 162.674 41.3386 162.683 41.3037 162.702L40.6233 163.094C40.5678 163.134 40.5628 163.189 40.6182 163.224Z" fill="#2B303F"/>
<path d="M39.6052 162.641L40.3209 163.053C40.3567 163.072 40.3965 163.082 40.4368 163.082C40.4772 163.082 40.5169 163.072 40.5528 163.053L41.2332 162.661C41.2987 162.621 41.3088 162.561 41.2332 162.531L40.5175 162.119C40.4826 162.1 40.4436 162.091 40.4041 162.091C40.3645 162.091 40.3256 162.1 40.2907 162.119L39.6103 162.511C39.5548 162.546 39.5498 162.606 39.6052 162.641Z" fill="#2B303F"/>
<path d="M38.5922 162.058L39.3079 162.471C39.3432 162.488 39.382 162.497 39.4213 162.497C39.4606 162.497 39.4994 162.488 39.5347 162.471L40.2201 162.079C40.2856 162.038 40.2957 161.978 40.2201 161.948L39.5044 161.536C39.4692 161.519 39.4304 161.51 39.391 161.51C39.3517 161.51 39.3129 161.519 39.2776 161.536L38.5922 161.933C38.5418 161.963 38.5368 162.023 38.5922 162.058Z" fill="#2B303F"/>
<path d="M37.5791 161.476L38.2948 161.888C38.3301 161.905 38.3689 161.914 38.4082 161.914C38.4475 161.914 38.4863 161.905 38.5216 161.888L39.2071 161.496C39.2726 161.456 39.2827 161.395 39.2071 161.36L38.4914 160.948C38.4557 160.932 38.4171 160.924 38.378 160.924C38.3389 160.924 38.3002 160.932 38.2646 160.948L37.5791 161.345C37.5287 161.38 37.5237 161.44 37.5791 161.476Z" fill="#2B303F"/>
<path d="M36.5662 160.893L37.297 161.31C37.3326 161.326 37.3713 161.334 37.4104 161.334C37.4494 161.334 37.4881 161.326 37.5238 161.31L38.2092 160.913C38.2747 160.878 38.2848 160.817 38.2092 160.782L37.4935 160.37C37.4578 160.354 37.4192 160.346 37.3801 160.346C37.341 160.346 37.3024 160.354 37.2667 160.37L36.5813 160.762C36.5158 160.807 36.5057 160.857 36.5662 160.893Z" fill="#2B303F"/>
<path d="M35.553 160.305L36.2687 160.717C36.3044 160.733 36.343 160.741 36.3821 160.741C36.4212 160.741 36.4598 160.733 36.4955 160.717L37.1809 160.32C37.2464 160.285 37.2565 160.224 37.1809 160.189L36.4653 159.777C36.43 159.76 36.3912 159.751 36.3519 159.751C36.3125 159.751 36.2737 159.76 36.2385 159.777L35.553 160.169C35.5026 160.214 35.4925 160.275 35.553 160.305Z" fill="#2B303F"/>
<path d="M34.5401 159.722L35.2558 160.134C35.291 160.151 35.3298 160.16 35.3692 160.16C35.4085 160.16 35.4473 160.151 35.4826 160.134L36.168 159.737C36.2335 159.702 36.2436 159.641 36.168 159.606L35.4523 159.194C35.417 159.177 35.3782 159.168 35.3389 159.168C35.2996 159.168 35.2608 159.177 35.2255 159.194L34.5401 159.586C34.4897 159.631 34.4796 159.692 34.5401 159.722Z" fill="#2B303F"/>
<path d="M33.527 159.139L34.2427 159.551C34.2776 159.569 34.3166 159.579 34.3561 159.579C34.3956 159.579 34.4346 159.569 34.4695 159.551L35.1549 159.159C35.2205 159.119 35.2255 159.064 35.1549 159.028L34.4393 158.616C34.4043 158.598 34.3654 158.588 34.3259 158.588C34.2863 158.588 34.2474 158.598 34.2125 158.616L33.527 159.008C33.4766 159.048 33.4665 159.109 33.527 159.139Z" fill="#2B303F"/>
<path d="M32.514 158.556L33.2296 158.968C33.2646 158.986 33.3035 158.996 33.343 158.996C33.3826 158.996 33.4215 158.986 33.4564 158.968L34.1419 158.576C34.2074 158.536 34.2124 158.481 34.1419 158.445L33.4262 158.033C33.3913 158.015 33.3523 158.005 33.3128 158.005C33.2733 158.005 33.2343 158.015 33.1994 158.033L32.514 158.425C32.4636 158.465 32.4535 158.526 32.514 158.556Z" fill="#2B303F"/>
<path d="M31.5009 157.973L32.2166 158.385C32.2515 158.404 32.2904 158.413 32.33 158.413C32.3695 158.413 32.4085 158.404 32.4434 158.385L33.1238 157.993C33.1943 157.953 33.1994 157.898 33.1238 157.863L32.4081 157.451C32.3723 157.432 32.3325 157.422 32.2922 157.422C32.2518 157.422 32.2121 157.432 32.1763 157.451L31.4959 157.843C31.4505 157.883 31.4404 157.938 31.5009 157.973Z" fill="#2B303F"/>
<path d="M30.4879 157.39L31.2036 157.802C31.2385 157.821 31.2774 157.83 31.317 157.83C31.3565 157.83 31.3955 157.821 31.4304 157.802L32.1108 157.41C32.1813 157.37 32.1864 157.315 32.1108 157.28L31.3951 156.868C31.3593 156.849 31.3195 156.839 31.2792 156.839C31.2388 156.839 31.1991 156.849 31.1633 156.868L30.4829 157.259C30.4375 157.29 30.4274 157.355 30.4879 157.39Z" fill="#2B303F"/>
<path d="M28.986 156.526L30.1906 157.219C30.2255 157.238 30.2644 157.247 30.304 157.247C30.3435 157.247 30.3824 157.238 30.4174 157.219L31.0978 156.827C31.1683 156.787 31.1734 156.727 31.0978 156.697L29.8932 156.003C29.8583 155.985 29.8194 155.975 29.7798 155.975C29.7403 155.975 29.7013 155.985 29.6664 156.003L28.981 156.395C28.9356 156.435 28.9255 156.491 28.986 156.526Z" fill="#2B303F"/>
<path d="M40.1596 164.089L40.8753 164.501C40.9115 164.518 40.9511 164.527 40.9912 164.527C41.0314 164.527 41.071 164.518 41.1071 164.501L41.7875 164.104C41.8531 164.069 41.8631 164.008 41.7875 163.973L41.0719 163.561C41.0366 163.544 40.9978 163.535 40.9585 163.535C40.9191 163.535 40.8804 163.544 40.8451 163.561L40.1647 163.953C40.1092 163.998 40.1042 164.059 40.1596 164.089Z" fill="#2B303F"/>
<path d="M39.1466 163.506L39.8623 163.918C39.8972 163.936 39.9362 163.946 39.9757 163.946C40.0153 163.946 40.0542 163.936 40.0891 163.918L40.7746 163.526C40.8401 163.486 40.8502 163.43 40.7746 163.395L40.0589 162.983C40.024 162.965 39.985 162.955 39.9455 162.955C39.9059 162.955 39.867 162.965 39.8321 162.983L39.1466 163.375C39.0962 163.415 39.0862 163.471 39.1466 163.506Z" fill="#2B303F"/>
<path d="M38.1286 162.923L38.8493 163.335C38.8842 163.353 38.9232 163.363 38.9627 163.363C39.0022 163.363 39.0412 163.353 39.0761 163.335L39.7565 162.943C39.8271 162.903 39.8321 162.842 39.7565 162.812L39.0358 162.4C39.0008 162.382 38.9619 162.372 38.9224 162.372C38.8828 162.372 38.8439 162.382 38.809 162.4L38.1286 162.792C38.0782 162.817 38.0731 162.888 38.1286 162.923Z" fill="#2B303F"/>
<path d="M37.1155 162.34L37.8312 162.752C37.8668 162.768 37.9055 162.776 37.9446 162.776C37.9836 162.776 38.0223 162.768 38.058 162.752L38.7434 162.355C38.8089 162.32 38.819 162.26 38.7434 162.224L38.0428 161.812C38.0076 161.795 37.9688 161.786 37.9294 161.786C37.8901 161.786 37.8513 161.795 37.816 161.812L37.1306 162.204C37.0651 162.244 37.055 162.315 37.1155 162.34Z" fill="#2B303F"/>
<path d="M36.1075 161.757L36.8232 162.169C36.859 162.188 36.8988 162.197 36.9391 162.197C36.9794 162.197 37.0192 162.188 37.055 162.169L37.7354 161.777C37.8009 161.737 37.811 161.682 37.7354 161.646L37.0197 161.234C36.9848 161.216 36.9459 161.206 36.9063 161.206C36.8668 161.206 36.8279 161.216 36.7929 161.234L36.1125 161.626C36.0571 161.666 36.0521 161.727 36.1075 161.757Z" fill="#2B303F"/>
<path d="M35.0945 161.174L35.8101 161.586C35.8451 161.605 35.884 161.614 35.9235 161.614C35.9631 161.614 36.002 161.605 36.0369 161.586L36.7224 161.194C36.7879 161.154 36.7929 161.094 36.7224 161.064L36.0067 160.651C35.9718 160.633 35.9328 160.623 35.8933 160.623C35.8538 160.623 35.8148 160.633 35.7799 160.651L35.0945 161.043C35.0441 161.084 35.034 161.139 35.0945 161.174Z" fill="#2B303F"/>
<path d="M34.0764 160.591L34.7921 161.003C34.8286 161.019 34.8681 161.028 34.908 161.028C34.948 161.028 34.9874 161.019 35.024 161.003L35.7043 160.611C35.7749 160.571 35.7799 160.511 35.7043 160.476L34.9887 160.064C34.953 160.048 34.9144 160.039 34.8753 160.039C34.8362 160.039 34.7975 160.048 34.7619 160.064L34.0815 160.461C34.026 160.496 34.021 160.556 34.0764 160.591Z" fill="#2B303F"/>
<path d="M33.0633 160.003L33.779 160.415C33.8139 160.434 33.8529 160.443 33.8924 160.443C33.932 160.443 33.9709 160.434 34.0058 160.415L34.6912 160.023C34.7568 159.988 34.7668 159.928 34.6912 159.893L33.9756 159.481C33.9406 159.462 33.9017 159.452 33.8622 159.452C33.8226 159.452 33.7837 159.462 33.7488 159.481L33.0633 159.873C33.0129 159.913 33.0029 159.973 33.0633 160.003Z" fill="#2B303F"/>
<path d="M32.0503 159.42L32.766 159.832C32.8009 159.851 32.8399 159.861 32.8794 159.861C32.9189 159.861 32.9579 159.851 32.9928 159.832L33.6732 159.44C33.7438 159.4 33.7488 159.345 33.6732 159.31L32.9575 158.898C32.9217 158.879 32.8819 158.87 32.8416 158.87C32.8013 158.87 32.7615 158.879 32.7257 158.898L32.0453 159.29C31.9949 159.33 31.9898 159.385 32.0503 159.42Z" fill="#2B303F"/>
<path d="M31.0322 158.837L31.7479 159.249C31.7832 159.267 31.822 159.276 31.8613 159.276C31.9006 159.276 31.9394 159.267 31.9747 159.249L32.6601 158.857C32.7256 158.817 32.7357 158.757 32.6601 158.727L31.9596 158.295C31.9243 158.277 31.8855 158.268 31.8462 158.268C31.8068 158.268 31.768 158.277 31.7328 158.295L31.0473 158.692C30.9818 158.742 30.9768 158.797 31.0322 158.837Z" fill="#2B303F"/>
<path d="M30.0192 158.249L30.7349 158.661C30.7702 158.679 30.809 158.688 30.8483 158.688C30.8876 158.688 30.9264 158.679 30.9617 158.661L31.6471 158.264C31.7126 158.229 31.7177 158.169 31.6471 158.134L30.9314 157.722C30.8962 157.704 30.8574 157.695 30.818 157.695C30.7787 157.695 30.7399 157.704 30.7046 157.722L30.0192 158.114C29.9688 158.159 29.9587 158.219 30.0192 158.249Z" fill="#2B303F"/>
<path d="M29.0011 157.666L29.7168 158.079C29.7526 158.097 29.7924 158.107 29.8327 158.107C29.8731 158.107 29.9128 158.097 29.9486 158.079L30.629 157.687C30.6996 157.646 30.7046 157.591 30.629 157.556L29.9134 157.144C29.8784 157.125 29.8395 157.116 29.8 157.116C29.7604 157.116 29.7215 157.125 29.6866 157.144L29.0062 157.536C28.9507 157.576 28.9457 157.636 29.0011 157.666Z" fill="#2B303F"/>
<path d="M41.1777 164.677L42.3823 165.37C42.418 165.386 42.4566 165.394 42.4957 165.394C42.5348 165.394 42.5734 165.386 42.6091 165.37L43.2895 164.978C43.36 164.938 43.3651 164.878 43.2895 164.843L42.0849 164.149C42.0493 164.133 42.0106 164.125 41.9715 164.125C41.9324 164.125 41.8938 164.133 41.8581 164.149L41.1727 164.546C41.1273 164.581 41.1172 164.642 41.1777 164.677Z" fill="#2B303F"/>
<path d="M28.9205 156.556L29.6362 156.968C29.6916 156.998 29.6916 157.053 29.6362 157.089L28.9104 157.506C28.8775 157.522 28.8413 157.53 28.8046 157.53C28.7679 157.53 28.7317 157.522 28.6988 157.506L28.6433 157.47C28.6127 157.456 28.5791 157.448 28.545 157.448C28.511 157.448 28.4774 157.456 28.4468 157.47L27.6857 157.913C27.6531 157.93 27.6168 157.939 27.5799 157.939C27.543 157.939 27.5067 157.93 27.474 157.913L27.0154 157.651C27.0037 157.646 26.9939 157.637 26.9871 157.625C26.9802 157.614 26.9766 157.602 26.9766 157.589C26.9766 157.576 26.9802 157.563 26.9871 157.552C26.9939 157.541 27.0037 157.532 27.0154 157.526L27.7311 157.119L27.8772 157.033L27.9831 156.968L28.094 156.908L28.7088 156.556C28.7415 156.539 28.7778 156.53 28.8147 156.53C28.8516 156.53 28.8879 156.539 28.9205 156.556Z" fill="#2B303F"/>
<path d="M38.7132 166.651L39.4289 167.064C39.4642 167.081 39.503 167.09 39.5423 167.09C39.5816 167.09 39.6204 167.081 39.6557 167.064L40.3412 166.672C40.4067 166.631 40.4168 166.571 40.3412 166.536L39.6255 166.124C39.5898 166.108 39.5512 166.1 39.5121 166.1C39.473 166.1 39.4343 166.108 39.3987 166.124L38.7132 166.521C38.6628 166.556 38.6578 166.616 38.7132 166.651Z" fill="#2B303F"/>
<path d="M37.7052 166.069L38.4209 166.481C38.4558 166.499 38.4947 166.509 38.5342 166.509C38.5738 166.509 38.6127 166.499 38.6476 166.481L39.328 166.089C39.3986 166.049 39.4036 165.988 39.328 165.958L38.6124 165.546C38.5765 165.528 38.5368 165.518 38.4964 165.518C38.4561 165.518 38.4164 165.528 38.3805 165.546L37.7001 165.938C37.6497 165.978 37.6447 166.034 37.7052 166.069Z" fill="#2B303F"/>
<path d="M36.6922 165.486L37.4079 165.898C37.4428 165.916 37.4817 165.926 37.5213 165.926C37.5608 165.926 37.5997 165.916 37.6347 165.898L38.3201 165.506C38.3856 165.466 38.3957 165.41 38.3201 165.375L37.6044 164.963C37.5695 164.945 37.5306 164.935 37.491 164.935C37.4515 164.935 37.4125 164.945 37.3776 164.963L36.6922 165.355C36.6418 165.395 36.6367 165.456 36.6922 165.486Z" fill="#2B303F"/>
<path d="M28.0889 160.531L28.8045 160.943C28.8398 160.96 28.8786 160.969 28.9179 160.969C28.9573 160.969 28.9961 160.96 29.0313 160.943L29.7117 160.546C29.7823 160.511 29.7873 160.45 29.7117 160.415L28.9961 160.003C28.9602 159.985 28.9205 159.975 28.8801 159.975C28.8398 159.975 28.8 159.985 28.7642 160.003L28.0838 160.395C28.0385 160.44 28.0284 160.501 28.0889 160.531Z" fill="#2B303F"/>
<path d="M27.0759 159.953L27.7916 160.365C27.8269 160.382 27.8657 160.391 27.905 160.391C27.9443 160.391 27.9831 160.382 28.0184 160.365L28.7038 159.973C28.7693 159.933 28.7794 159.873 28.7038 159.837L27.9881 159.425C27.9525 159.409 27.9138 159.401 27.8747 159.401C27.8357 159.401 27.797 159.409 27.7613 159.425L27.0759 159.822C27.0255 159.857 27.0205 159.918 27.0759 159.953Z" fill="#2B303F"/>
<path d="M26.0679 159.37L26.7835 159.782C26.8185 159.801 26.8574 159.81 26.8969 159.81C26.9365 159.81 26.9754 159.801 27.0103 159.782L27.6907 159.39C27.7613 159.35 27.7663 159.29 27.6907 159.259L26.9751 158.847C26.9392 158.829 26.8995 158.819 26.8591 158.819C26.8188 158.819 26.779 158.829 26.7432 158.847L26.0628 159.239C26.0175 159.3 26.0074 159.335 26.0679 159.37Z" fill="#2B303F"/>
<path d="M25.0548 158.797L25.7705 159.209C25.8054 159.228 25.8443 159.238 25.8839 159.238C25.9234 159.238 25.9623 159.228 25.9973 159.209L26.6827 158.817C26.7482 158.777 26.7583 158.722 26.6827 158.687L25.967 158.275C25.9321 158.256 25.8932 158.247 25.8536 158.247C25.8141 158.247 25.7752 158.256 25.7402 158.275L25.0548 158.667C25.0044 158.697 24.9993 158.752 25.0548 158.797Z" fill="#2B303F"/>
<path d="M35.4221 164.757L36.3998 165.33C36.4351 165.347 36.4739 165.356 36.5132 165.356C36.5525 165.356 36.5913 165.347 36.6266 165.33L37.307 164.933C37.3776 164.898 37.3826 164.837 37.307 164.802L36.3293 164.239C36.2936 164.223 36.2549 164.215 36.2159 164.215C36.1768 164.215 36.1381 164.223 36.1025 164.239L35.417 164.636C35.3717 164.662 35.3616 164.722 35.4221 164.757Z" fill="#2B303F"/>
<path d="M29.097 161.114L30.0747 161.677C30.1096 161.695 30.1486 161.705 30.1881 161.705C30.2277 161.705 30.2666 161.695 30.3015 161.677L30.987 161.285C31.0525 161.244 31.0575 161.184 30.987 161.154L30.0092 160.591C29.9743 160.573 29.9353 160.563 29.8958 160.563C29.8563 160.563 29.8173 160.573 29.7824 160.591L29.097 160.983C29.0466 161.023 29.0415 161.079 29.097 161.114Z" fill="#2B303F"/>
<path d="M30.367 161.848L35.1298 164.586C35.1647 164.605 35.2036 164.614 35.2432 164.614C35.2827 164.614 35.3216 164.605 35.3566 164.586L36.037 164.194C36.1075 164.154 36.1126 164.094 36.037 164.064L31.2943 161.31C31.2591 161.293 31.2203 161.284 31.1809 161.284C31.1416 161.284 31.1028 161.293 31.0675 161.31L30.3871 161.707C30.3166 161.752 30.3115 161.812 30.367 161.848Z" fill="#2B303F"/>
<path d="M38.9047 164.496L39.6204 164.908C39.6553 164.926 39.6942 164.936 39.7338 164.936C39.7733 164.936 39.8123 164.926 39.8472 164.908L40.5326 164.516C40.5981 164.481 40.6032 164.42 40.5326 164.385L39.8169 163.963C39.782 163.945 39.7431 163.935 39.7035 163.935C39.664 163.935 39.6251 163.945 39.5901 163.963L38.9047 164.355C38.8543 164.405 38.8442 164.466 38.9047 164.496Z" fill="#2B303F"/>
<path d="M37.8917 163.913L38.6073 164.325C38.6426 164.342 38.6814 164.351 38.7207 164.351C38.7601 164.351 38.7989 164.342 38.8341 164.325L39.5196 163.928C39.5851 163.893 39.5952 163.832 39.5196 163.797L38.8089 163.38C38.774 163.362 38.7351 163.352 38.6955 163.352C38.656 163.352 38.6171 163.362 38.5821 163.38L37.8967 163.772C37.8413 163.822 37.8312 163.883 37.8917 163.913Z" fill="#2B303F"/>
<path d="M36.8786 163.32L37.5943 163.732C37.6295 163.749 37.6683 163.758 37.7077 163.758C37.747 163.758 37.7858 163.749 37.8211 163.732L38.5065 163.32C38.572 163.285 38.5821 163.224 38.5065 163.189L37.8009 162.817C37.7656 162.8 37.7268 162.791 37.6875 162.791C37.6482 162.791 37.6094 162.8 37.5741 162.817L36.8887 163.209C36.8282 163.24 36.8181 163.32 36.8786 163.32Z" fill="#2B303F"/>
<path d="M35.8656 162.747L36.5812 163.159C36.6165 163.176 36.6553 163.185 36.6946 163.185C36.734 163.185 36.7728 163.176 36.808 163.159L37.4935 162.762C37.559 162.727 37.5691 162.667 37.4935 162.631L36.7929 162.214C36.7576 162.197 36.7188 162.188 36.6795 162.188C36.6402 162.188 36.6014 162.197 36.5661 162.214L35.8807 162.606C35.8152 162.657 35.8101 162.717 35.8656 162.747Z" fill="#2B303F"/>
<path d="M34.8526 162.169L35.5683 162.581C35.6048 162.597 35.6443 162.606 35.6842 162.606C35.7241 162.606 35.7636 162.597 35.8001 162.581L36.4805 162.184C36.5511 162.149 36.5561 162.089 36.4805 162.054L35.785 161.632C35.7497 161.614 35.7109 161.605 35.6716 161.605C35.6323 161.605 35.5935 161.614 35.5582 161.632L34.8778 162.023C34.8022 162.074 34.777 162.134 34.8526 162.169Z" fill="#2B303F"/>
<path d="M33.8446 161.586L34.5602 161.998C34.5959 162.014 34.6346 162.022 34.6736 162.022C34.7127 162.022 34.7514 162.014 34.787 161.998L35.4674 161.601C35.538 161.566 35.543 161.506 35.4674 161.471L34.777 161.049C34.7404 161.032 34.701 161.024 34.661 161.024C34.6211 161.024 34.5816 161.032 34.5451 161.049L33.8647 161.44C33.769 161.491 33.769 161.551 33.8446 161.586Z" fill="#2B303F"/>
<path d="M32.8316 161.003L33.5472 161.415C33.5829 161.431 33.6216 161.439 33.6606 161.439C33.6997 161.439 33.7384 161.431 33.774 161.415L34.4544 161.023C34.525 160.983 34.53 160.923 34.4544 160.888L33.769 160.466C33.7325 160.449 33.693 160.441 33.6531 160.441C33.6132 160.441 33.5737 160.449 33.5372 160.466L32.8568 160.862C32.761 160.908 32.761 160.968 32.8316 161.003Z" fill="#2B303F"/>
<path d="M31.8185 160.42L32.5342 160.832C32.5694 160.85 32.6082 160.859 32.6476 160.859C32.6869 160.859 32.7257 160.85 32.761 160.832L33.4464 160.44C33.5119 160.4 33.517 160.34 33.4464 160.305L32.761 159.883C32.7253 159.867 32.6866 159.859 32.6476 159.859C32.6085 159.859 32.5698 159.867 32.5342 159.883L31.8487 160.28C31.753 160.305 31.753 160.385 31.8185 160.42Z" fill="#2B303F"/>
<path d="M30.8055 159.837L31.5212 160.249C31.5565 160.267 31.5953 160.276 31.6346 160.276C31.6739 160.276 31.7127 160.267 31.748 160.249L32.4334 159.857C32.4989 159.817 32.509 159.757 32.4334 159.722L31.753 159.3C31.7173 159.284 31.6787 159.276 31.6396 159.276C31.6005 159.276 31.5619 159.284 31.5262 159.3L30.8408 159.697C30.745 159.742 30.745 159.802 30.8055 159.837Z" fill="#2B303F"/>
<path d="M29.7924 159.255L30.5081 159.667C30.5434 159.684 30.5822 159.693 30.6215 159.693C30.6608 159.693 30.6996 159.684 30.7349 159.667L31.4204 159.275C31.4859 159.234 31.496 159.174 31.4204 159.144L30.745 158.722C30.7097 158.705 30.6709 158.696 30.6316 158.696C30.5923 158.696 30.5535 158.705 30.5182 158.722L29.8328 159.119C29.737 159.159 29.737 159.219 29.7924 159.255Z" fill="#2B303F"/>
<path d="M28.7794 158.671L29.4951 159.084C29.5312 159.101 29.5708 159.11 29.611 159.11C29.6511 159.11 29.6907 159.101 29.7269 159.084L30.4073 158.692C30.4728 158.651 30.4829 158.591 30.4073 158.561L29.6916 158.149C29.6563 158.132 29.6175 158.123 29.5782 158.123C29.5389 158.123 29.5001 158.132 29.4648 158.149L28.7844 158.546C28.729 158.576 28.729 158.636 28.7794 158.671Z" fill="#2B303F"/>
<path d="M27.7664 158.089L28.4821 158.501C28.5179 158.519 28.5576 158.529 28.598 158.529C28.6383 158.529 28.6781 158.519 28.7139 158.501L29.3943 158.109C29.4649 158.068 29.4699 158.008 29.3943 157.978L28.6786 157.566C28.6433 157.549 28.6045 157.54 28.5652 157.54C28.5259 157.54 28.4871 157.549 28.4518 157.566L27.7714 157.963C27.721 157.993 27.721 158.053 27.7664 158.089Z" fill="#2B303F"/>
<path d="M39.9178 165.079L41.3945 165.933C41.4304 165.952 41.4701 165.961 41.5105 165.961C41.5508 165.961 41.5905 165.952 41.6264 165.933L42.3068 165.541C42.3723 165.501 42.3824 165.441 42.3068 165.41L40.825 164.546C40.7892 164.528 40.7494 164.518 40.7091 164.518C40.6687 164.518 40.629 164.528 40.5932 164.546L39.9128 164.938C39.8624 164.988 39.8573 165.049 39.9178 165.079Z" fill="#2B303F"/>
<path d="M38.4259 165.33L39.1416 165.742C39.1769 165.759 39.2157 165.768 39.255 165.768C39.2943 165.768 39.3331 165.759 39.3684 165.742L40.0488 165.345C40.1193 165.31 40.1244 165.25 40.0488 165.214L39.3533 164.827C39.3171 164.81 39.2775 164.801 39.2373 164.801C39.1972 164.801 39.1576 164.81 39.1214 164.827L38.441 165.219C38.3705 165.26 38.3654 165.33 38.4259 165.33Z" fill="#2B303F"/>
<path d="M37.4129 164.772L38.1286 165.184C38.1642 165.2 38.2029 165.208 38.242 165.208C38.281 165.208 38.3197 165.2 38.3554 165.184L39.0408 164.787C39.1063 164.752 39.1114 164.692 39.0408 164.656L38.3251 164.244C38.2898 164.227 38.251 164.218 38.2117 164.218C38.1724 164.218 38.1336 164.227 38.0983 164.244L37.4129 164.636C37.3625 164.677 37.3524 164.737 37.4129 164.772Z" fill="#2B303F"/>
<path d="M36.3998 164.189L37.1155 164.601C37.1512 164.617 37.1898 164.625 37.2289 164.625C37.268 164.625 37.3066 164.617 37.3423 164.601L38.0277 164.204C38.0933 164.169 38.1033 164.109 38.0277 164.074L37.3121 163.662C37.2768 163.644 37.238 163.635 37.1987 163.635C37.1593 163.635 37.1205 163.644 37.0853 163.662L36.3998 164.054C36.3494 164.094 36.3393 164.154 36.3998 164.189Z" fill="#2B303F"/>
<path d="M35.3868 163.606L36.1024 164.018C36.1381 164.034 36.1767 164.043 36.2158 164.043C36.2549 164.043 36.2936 164.034 36.3292 164.018L37.0147 163.626C37.0802 163.586 37.0903 163.526 37.0147 163.491L36.299 163.079C36.2633 163.063 36.2247 163.054 36.1856 163.054C36.1465 163.054 36.1079 163.063 36.0722 163.079L35.3868 163.476C35.3364 163.511 35.3313 163.571 35.3868 163.606Z" fill="#2B303F"/>
<path d="M34.3738 163.023L35.0894 163.435C35.1256 163.453 35.1652 163.462 35.2054 163.462C35.2455 163.462 35.2851 163.453 35.3213 163.435L36.0017 163.043C36.0672 163.003 36.0773 162.943 36.0017 162.908L35.281 162.486C35.2453 162.47 35.2066 162.461 35.1676 162.461C35.1285 162.461 35.0898 162.47 35.0542 162.486L34.3738 162.883C34.3234 162.928 34.3183 162.988 34.3738 163.023Z" fill="#2B303F"/>
<path d="M33.3607 162.441L34.0814 162.853C34.1167 162.87 34.1555 162.879 34.1948 162.879C34.2341 162.879 34.2729 162.87 34.3082 162.853L34.9886 162.461C35.0592 162.42 35.0642 162.36 34.9886 162.33L34.2729 161.908C34.2376 161.891 34.1988 161.882 34.1595 161.882C34.1202 161.882 34.0814 161.891 34.0461 161.908L33.3657 162.305C33.3103 162.345 33.3052 162.405 33.3607 162.441Z" fill="#2B303F"/>
<path d="M32.3527 161.858L33.0684 162.27C33.1033 162.288 33.1422 162.298 33.1818 162.298C33.2213 162.298 33.2602 162.288 33.2952 162.27L33.9756 161.878C34.0461 161.837 34.0512 161.777 33.9756 161.747L33.2649 161.31C33.2288 161.292 33.1892 161.283 33.149 161.283C33.1089 161.283 33.0693 161.292 33.0331 161.31L32.3527 161.707C32.3023 161.762 32.2922 161.812 32.3527 161.858Z" fill="#2B303F"/>
<path d="M31.3397 161.275L32.0554 161.687C32.0903 161.705 32.1293 161.715 32.1688 161.715C32.2083 161.715 32.2473 161.705 32.2822 161.687L32.9676 161.295C33.0332 161.255 33.0382 161.194 32.9676 161.164L32.257 160.742C32.2221 160.724 32.1831 160.714 32.1436 160.714C32.1041 160.714 32.0651 160.724 32.0302 160.742L31.3448 161.134C31.2893 161.184 31.2792 161.24 31.3397 161.275Z" fill="#2B303F"/>
<path d="M30.3266 160.692L31.0423 161.104C31.0772 161.122 31.1162 161.132 31.1557 161.132C31.1953 161.132 31.2342 161.122 31.2691 161.104L31.9546 160.712C32.0201 160.672 32.0302 160.611 31.9546 160.581L31.249 160.159C31.214 160.141 31.1751 160.131 31.1356 160.131C31.096 160.131 31.0571 160.141 31.0222 160.159L30.3367 160.551C30.2762 160.601 30.2662 160.657 30.3266 160.692Z" fill="#2B303F"/>
<path d="M29.3136 160.109L30.0293 160.521C30.0642 160.539 30.1032 160.549 30.1427 160.549C30.1823 160.549 30.2212 160.539 30.2561 160.521L30.9416 160.129C31.0071 160.089 31.0172 160.028 30.9416 159.998L30.241 159.576C30.2061 159.558 30.1671 159.548 30.1276 159.548C30.0881 159.548 30.0491 159.558 30.0142 159.576L29.3338 159.968C29.2632 160.018 29.2582 160.074 29.3136 160.109Z" fill="#2B303F"/>
<path d="M28.3005 159.526L29.0162 159.938C29.052 159.956 29.0918 159.966 29.1321 159.966C29.1725 159.966 29.2122 159.956 29.248 159.938L29.9284 159.546C29.999 159.506 30.004 159.451 29.9284 159.415L29.2329 158.993C29.198 158.975 29.1591 158.965 29.1195 158.965C29.08 158.965 29.0411 158.975 29.0061 158.993L28.3257 159.385C28.2501 159.435 28.2249 159.491 28.3005 159.526Z" fill="#2B303F"/>
<path d="M26.0376 158.224L28.0082 159.355C28.0432 159.373 28.0821 159.383 28.1216 159.383C28.1612 159.383 28.2001 159.373 28.235 159.355L28.9154 158.963C28.986 158.923 28.991 158.867 28.9154 158.832L26.9448 157.697C26.9091 157.681 26.8705 157.672 26.8314 157.672C26.7923 157.672 26.7537 157.681 26.718 157.697L26.0326 158.094C25.9872 158.129 25.9771 158.189 26.0376 158.224Z" fill="#2B303F"/>
<path d="M39.4339 165.933L40.4117 166.496C40.4466 166.514 40.4855 166.524 40.5251 166.524C40.5646 166.524 40.6036 166.514 40.6385 166.496L41.3239 166.104C41.3894 166.064 41.3995 166.008 41.3239 165.973L40.3462 165.41C40.3112 165.392 40.2723 165.382 40.2328 165.382C40.1932 165.382 40.1543 165.392 40.1194 165.41L39.439 165.802C39.3835 165.832 39.3785 165.903 39.4339 165.933Z" fill="#2B303F"/>
<path d="M46.9535 163.823L30.7097 154.476V141.737L30.8357 141.455L30.9667 141.385C31.1382 141.288 31.3318 141.238 31.5287 141.238C31.7255 141.238 31.9191 141.288 32.0906 141.385L46.9535 149.928C47.1242 150.026 47.2658 150.167 47.364 150.338C47.4622 150.508 47.5136 150.701 47.513 150.898V162.848C47.4122 163.481 47.3013 163.627 46.9535 163.823Z" fill="#E5E5E5"/>
<path d="M45.4617 151.486L30.7097 142.164V141.737L30.8357 141.455L30.9667 141.385C31.1382 141.288 31.3318 141.238 31.5287 141.238C31.7255 141.238 31.9191 141.288 32.0906 141.385L46.9535 149.928C47.1345 150.033 47.2828 150.186 47.3819 150.37L45.4617 151.486Z" fill="#E5E5E5"/>
<path d="M31.0826 141.45L46.7065 150.43C46.7896 150.478 46.8586 150.547 46.9064 150.63C46.9542 150.713 46.9791 150.807 46.9787 150.902V163.822L30.7096 154.475V141.666C30.7089 141.622 30.7198 141.579 30.7414 141.541C30.763 141.503 30.7945 141.471 30.8325 141.449C30.8705 141.427 30.9137 141.415 30.9577 141.416C31.0017 141.416 31.0448 141.428 31.0826 141.45Z" fill="#DCEEFF"/>
<path d="M31.0826 141.45L46.7065 150.43C46.7896 150.478 46.8586 150.547 46.9064 150.63C46.9542 150.713 46.9791 150.807 46.9787 150.902V163.822L30.7096 154.475V141.666C30.7089 141.622 30.7198 141.579 30.7414 141.541C30.763 141.503 30.7945 141.471 30.8325 141.449C30.8705 141.427 30.9137 141.415 30.9577 141.416C31.0017 141.416 31.0448 141.428 31.0826 141.45Z" fill="#F4F4F4"/>
<path d="M46.9535 163.827V163.365L30.7097 154.013V154.475L46.9535 163.827Z" fill="#DBDBDB"/>
<path d="M31.3296 142.234V153.702L46.4294 162.37V150.928L31.3296 142.234Z" fill="#1E212D"/>
<path d="M4.36571 152.586C4.22963 153.792 2.78819 158.978 3.10067 160.752C3.41315 162.526 8.32209 165.501 8.32209 165.501L9.00249 162.486L6.2809 159.802L7.01674 154.777L4.36571 152.586Z" fill="#FFCEA9"/>
<path d="M8.17091 147.475C7.69265 147.255 7.14989 147.217 6.64548 147.369C6.14108 147.521 5.71009 147.852 5.4342 148.299C4.70844 149.495 3.95749 153.591 3.89197 154.274C3.89197 154.274 4.89996 155.672 6.41196 155.44L8.17091 147.475Z" fill="#EDEDED"/>
<path d="M13.7804 205.311C14.8502 205.604 15.993 205.465 16.9606 204.924C17.7267 204.924 21.8897 203.175 22.4542 204.662C22.9582 205.969 21.1488 207.175 20.1862 207.411C18.0845 207.914 16.5322 208.964 15.6855 209.14C15.0555 209.271 14.244 209.356 13.7451 208.864C13.1403 208.276 13.1957 206.09 13.7804 205.311Z" fill="#38226D"/>
<path d="M15.6854 208.778C16.5321 208.602 18.0845 207.557 20.1861 207.049C20.9925 206.854 22.3785 205.974 22.5196 204.924C22.7061 206.13 21.0832 207.195 20.1861 207.411C18.0845 207.914 16.5321 208.964 15.6854 209.14C15.0554 209.271 14.244 209.356 13.745 208.864C13.6125 208.721 13.5172 208.549 13.4678 208.361C13.7795 208.598 14.1422 208.759 14.5272 208.831C14.9121 208.903 15.3087 208.885 15.6854 208.778Z" fill="#9C73FF"/>
<path d="M7.05708 202.291C8.12698 202.583 9.26934 202.444 10.2373 201.904C11.0034 201.929 15.1614 200.155 15.7258 201.642C16.2298 202.949 14.4205 204.155 13.4579 204.391C11.3612 204.894 9.80387 205.944 8.96219 206.12C8.33219 206.25 7.52076 206.336 7.01676 205.843C6.39684 205.255 6.44724 203.07 7.05708 202.291Z" fill="#38226D"/>
<path d="M8.94202 205.758C9.78369 205.582 11.341 204.537 13.4377 204.029C14.2441 203.833 15.6351 202.954 15.7762 201.904C15.9627 203.11 14.3398 204.175 13.4377 204.416C11.341 204.919 9.78369 205.969 8.94202 206.145C8.31202 206.276 7.50058 206.361 6.99659 205.868C6.86566 205.726 6.77216 205.553 6.72443 205.366C7.03825 205.598 7.40198 205.755 7.78686 205.823C8.17174 205.891 8.56721 205.869 8.94202 205.758Z" fill="#9C73FF"/>
<path d="M6.95622 191.024C7.13347 189.49 7.45407 187.976 7.91381 186.501C7.91381 186.501 7.62654 182.582 7.48542 178.863C7.3191 174.647 5.85246 170.938 7.01166 167.571L20.0602 170.466C20.0602 170.466 19.2739 187.275 19.0975 189.31C19.0006 190.895 18.8053 192.473 18.5129 194.034C17.9182 197.295 16.9505 205.059 16.9505 205.059C15.5695 205.858 13.7552 205.416 13.7552 205.416C13.7552 205.416 13.856 195.597 13.9467 193.245C14.0525 190.376 14.1432 190.597 14.1432 190.597L13.7098 183.421L13.4276 179.863C13.4276 179.863 13.0647 182.476 12.8328 184.808C12.6262 186.843 12.1323 188.682 11.5829 192.466C11.1092 195.753 10.333 202.351 10.333 202.351C8.95205 203.15 7.07718 202.486 7.07718 202.486C7.07718 202.486 6.58326 193.873 6.95622 191.024Z" fill="#8C50FF"/>
<path d="M8.86127 147.546C9.86927 147.596 10.595 147.852 10.716 147.546C10.8251 147.035 10.9009 146.518 10.9428 145.998C10.8319 145.712 10.7311 145.405 10.7311 145.405C9.48119 144.636 9.08807 143.294 8.92679 141.727C8.64455 139.048 10.0961 136.701 12.7824 136.425C15.3024 136.164 17.1621 137.933 17.656 140.36C17.9232 141.561 18.4524 143.827 17.7367 145.797C17.3335 146.903 16.8194 147.777 16.3003 147.948C15.7942 147.933 15.2894 147.889 14.7883 147.817C14.7883 147.817 14.6522 148.561 14.5615 149.038C14.4708 149.516 14.5061 149.767 15.4586 150.35C16.4112 150.933 14.0172 152.139 12.4346 152.023C10.8521 151.908 9.10823 150.963 8.62944 149.953C8.13048 148.837 8.17584 147.516 8.86127 147.546Z" fill="#FFCEA9"/>
<path d="M10.2978 147.692C10.0206 148.38 10.7212 149.199 12.591 149.802C14.4608 150.405 14.607 149.631 14.607 149.631C15.8496 150.187 17.061 150.809 18.2358 151.496C19.3547 152.28 19.8536 154.511 20.0048 158.35C20.1762 162.767 20.1913 169.315 20.0451 170.446C20.0451 170.446 17.9535 172.526 15.2723 172.305C12.591 172.084 8.08526 169.722 6.99158 167.898C7.02182 164.029 7.49558 163.375 6.85047 161.164C5.40903 156.064 4.65303 153.973 5.33847 150.581C5.91303 147.782 6.71943 147.435 7.82822 147.465C8.65492 147.496 9.47933 147.572 10.2978 147.692Z" fill="#F4F4F4"/>
<path d="M24.2283 162.003C22.0309 162.556 21.5168 161.169 21.2043 160.028C20.5088 157.255 20.1308 154.752 19.6066 153.179C18.9968 151.325 18.3517 151.028 17.4445 150.666C16.3861 150.244 15.4739 151.139 15.8267 153.501C16.2634 156.234 16.9379 158.924 17.8427 161.541C18.1199 162.405 18.7347 163.938 19.652 164.682C20.786 165.596 22.4946 165.556 25.0801 164.913C26.1788 164.642 27.3884 163.983 29.4749 163.013C30.0344 162.752 30.4829 162.581 31.5464 162.084C32.6245 161.599 33.57 160.863 34.3032 159.938C34.8627 159.124 34.9383 158.742 34.8072 158.556C34.6762 158.37 34.4091 158.375 34.1117 158.717C33.6754 159.294 33.1395 159.789 32.5292 160.179C32.5292 160.179 33.2196 159.461 33.5976 158.998C33.9337 158.585 34.2133 158.128 34.4292 157.641C34.6258 157.169 34.2175 156.526 33.9252 156.863C33.6329 157.199 33.4616 157.546 32.9172 158.224C32.6215 158.587 32.2831 158.912 31.9092 159.194C32.2633 158.718 32.5785 158.214 32.8517 157.687C33.0934 157.274 33.2123 156.802 33.1944 156.325C33.1944 156.079 32.8265 155.782 32.4939 156.254C32.1755 156.9 31.7795 157.504 31.3145 158.054C30.8105 158.556 30.3872 158.873 30.372 158.727C30.3569 158.581 30.6795 158.295 30.876 157.692C31.0726 157.089 30.876 156.445 30.5434 156.38C30.2108 156.315 30.2712 156.325 29.9991 156.883C29.6281 157.466 29.2915 158.07 28.9911 158.692C28.8216 159.275 28.5119 159.808 28.0889 160.245C27.5144 160.843 26.3199 161.476 24.2283 162.003Z" fill="#FFCEA9"/>
<path d="M16.633 150.289C18.0997 150.073 19.153 150.732 19.7881 152.948C20.4231 155.164 20.8868 156.968 20.8868 156.968C20.3069 157.805 19.4263 158.388 18.4273 158.596C16.6734 159.023 16.0383 158.184 16.0383 158.184C16.0383 158.184 15.5343 155.862 15.247 154.279C14.9598 152.697 14.8388 150.556 16.633 150.289Z" fill="#EDEDED"/>
<path d="M17.5705 140.018C17.5705 140.018 19.8889 136.5 14.864 135.782C11.2403 135.279 8.91179 137.591 8.63963 140.108C8.3826 142.515 9.86939 145.018 10.9429 146.008C11.4469 146.194 12.596 146.305 14.0778 145.631C14.1378 144.976 14.1613 144.319 14.1483 143.661C14.1483 143.661 12.3793 139.953 17.5705 140.018Z" fill="#3A2C6D"/>
</svg>
