<svg width="211" height="215" viewBox="0 0 211 215" fill="none" xmlns="http://www.w3.org/2000/svg">
<path opacity="0.15" d="M30.9165 156.321C47.9912 156.321 61.833 148.326 61.833 138.464C61.833 128.602 47.9912 120.607 30.9165 120.607C13.8418 120.607 0 128.602 0 138.464C0 148.326 13.8418 156.321 30.9165 156.321Z" fill="#D6D8E5"/>
<path opacity="0.5" d="M30.5598 146.513C40.0834 146.513 47.8039 142.054 47.8039 136.555C47.8039 131.055 40.0834 126.596 30.5598 126.596C21.0361 126.596 13.3156 131.055 13.3156 136.555C13.3156 142.054 21.0361 146.513 30.5598 146.513Z" fill="#EDEFF9"/>
<path d="M30.3964 135.862C33.1121 135.862 35.3135 134.59 35.3135 133.02C35.3135 131.45 33.1121 130.178 30.3964 130.178C27.6808 130.178 25.4794 131.45 25.4794 133.02C25.4794 134.59 27.6808 135.862 30.3964 135.862Z" fill="#EDEFF9"/>
<path d="M35.2877 95.3411H25.8318V132.517H35.2877V95.3411Z" fill="#EDEFF9"/>
<path d="M25.3805 94.9196C25.3805 94.9196 25.6384 102.565 31.0755 116.277C31.0755 116.277 36.1388 105.235 36.6631 94.6874C37.1875 84.14 25.3805 94.9196 25.3805 94.9196Z" fill="#FFBC00"/>
<path d="M18.7399 66.1368L6.15923 78.3827L4.66348 94.3736L19.8789 86.7415L22.6469 67.2376L18.7399 66.1368Z" fill="#8C50FF"/>
<path d="M43.4112 66.1368L55.9876 78.3827L57.4876 94.3736L42.2163 86.2126L39.5042 67.2376L43.4112 66.1368Z" fill="#8C50FF"/>
<path d="M30.9165 96.8503C34.3704 96.8503 37.1703 95.2332 37.1703 93.2384C37.1703 91.2437 34.3704 89.6266 30.9165 89.6266C27.4626 89.6266 24.6627 91.2437 24.6627 93.2384C24.6627 95.2332 27.4626 96.8503 30.9165 96.8503Z" fill="#424956"/>
<path d="M21.4348 89.6266V86.376H40.3767V89.747L21.4348 89.6266Z" fill="#494949"/>
<path d="M30.9165 95.1004C36.1531 95.1004 40.3982 92.6479 40.3982 89.6225C40.3982 86.5971 36.1531 84.1445 30.9165 84.1445C25.6799 84.1445 21.4348 86.5971 21.4348 89.6225C21.4348 92.6479 25.6799 95.1004 30.9165 95.1004Z" fill="#2B303F"/>
<path d="M30.8864 91.3723C37.2767 91.3723 42.457 88.3807 42.457 84.6904C42.457 81.0001 37.2767 78.0085 30.8864 78.0085C24.4962 78.0085 19.3158 81.0001 19.3158 84.6904C19.3158 88.3807 24.4962 91.3723 30.8864 91.3723Z" fill="#EDEFF9"/>
<path d="M43.3811 72.7887C43.3811 73.3262 43.3811 73.8551 43.3811 74.3667C43.3811 74.7967 43.3811 75.2267 43.3811 75.6567C43.3811 76.2371 43.351 76.7918 43.3295 77.3336C43.3295 78.0087 43.2823 78.6493 43.2479 79.2642C43.2135 79.8791 43.1834 80.481 43.1404 81.0357C42.9642 83.4651 42.9685 85.2538 42.6676 85.9547C41.03 89.7858 35.4897 87.6746 32.7561 86.2987C31.7461 85.7913 31.0798 85.3742 31.0798 85.3742H30.8306C30.8306 85.3742 30.0397 85.8042 28.8706 86.2686C26.0037 87.4295 20.8933 89.4891 19.4749 85.9418C19.2213 85.3054 18.9677 83.2028 18.813 81.0013C18.7743 80.451 18.7399 79.8619 18.7055 79.2341C18.6711 78.6063 18.6539 77.9829 18.6281 77.3078C18.6281 76.7703 18.598 76.2157 18.5852 75.6395C18.5852 75.2095 18.5852 74.7795 18.5852 74.3495V72.7715C18.5078 57.7695 20.0981 33.7809 25.3504 23.5431C26.8677 20.5806 28.6901 18.7703 30.8692 18.6628H31.1185C33.2676 18.7746 35.1115 20.5763 36.633 23.5259C41.8123 33.725 43.4757 57.619 43.3811 72.7887Z" fill="#EDEFF9"/>
<path d="M30.9466 58.6422C33.3607 58.6422 35.3178 56.6843 35.3178 54.2693C35.3178 51.8542 33.3607 49.8964 30.9466 49.8964C28.5324 49.8964 26.5754 51.8542 26.5754 54.2693C26.5754 56.6843 28.5324 58.6422 30.9466 58.6422Z" fill="#2B303F"/>
<path d="M30.9466 59.2829C29.9554 59.2829 28.9864 58.9888 28.1623 58.4379C27.3381 57.887 26.6958 57.104 26.3165 56.1879C25.9371 55.2718 25.8379 54.2637 26.0313 53.2912C26.2246 52.3187 26.702 51.4253 27.4028 50.7242C28.1037 50.023 28.9967 49.5455 29.9689 49.3521C30.941 49.1586 31.9487 49.2579 32.8645 49.6374C33.7802 50.0168 34.5629 50.6594 35.1136 51.4839C35.6643 52.3084 35.9582 53.2777 35.9582 54.2693C35.9571 55.5986 35.4287 56.8732 34.4891 57.8132C33.5495 58.7532 32.2754 59.2817 30.9466 59.2829ZM30.9466 50.5371C30.2085 50.5362 29.4868 50.7544 28.8727 51.164C28.2586 51.5736 27.7798 52.1562 27.4967 52.8381C27.2137 53.52 27.1392 54.2705 27.2827 54.9948C27.4261 55.7191 27.7811 56.3845 28.3027 56.9069C28.8243 57.4293 29.4891 57.7851 30.2129 57.9295C30.9367 58.0739 31.6871 58.0002 32.369 57.7178C33.051 57.4355 33.6339 56.9571 34.044 56.3433C34.4542 55.7294 34.6731 55.0077 34.6731 54.2693C34.6719 53.2806 34.2791 52.3326 33.5806 51.633C32.8821 50.9334 31.935 50.5394 30.9466 50.5371Z" fill="#424956"/>
<path d="M30.9466 45.7858C33.3607 45.7858 35.3178 43.828 35.3178 41.4129C35.3178 38.9979 33.3607 37.04 30.9466 37.04C28.5324 37.04 26.5754 38.9979 26.5754 41.4129C26.5754 43.828 28.5324 45.7858 30.9466 45.7858Z" fill="#2B303F"/>
<path d="M30.9466 46.4395C29.9547 46.4404 28.9849 46.147 28.1596 45.5966C27.3344 45.0461 26.6908 44.2632 26.3103 43.3469C25.9297 42.4306 25.8293 41.422 26.0216 40.4485C26.214 39.4751 26.6905 38.5806 27.391 37.8781C28.0914 37.1755 28.9844 36.6965 29.9569 36.5016C30.9294 36.3067 31.9379 36.4046 32.8549 36.7829C33.7718 37.1612 34.556 37.8031 35.1084 38.6272C35.6608 39.4513 35.9565 40.4208 35.9582 41.4131C35.9594 42.7443 35.4321 44.0215 34.4924 44.964C33.5527 45.9065 32.2773 46.4373 30.9466 46.4395ZM30.9466 37.6937C30.2084 37.6929 29.4865 37.9112 28.8723 38.3209C28.2581 38.7307 27.7792 39.3136 27.4963 39.9957C27.2134 40.6779 27.1392 41.4287 27.283 42.153C27.4268 42.8774 27.7822 43.5428 28.3042 44.0651C28.8263 44.5873 29.4914 44.9428 30.2155 45.0867C30.9396 45.2306 31.6901 45.1563 32.372 44.8733C33.0539 44.5903 33.6365 44.1112 34.0461 43.4968C34.4557 42.8824 34.6739 42.1602 34.6731 41.4217C34.6736 40.9316 34.5777 40.4461 34.3907 39.9931C34.2038 39.5401 33.9294 39.1283 33.5834 38.7813C33.2374 38.4344 32.8264 38.159 32.374 37.9709C31.9216 37.7828 31.4365 37.6857 30.9466 37.6851V37.6937Z" fill="#424956"/>
<path d="M43.3811 81.4355C43.3811 81.973 43.3811 82.5019 43.3811 83.0179C42.9513 84.4368 41.7822 85.7955 39.8824 86.8877C34.9568 89.7299 26.988 89.7299 22.0409 86.8877C20.1411 85.7869 18.9763 84.4239 18.5422 83.0179V81.4398C18.972 82.8846 20.1325 84.2605 22.058 85.3742C26.988 88.2163 34.974 88.2163 39.8996 85.3742C41.7865 84.2476 42.9814 82.876 43.3811 81.4355Z" fill="#8C50FF"/>
<path d="M43.3424 83.938C43.3424 84.5142 43.3123 85.0731 43.2909 85.6106C42.8095 86.9521 41.6662 88.2292 39.8523 89.2697C34.9267 92.1162 26.9579 92.1162 22.0108 89.2697C20.2013 88.2206 19.0579 86.9349 18.5723 85.5848C18.5723 85.0473 18.5422 84.4926 18.5293 83.9208C18.9591 85.3225 20.1325 86.6555 22.0065 87.739C26.9364 90.5855 34.9224 90.5855 39.848 87.739C41.7306 86.6598 42.8911 85.3311 43.3424 83.938Z" fill="#8C50FF"/>
<path d="M43.2092 79.4963C42.6891 80.7562 41.5716 81.9558 39.8652 82.9362C34.9396 85.7783 26.9708 85.7783 22.0237 82.9362C20.3044 81.9386 19.1869 80.7347 18.6668 79.4619C18.7012 80.0897 18.7356 80.6788 18.7743 81.2291C19.3287 82.4159 20.4119 83.5338 22.0237 84.4669C24.126 85.6129 26.4455 86.3043 28.8319 86.4964C30.1179 86.6215 31.4125 86.6316 32.7002 86.5265C35.2042 86.368 37.6435 85.6652 39.848 84.4669C41.447 83.5424 42.5258 82.4374 43.0845 81.2635L43.2092 79.4963Z" fill="#8C50FF"/>
<path d="M36.5557 23.5344C32.8794 24.6633 28.9493 24.6633 25.2731 23.5344C26.7903 20.5719 28.6127 18.7617 30.7919 18.6542H31.0412C33.2117 18.7832 35.0341 20.5848 36.5557 23.5344Z" fill="#8C50FF"/>
<path d="M32.1458 66.1711H30.001V94.3391H32.1458V66.1711Z" fill="#8C50FF"/>
<path opacity="0.4" d="M133.844 164.331L108.915 149.931C107.114 148.891 107.342 147.076 109.418 145.877L125.57 136.55L157.011 154.708L140.859 164.039C138.778 165.239 135.641 165.368 133.844 164.331Z" fill="#D6D8E5"/>
<path d="M135.662 163.261L110.733 148.856C108.936 147.82 109.16 146.006 111.236 144.806L127.393 135.48L158.833 153.638L142.698 162.964C140.601 164.168 137.459 164.297 135.662 163.261Z" fill="#B1B4C4"/>
<path d="M158.829 153.638V152.687L157.376 153.526L158.829 153.638Z" fill="#B1B4C4"/>
<path d="M109.517 147.141V146.173L111.008 146.793L109.517 147.141Z" fill="#B1B4C4"/>
<path d="M135.662 162.306L110.733 147.906C108.936 146.866 109.16 145.055 111.236 143.856L127.393 134.525L158.833 152.688L142.698 162.014C140.601 163.213 137.459 163.347 135.662 162.306Z" fill="#D6D8E5"/>
<path d="M127.47 134.568L123.58 121.652L155.365 139.891L158.829 152.688L127.47 134.568Z" fill="#9EA1AF"/>
<path d="M157.909 153.216L158.829 152.688L157.458 151.591L157.909 153.216Z" fill="#9EA1AF"/>
<path d="M126.468 135.054L122.579 122.137L154.363 140.377L157.905 153.216L126.468 135.054Z" fill="#B1B4C4"/>
<path d="M207.17 175.003L84.1189 103.923C82.3996 102.926 80.9941 100.251 80.9941 97.9511V2.74061C80.9941 0.435914 82.3953 -0.621836 84.1189 0.375717L207.17 71.4385C208.89 72.4361 210.295 75.1105 210.295 77.4109V172.621C210.282 174.922 208.89 175.98 207.17 175.003Z" fill="#C4C7D6"/>
<path d="M207.789 175.967L209.152 175.18L208.563 171.138L207.789 175.967Z" fill="#C4C7D6"/>
<path d="M80.7749 0.964787L82.1159 0.186523L84.0458 1.29157C84.0458 1.29157 81.9913 1.60546 81.9397 1.59256C81.8881 1.57966 80.7749 0.964787 80.7749 0.964787Z" fill="#B1B4C4"/>
<path d="M206.027 175.635L82.9928 104.573C81.2735 103.575 79.868 100.905 79.868 98.6003V3.38982C79.868 1.08943 81.2649 0.031678 82.9928 1.02923L206.027 72.092C207.746 73.0896 209.152 75.764 209.152 78.0644V173.283C209.152 175.575 207.755 176.633 206.027 175.635Z" fill="#E4E7F2"/>
<path d="M205.812 175.76L82.7736 104.697C81.0543 103.7 79.6488 101.025 79.6488 98.7249V3.51445C79.6488 1.21406 81.05 0.156312 82.7736 1.15387L205.812 72.2381C207.531 73.2314 208.937 75.9059 208.937 78.2106V173.395C208.937 175.7 207.536 176.758 205.812 175.76Z" fill="#D6D8E5"/>
<path d="M207.243 169.968L81.2348 97.1771L81.2778 3.89722C81.2778 2.94267 81.9483 2.55569 82.7736 3.03726L205.812 74.0957C206.246 74.3787 206.607 74.7596 206.867 75.2076C207.127 75.6557 207.278 76.1585 207.308 76.6756L207.243 169.968Z" fill="white"/>
<path d="M130.973 43.8941L90.6048 20.5805C90.4184 20.4462 90.2662 20.27 90.1602 20.0662C90.0542 19.8623 89.9974 19.6365 89.9944 19.4067V16.5903C89.9944 16.1604 90.2652 15.9325 90.6048 16.126L130.973 39.4395C131.158 39.5745 131.31 39.7509 131.416 39.9545C131.522 40.1582 131.579 40.3837 131.583 40.6133V43.4297C131.583 43.8812 131.308 44.0919 130.973 43.8941Z" fill="#E9EAF2"/>
<path d="M120.606 44.5689L90.7896 27.3482C90.6025 27.2153 90.4494 27.0401 90.3427 26.8369C90.2359 26.6337 90.1784 26.4082 90.175 26.1787V24.777C90.175 24.347 90.45 24.1148 90.7896 24.3126L120.606 41.5333C120.79 41.6679 120.941 41.8437 121.045 42.0467C121.15 42.2498 121.205 42.4745 121.208 42.7028V44.1045C121.208 44.556 120.941 44.7667 120.606 44.5689Z" fill="#E9EAF2"/>
<path d="M120.606 49.8791L90.7896 32.68C90.6025 32.547 90.4494 32.3718 90.3427 32.1686C90.2359 31.9654 90.1784 31.7399 90.175 31.5104V30.1001C90.175 29.6701 90.45 29.4379 90.7896 29.6357L120.606 46.8693C120.792 47.003 120.944 47.1784 121.05 47.3815C121.156 47.5846 121.213 47.8097 121.216 48.0388V49.4406C121.208 49.8792 120.941 50.0812 120.606 49.8791Z" fill="#E9EAF2"/>
<path d="M114.98 51.9517L90.7896 37.9774C90.6025 37.8444 90.4494 37.6692 90.3427 37.466C90.2359 37.2629 90.1784 37.0374 90.175 36.8078V35.4061C90.175 34.9761 90.45 34.7439 90.7896 34.9417L114.98 48.9118C115.166 49.0459 115.319 49.2219 115.426 49.4257C115.533 49.6296 115.59 49.8556 115.594 50.0856V51.4874C115.594 51.9388 115.319 52.1452 114.98 51.9517Z" fill="#8C50FF"/>
<path d="M130.973 99.6881L90.6048 76.3746C90.4184 76.2402 90.2662 76.0641 90.1602 75.8602C90.0542 75.6564 89.9974 75.4305 89.9944 75.2007V72.3844C89.9944 71.9329 90.2652 71.7265 90.6048 71.92L130.973 95.2335C131.158 95.3686 131.31 95.5449 131.416 95.7486C131.522 95.9523 131.579 96.1778 131.583 96.4074V99.2237C131.583 99.6752 131.308 99.8816 130.973 99.6881Z" fill="#E9EAF2"/>
<path d="M120.606 100.363L90.7896 83.164C90.6027 83.0299 90.4498 82.8538 90.3431 82.65C90.2363 82.4462 90.1788 82.2202 90.175 81.9901V80.5884C90.175 80.1369 90.45 79.9305 90.7896 80.1283L120.606 97.3275C120.791 97.4626 120.943 97.6389 121.049 97.8426C121.155 98.0463 121.212 98.2718 121.216 98.5014V99.9031C121.208 100.35 120.941 100.557 120.606 100.363Z" fill="#E9EAF2"/>
<path d="M120.606 105.678L90.7896 88.4569C90.603 88.3234 90.4503 88.1482 90.3436 87.9451C90.2368 87.742 90.1791 87.5168 90.175 87.2874V85.8856C90.175 85.4556 90.45 85.2277 90.7896 85.4255L120.606 102.625C120.791 102.76 120.943 102.936 121.049 103.14C121.155 103.344 121.212 103.569 121.216 103.799V105.2C121.208 105.665 120.941 105.871 120.606 105.678Z" fill="#E9EAF2"/>
<path d="M114.98 107.742L90.7896 93.7717C90.6025 93.6378 90.4494 93.4618 90.3426 93.2579C90.2359 93.054 90.1784 92.8279 90.175 92.5978V91.1961C90.175 90.7446 90.45 90.5382 90.7896 90.736L114.98 104.706C115.166 104.84 115.319 105.016 115.426 105.22C115.533 105.424 115.59 105.65 115.594 105.88V107.282C115.594 107.733 115.319 107.927 114.98 107.742Z" fill="#8C50FF"/>
<path d="M141.774 106.611C141.774 106.611 146.227 110.352 152.657 105.243C157.247 101.477 161.352 103.627 163.639 104.917C165.925 106.207 169.226 106.998 175.514 118.358C175.514 118.358 177.56 121.918 180.939 123.87C184.317 125.822 185.942 124.868 188.598 120.86C191.254 116.853 192.995 112.416 197.878 115.314V155.598L141.336 122.976V106.349L141.774 106.611Z" fill="#F5F6FF"/>
<path d="M129.486 89.5321L90.8025 67.1731C90.6156 67.039 90.4627 66.863 90.356 66.6591C90.2492 66.4553 90.1917 66.2293 90.1878 65.9993V43.6704C90.1878 43.2404 90.4629 43.0125 90.8025 43.206L129.486 65.565C129.673 65.6991 129.826 65.8751 129.932 66.079C130.039 66.2828 130.097 66.5088 130.1 66.7388V89.0763C130.1 89.5192 129.825 89.7256 129.486 89.5321Z" fill="#E9EAF2"/>
<path d="M141.336 105.673V122.967L197.878 155.62V115.335" stroke="#E9EAF2" stroke-width="0.31" stroke-miterlimit="10"/>
<path d="M163.557 105.119V135.759" stroke="#E9EAF2" stroke-width="0.31" stroke-miterlimit="10"/>
<path d="M180.857 124.498V145.748" stroke="#E9EAF2" stroke-width="0.31" stroke-miterlimit="10"/>
<path d="M141.336 106.349C151.368 112.57 152.786 98.5057 163.716 104.818C174.646 111.13 173.138 119.355 181.205 124.016C189.273 128.677 189.462 110.472 197.878 115.335" stroke="#E9EAF2" stroke-width="1.53" stroke-miterlimit="10"/>
<path d="M164.498 106.759C165.018 106.458 165.017 105.483 164.496 104.58C163.975 103.677 163.131 103.189 162.611 103.489C162.091 103.79 162.092 104.765 162.613 105.668C163.134 106.571 163.978 107.059 164.498 106.759Z" fill="#8C50FF"/>
<path d="M199.61 117.442C200.133 117.141 200.134 116.163 199.613 115.256C199.092 114.349 198.246 113.857 197.723 114.157C197.201 114.458 197.2 115.437 197.721 116.344C198.242 117.25 199.088 117.742 199.61 117.442Z" fill="#8C50FF"/>
<path d="M182.518 126.262C183.04 125.962 183.041 124.983 182.52 124.076C181.999 123.169 181.153 122.678 180.631 122.978C180.108 123.278 180.107 124.257 180.628 125.164C181.149 126.071 181.995 126.563 182.518 126.262Z" fill="#8C50FF"/>
<path d="M142.279 107.987C142.799 107.687 142.799 106.711 142.277 105.808C141.756 104.906 140.912 104.417 140.392 104.718C139.872 105.018 139.873 105.993 140.394 106.896C140.915 107.799 141.759 108.288 142.279 107.987Z" fill="#8C50FF"/>
<path d="M142.93 76.6368L140.614 75.2996C140.427 75.1654 140.274 74.9894 140.167 74.7856C140.06 74.5818 140.003 74.3558 139.999 74.1257V62.9463C139.999 62.4948 140.274 62.2884 140.614 62.4819L142.93 63.8234C143.117 63.9529 143.271 64.124 143.38 64.3233C143.489 64.5226 143.55 64.7445 143.558 64.9715V76.1724C143.558 76.6239 143.27 76.8303 142.93 76.6368Z" fill="#E9EAF2"/>
<path d="M148.286 79.72L145.969 78.3785C145.782 78.2455 145.629 78.0703 145.522 77.8672C145.415 77.664 145.358 77.4385 145.354 77.209V54.42C145.354 53.99 145.63 53.7579 145.969 53.9556L148.286 55.2972C148.473 55.4313 148.626 55.6073 148.732 55.8112C148.839 56.015 148.897 56.241 148.9 56.471V79.26C148.883 79.7071 148.608 79.9135 148.286 79.72Z" fill="#8C50FF"/>
<path d="M158.941 85.8816L156.624 84.5443C156.437 84.4109 156.283 84.2351 156.176 84.0311C156.069 83.8271 156.012 83.6008 156.01 83.3705V62.8003C156.01 62.3488 156.285 62.1424 156.624 62.3359L158.941 63.6731C159.128 63.8073 159.281 63.9833 159.387 64.1871C159.494 64.3909 159.552 64.6169 159.556 64.847V85.4215C159.556 85.873 159.28 86.0794 158.941 85.8816Z" fill="#E9EAF2"/>
<path d="M164.279 88.9644L161.962 87.6272C161.776 87.4931 161.623 87.317 161.516 87.1132C161.409 86.9094 161.352 86.6834 161.348 86.4533V69.4089C161.348 68.979 161.623 68.7511 161.962 68.9446L164.279 70.2861C164.466 70.4191 164.619 70.5943 164.726 70.7974C164.833 71.0006 164.89 71.2261 164.894 71.4556V88.5001C164.894 88.9558 164.619 89.1622 164.279 88.9644Z" fill="#8C50FF"/>
<path d="M174.908 95.1045L172.587 93.7673C172.401 93.633 172.249 93.4568 172.143 93.2529C172.037 93.0491 171.98 92.8232 171.977 92.5935V84.1702C171.977 83.7144 172.248 83.508 172.587 83.7058L174.908 85.043C175.094 85.1781 175.246 85.3544 175.352 85.5581C175.458 85.7618 175.515 85.9873 175.519 86.2169V94.6402C175.519 95.0916 175.244 95.298 174.908 95.1045Z" fill="#E9EAF2"/>
<path d="M180.242 98.1875L177.943 96.8459C177.756 96.713 177.603 96.5378 177.496 96.3346C177.389 96.1314 177.332 95.9059 177.328 95.6764V67.0268C177.328 66.5711 177.603 66.3647 177.943 66.5625L180.26 67.8997C180.447 68.0336 180.6 68.2096 180.707 68.4134C180.813 68.6173 180.871 68.8434 180.874 69.0735V97.7231C180.857 98.1746 180.582 98.381 180.242 98.1875Z" fill="#8C50FF"/>
<path d="M193.262 105.708L190.945 104.366C190.758 104.233 190.605 104.058 190.498 103.855C190.391 103.652 190.334 103.426 190.33 103.197V94.7691C190.33 94.3177 190.605 94.1113 190.945 94.3048L193.262 95.6463C193.449 95.7797 193.603 95.9556 193.709 96.1595C193.816 96.3635 193.873 96.5899 193.876 96.8201V105.243C193.876 105.695 193.601 105.901 193.262 105.708Z" fill="#E9EAF2"/>
<path d="M198.6 108.787L196.283 107.445C196.095 107.312 195.942 107.136 195.835 106.932C195.728 106.728 195.671 106.501 195.668 106.271V95.0916C195.668 94.6402 195.944 94.4338 196.283 94.6273L198.6 95.9645C198.787 96.0986 198.94 96.2747 199.046 96.4785C199.153 96.6823 199.211 96.9083 199.214 97.1384V108.339C199.214 108.787 198.939 108.984 198.6 108.787Z" fill="#8C50FF"/>
<path opacity="0.4" d="M45.0918 214.132L25.9049 203.064C23.73 201.804 24.0008 199.624 26.5152 198.162L36.2548 192.534C38.7649 191.085 42.5516 190.913 44.7393 192.203L63.9262 203.288C66.1011 204.543 65.8303 206.727 63.3159 208.185L53.5763 213.814C51.0662 215.241 47.2795 215.422 45.0918 214.132Z" fill="#D6D8E5"/>
<path d="M73.928 200.316V173.524L32.9581 168.911V195.87C32.9323 196.696 33.3879 197.483 34.4195 198.068L53.6064 209.152C55.7812 210.408 59.5808 210.249 62.0909 208.8L71.8305 203.171C73.2446 202.354 73.9495 201.301 73.9065 200.316H73.928Z" fill="#D6D8E5"/>
<path d="M73.9022 176.448V173.524H70.7517L53.2539 163.416C51.0791 162.156 47.2795 162.315 44.7694 163.764L35.0298 169.414C34.8566 169.512 34.6888 169.62 34.527 169.736L32.9581 168.932C32.9581 168.932 32.9581 172.024 32.9581 172.127C32.9323 172.944 33.3879 173.731 34.4195 174.316L53.6064 185.396C55.7812 186.652 59.5808 186.493 62.0909 185.044L71.8305 179.419C73.2876 178.559 73.9796 177.484 73.8979 176.47L73.9022 176.448Z" fill="#EDF0F9"/>
<path d="M53.6064 182.188L34.4195 171.108C32.2446 169.852 32.5154 167.668 35.0298 166.206L44.7694 160.582C47.2795 159.128 51.0791 158.974 53.2539 160.229L72.4408 171.31C74.6157 172.565 74.3449 174.75 71.8305 176.212L62.0909 181.836C59.5808 183.289 55.7812 183.444 53.6064 182.188Z" fill="#E2E5F2"/>
<path d="M49.2825 167.062V165.995H48.6291L48.4271 165.866C47.7845 165.54 47.074 165.37 46.3533 165.37C45.6326 165.37 44.9221 165.54 44.2794 165.866C44.1566 165.938 44.0401 166.02 43.9313 166.111L43.4198 165.995V167.062C43.4438 167.32 43.5361 167.567 43.6872 167.778C43.8382 167.989 44.0426 168.156 44.2794 168.261C44.9221 168.588 45.6326 168.758 46.3533 168.758C47.074 168.758 47.7845 168.588 48.4271 168.261C48.6639 168.156 48.8682 167.989 49.0186 167.778C49.169 167.567 49.2602 167.32 49.2825 167.062Z" fill="#6E48E5"/>
<path d="M46.3511 167.689C47.9701 167.689 49.2825 166.931 49.2825 165.995C49.2825 165.06 47.9701 164.301 46.3511 164.301C44.7322 164.301 43.4198 165.06 43.4198 165.995C43.4198 166.931 44.7322 167.689 46.3511 167.689Z" fill="#8C50FF"/>
<path d="M56.5549 171.564C56.395 171.922 56.1175 172.215 55.7684 172.393C55.1259 172.718 54.4163 172.887 53.6967 172.887C52.977 172.887 52.2674 172.718 51.6249 172.393C51.2758 172.215 50.9983 171.922 50.8384 171.564C50.6235 171.013 50.89 170.424 51.6249 169.994C52.2674 169.67 52.977 169.501 53.6967 169.501C54.4163 169.501 55.1259 169.67 55.7684 169.994C56.5076 170.403 56.7698 170.992 56.5549 171.564Z" fill="#5E42D3"/>
<path d="M56.5549 171.564C56.395 171.922 56.1175 172.215 55.7684 172.393C55.1259 172.718 54.4163 172.887 53.6967 172.887C52.977 172.887 52.2674 172.718 51.6249 172.393C51.4147 172.378 51.218 172.284 51.0744 172.13C50.9308 171.975 50.8509 171.772 50.8509 171.561C50.8509 171.351 50.9308 171.148 51.0744 170.993C51.218 170.839 51.4147 170.745 51.6249 170.729C52.2674 170.405 52.977 170.236 53.6967 170.236C54.4163 170.236 55.1259 170.405 55.7684 170.729C56.1182 170.909 56.3958 171.204 56.5549 171.564Z" fill="#8C50FF"/>
<path d="M63.4448 175.378V174.311H62.7915L62.5895 174.182C61.9469 173.856 61.2363 173.686 60.5156 173.686C59.795 173.686 59.0844 173.856 58.4418 174.182C58.32 174.254 58.2037 174.334 58.0936 174.423L57.5822 174.311V175.378C57.6062 175.636 57.6985 175.883 57.8495 176.094C58.0006 176.305 58.205 176.471 58.4418 176.577C59.0844 176.904 59.795 177.074 60.5156 177.074C61.2363 177.074 61.9469 176.904 62.5895 176.577C62.8263 176.472 63.0305 176.305 63.181 176.094C63.3314 175.883 63.4225 175.636 63.4448 175.378Z" fill="#6E48E5"/>
<path d="M60.5135 176.005C62.1324 176.005 63.4448 175.247 63.4448 174.311C63.4448 173.376 62.1324 172.617 60.5135 172.617C58.8946 172.617 57.5822 173.376 57.5822 174.311C57.5822 175.247 58.8946 176.005 60.5135 176.005Z" fill="#8C50FF"/>
<path d="M28.0668 162.753C27.9508 163.755 26.7774 168.081 27.0095 169.564C27.2416 171.048 31.3506 173.524 31.3506 173.524L31.918 170.987L29.6572 168.769L30.2675 164.568L28.0668 162.753Z" fill="#FFCEA9"/>
<path d="M31.226 158.492C30.8292 158.307 30.3782 158.275 29.9589 158.401C29.5396 158.527 29.1813 158.803 28.9523 159.176C28.3505 160.173 27.7273 163.587 27.6628 164.172C27.6628 164.172 28.5224 165.337 29.7732 165.144L31.226 158.492Z" fill="#EDEDED"/>
<path d="M35.8895 206.719C36.7787 206.964 37.7285 206.848 38.5328 206.396C39.1689 206.418 42.6289 204.934 43.0974 206.177C43.5273 207.269 42.01 208.275 41.2106 208.469C39.4655 208.899 38.1761 209.759 37.4712 209.914C36.9511 210.021 36.272 210.094 35.8594 209.681C35.3565 209.191 35.3995 207.368 35.8895 206.719Z" fill="#38226D"/>
<path d="M37.4712 209.608C38.1761 209.462 39.4655 208.589 41.2106 208.168C41.8811 208.004 43.0373 207.274 43.1533 206.396C43.308 207.398 41.9584 208.288 41.2106 208.469C39.4655 208.899 38.1761 209.759 37.4712 209.914C36.9511 210.021 36.272 210.094 35.8594 209.681C35.7463 209.56 35.6664 209.412 35.6273 209.251C35.8851 209.451 36.1864 209.588 36.5067 209.65C36.827 209.712 37.1574 209.698 37.4712 209.608Z" fill="#9C73FF"/>
<path d="M30.2847 204.199C31.1733 204.445 32.1231 204.331 32.928 203.881C33.5642 203.881 37.0199 202.419 37.4927 203.662C37.9225 204.75 36.4052 205.756 35.6058 205.953C33.8607 206.383 32.567 207.243 31.8664 207.394C31.342 207.501 30.6672 207.574 30.2503 207.166C29.7517 206.672 29.7947 204.848 30.2847 204.199Z" fill="#38226D"/>
<path d="M31.8664 207.093C32.567 206.942 33.8607 206.074 35.6058 205.648C36.2763 205.489 37.4325 204.754 37.5485 203.881C37.7033 204.883 36.3537 205.769 35.6058 205.953C33.8607 206.383 32.567 207.243 31.8664 207.394C31.342 207.501 30.6672 207.575 30.2503 207.166C30.1413 207.043 30.0632 206.895 30.0225 206.736C30.2811 206.934 30.5824 207.07 30.9024 207.132C31.2224 207.194 31.5524 207.181 31.8664 207.093Z" fill="#9C73FF"/>
<path d="M30.2159 194.804C30.3648 193.52 30.631 192.252 31.0111 191.016C31.0111 191.016 30.7747 187.748 30.6543 184.648C30.5211 181.131 29.3004 178.035 30.2632 175.231L41.1074 177.644C41.1074 177.644 40.4541 191.665 40.3079 193.359C40.2293 194.681 40.067 195.997 39.8223 197.298C39.328 200.02 38.5328 206.495 38.5328 206.495C37.3895 207.162 35.8809 206.792 35.8809 206.792C35.8809 206.792 35.9668 198.622 36.0399 196.644C36.1302 194.249 36.2032 194.43 36.2032 194.43L35.8422 188.466L35.6101 185.499C35.6101 185.499 35.3092 187.675 35.1115 189.623C34.9439 191.317 34.5355 192.852 34.0756 196.008C33.6802 198.747 33.0355 204.251 33.0355 204.251C31.8879 204.917 30.332 204.362 30.332 204.362C30.332 204.362 29.9064 197.177 30.2159 194.804Z" fill="#8C50FF"/>
<path d="M31.8062 158.548C32.6358 158.591 33.2504 158.802 33.3536 158.548C33.4397 158.122 33.5014 157.691 33.5384 157.258C33.4438 157.017 33.3622 156.759 33.3622 156.759C32.3263 156.123 31.9996 155.001 31.8621 153.694C31.63 151.462 32.8335 149.51 35.0642 149.278C37.1617 149.058 38.709 150.533 39.1174 152.558C39.3409 153.556 39.7836 155.448 39.1861 157.09C38.8509 158.011 38.4211 158.742 37.9913 158.883C37.5754 158.87 37.1607 158.833 36.7491 158.772C36.7491 158.772 36.6373 159.391 36.56 159.786C36.4826 160.182 36.5127 160.397 37.3035 160.883C38.0944 161.369 36.1044 162.388 34.8149 162.289C33.5255 162.19 32.0555 161.407 31.6515 160.569C31.1916 159.627 31.2303 158.522 31.8062 158.548Z" fill="#FFCEA9"/>
<path d="M32.9925 158.664C32.7647 159.236 33.345 159.954 34.8966 160.418C36.4482 160.883 36.5901 160.281 36.5901 160.281C37.6208 160.742 38.6252 161.261 39.5988 161.833C40.5314 162.487 40.9441 164.37 41.0687 167.552C41.2149 171.232 41.2277 176.693 41.1031 177.635C41.1031 177.635 39.3838 179.355 37.1359 179.187C34.888 179.019 31.1658 177.037 30.2589 175.511C30.2847 172.282 30.6629 171.757 30.1385 169.9C28.9437 165.643 28.3161 163.88 28.8964 161.072C29.3735 158.737 30.044 158.449 30.9681 158.471C31.6459 158.498 32.3218 158.563 32.9925 158.664Z" fill="#F4F4F4"/>
<path d="M44.576 170.605C42.745 171.065 42.3195 169.913 42.0788 168.958C41.4942 166.645 41.1848 164.559 40.7507 163.248C40.2392 161.7 39.7019 161.455 38.954 161.154C38.0944 160.797 37.3121 161.545 37.6044 163.514C37.9651 165.799 38.526 168.048 39.2807 170.235C39.5085 170.953 40.0157 172.23 40.7807 172.849C41.722 173.61 43.1447 173.58 45.2938 173.047C46.2093 172.815 47.2151 172.269 48.9472 171.46C49.4114 171.245 49.7724 171.099 50.6665 170.682C51.5642 170.281 52.3505 169.667 52.9574 168.893C53.4259 168.214 53.486 167.896 53.3872 167.741C53.2883 167.586 53.0562 167.591 52.8069 167.879C52.4451 168.36 51.9996 168.772 51.4917 169.096C51.4917 169.096 52.0677 168.498 52.3814 168.111C52.6617 167.767 52.8945 167.386 53.0734 166.98C53.2367 166.584 52.8972 166.047 52.6436 166.331C52.39 166.615 52.2611 166.898 51.784 167.466C51.531 167.769 51.2424 168.04 50.9244 168.274C51.2178 167.878 51.478 167.458 51.7023 167.019C51.9047 166.676 52.0047 166.282 51.9903 165.884C51.9903 165.677 51.6851 165.432 51.41 165.823C51.1445 166.361 50.8155 166.865 50.4301 167.324C50.0003 167.754 49.6564 168.003 49.6478 167.883C49.6392 167.763 49.8971 167.526 50.0475 167.023C50.198 166.52 50.0475 165.983 49.7682 165.927C49.4888 165.871 49.5446 165.884 49.3383 166.357C49.0304 166.842 48.7533 167.346 48.5088 167.866C48.365 168.35 48.107 168.792 47.7566 169.156C47.3053 169.637 46.3124 170.166 44.576 170.605Z" fill="#FFCEA9"/>
<path d="M38.2749 160.836C39.4956 160.655 40.3595 161.205 40.8968 163.054C41.4341 164.903 41.8123 166.404 41.8123 166.404C41.3301 167.101 40.5997 167.587 39.7707 167.763C38.3093 168.119 37.7849 167.419 37.7849 167.419C37.7849 167.419 37.3809 165.484 37.1273 164.164C36.8737 162.844 36.7663 161.059 38.2749 160.836Z" fill="#EDEDED"/>
<path d="M39.04 152.27C39.04 152.27 40.9656 149.338 36.7878 148.74C33.7791 148.31 31.8406 150.245 31.63 152.348C31.4151 154.356 32.653 156.441 33.5427 157.267C34.4197 157.49 35.3484 157.378 36.1473 156.953C36.1985 156.407 36.2186 155.859 36.2075 155.31C36.2075 155.31 34.7247 152.215 39.04 152.27Z" fill="#3A2C6D"/>
<path opacity="0.4" d="M164.438 208.456C170.285 208.456 175.025 205.718 175.025 202.342C175.025 198.965 170.285 196.227 164.438 196.227C158.592 196.227 153.852 198.965 153.852 202.342C153.852 205.718 158.592 208.456 164.438 208.456Z" fill="#D6D8E5"/>
<path d="M164.348 143.344C164.778 142.643 168.13 142.179 169.231 145.012C169.66 146.087 169.583 148.835 169.931 150.559C170.279 152.283 171.1 153.264 171.397 154.661C171.693 156.058 171.212 158.406 167.838 158.823C164.464 159.24 161.872 158.054 161.077 156.979C160.282 155.904 160.265 153.616 161.077 152.386C161.889 151.157 162.534 150.163 162.513 148.564L164.348 143.344Z" fill="#3A2C6D"/>
<path d="M166.557 142.858C166.557 142.858 164.038 142.131 162.513 143.49C162.01 143.955 161.644 144.548 161.455 145.206C161.265 145.864 161.259 146.562 161.438 147.222C161.64 148.018 162.048 149.101 162.68 149.162C163.312 149.222 166.557 142.858 166.557 142.858Z" fill="#3A2C6D"/>
<path d="M167.52 149.725C167.52 149.725 167.352 152.528 167.404 152.735C167.455 152.941 168.504 153.165 168.801 153.388C169.097 153.612 167.275 156.48 166.351 156.901C165.427 157.323 162.56 156.243 162.358 154.82C162.177 153.504 163.179 152.485 163.566 152.128C163.829 152.104 164.093 152.096 164.357 152.107L164.442 150.748C165.698 150.348 167.52 149.725 167.52 149.725Z" fill="#FFCEA9"/>
<path d="M160.75 155.026C160.75 154.945 160.321 155.173 160.321 155.177C160.321 155.181 160.119 162.379 159.766 163.033C158.868 164.559 156.491 167.148 156.431 167.436C156.255 168.296 156.762 167.526 157.578 167.436C158.038 167.38 160.742 164.645 161.348 164.022L161.387 164.043V163.974L161.464 163.893C161.479 163.698 161.479 163.502 161.464 163.308C162.603 155.487 161.219 154.966 160.75 155.026Z" fill="#FFCEA9"/>
<path d="M167.903 153.01C168.693 153.13 169.592 153.552 169.716 153.982C170.042 155.537 169.965 157.151 169.493 158.668C168.809 160.474 168.35 161.622 167.954 162.401C167.954 162.401 164.546 163.863 161.795 162.156C161.795 162.156 161.606 160.221 161.593 159.184C159.057 156.97 161.227 154.24 163.377 152.12C163.634 152.096 163.893 152.096 164.15 152.12C164.15 152.12 162.233 154.39 163.566 155.68C166.424 154.794 166.991 153.504 167.903 153.01Z" fill="#F4F4F4"/>
<path d="M162.281 146.246C162.56 144.445 163.862 143.082 165.719 143.189C166.467 143.23 167.184 143.504 167.767 143.975C168.351 144.445 168.772 145.087 168.97 145.81C169.169 146.532 169.136 147.299 168.874 148.002C168.613 148.705 168.138 149.307 167.516 149.725C167.452 149.998 167.355 150.262 167.228 150.512C166.57 151.277 164.821 151.763 164.245 151.772C163.746 151.772 163.316 151.311 162.848 150.538C161.876 148.925 162.126 147.136 162.281 146.246Z" fill="#FFCEA9"/>
<path d="M166.299 143.224C167.589 143.477 168.672 143.847 169.029 145.124C169.269 146.01 169.587 147.704 169.286 148.396L169.097 148.908L167.52 149.725C167.52 149.725 166.781 149.11 167.013 147.308C167.004 147.065 166.926 146.83 166.789 146.629C166.691 146.458 166.617 146.275 166.57 146.083C166.383 145.596 166.017 145.2 165.547 144.974C164.374 144.316 162.654 144.883 162.414 145.124C162.746 144.41 163.313 143.832 164.02 143.486C164.728 143.14 165.532 143.048 166.299 143.224Z" fill="#3A2C6D"/>
<path d="M168.672 200.239C168.01 200.776 166.983 200.407 166.953 200.454C166.182 201.114 165.376 201.732 164.537 202.303C164.107 202.625 163.484 203.06 163.6 203.679C163.806 204.792 165.586 204.453 166.256 204.109C166.927 203.765 167.477 203.206 168.113 202.819C168.564 202.539 169.011 202.389 169.084 201.821C169.106 201.464 168.788 200.226 168.672 200.239Z" fill="#38226D"/>
<path d="M169.059 201.581C168.968 202.131 168.53 202.281 168.079 202.561C167.434 202.961 166.867 203.541 166.196 203.881C165.526 204.221 164.026 204.504 163.591 203.713C163.828 204.784 165.577 204.449 166.239 204.109C166.901 203.769 167.46 203.206 168.096 202.819C168.547 202.539 168.994 202.389 169.067 201.821C169.071 201.741 169.068 201.66 169.059 201.581Z" fill="#9C73FF"/>
<path d="M164.043 199.315C163.437 199.809 162.526 199.53 162.483 199.577C161.776 200.177 161.039 200.74 160.273 201.262C159.895 201.559 159.306 201.955 159.414 202.522C159.603 203.541 161.232 203.227 161.851 202.918C162.47 202.608 162.964 202.088 163.548 201.727C163.978 201.469 164.369 201.335 164.434 200.811C164.477 200.493 164.15 199.302 164.043 199.315Z" fill="#38226D"/>
<path d="M164.43 200.6C164.348 201.103 163.944 201.241 163.531 201.494C162.942 201.864 162.422 202.393 161.812 202.707C161.202 203.021 159.826 203.279 159.427 202.552C159.641 203.533 161.245 203.227 161.855 202.918C162.465 202.608 162.968 202.088 163.553 201.727C163.983 201.469 164.374 201.335 164.438 200.811C164.444 200.74 164.441 200.67 164.43 200.6Z" fill="#9C73FF"/>
<path d="M160.484 168.614C160.776 166.335 161.614 163.024 161.614 163.024C162.407 163.394 163.264 163.606 164.137 163.648C165.418 163.643 166.696 163.519 167.954 163.278C168.364 163.996 168.813 164.69 169.299 165.359C169.957 166.271 171.234 168.266 170.924 171.753C170.722 174.032 169.446 183.71 169.446 183.71C169.943 185.338 170.208 187.027 170.232 188.728C170.112 190.752 169.844 192.764 169.433 194.748L168.672 200.239C168.672 200.239 167.657 200.974 166.953 200.454L167.043 195.079C166.957 193.763 166.824 191.824 166.742 190.586C166.604 188.565 166.243 185.362 166.14 184.566C166.037 183.771 165.779 182.365 165.655 180.8C165.53 179.234 164.945 171.267 164.945 171.267L164.864 172.759C164.864 172.759 164.782 175.18 164.434 178.168C164.086 181.156 163.965 182.468 163.965 182.468C164.295 183.07 164.526 183.722 164.649 184.398C164.709 185.043 165.444 190.152 165.006 192.749L164.099 199.357C163.874 199.514 163.615 199.614 163.344 199.65C163.072 199.686 162.796 199.656 162.538 199.564L162.005 192.903C161.649 190.371 160.892 185 160.776 184.304C160.518 182.897 160.366 181.473 160.321 180.043C160.131 177.153 160.192 170.889 160.484 168.614Z" fill="#FFCEA9"/>
<path d="M167.954 162.401L169.914 166.335C169.914 166.335 172.923 170.712 169.807 181.965L170.387 185.439C170.387 185.439 164.524 189.201 160.6 185.439C160.6 185.439 159.242 175.038 159.964 170.244C160.368 167.488 160.979 164.768 161.791 162.104C161.791 162.104 162.753 163.166 167.696 162.465" fill="#8C50FF"/>
<path d="M163.377 152.12C163.377 152.12 161.821 151.643 160.166 155.095L160.785 155.465C160.785 155.465 162.414 153.006 163.377 152.12Z" fill="#EDEDED"/>
<path d="M151.226 170.828L157.922 166.937L162.728 169.71L156.031 173.606L151.226 170.828Z" fill="#F4F4F4"/>
<path d="M157.058 167.221C156.638 167.263 156.232 167.395 155.868 167.608C155.734 167.725 155.59 167.83 155.438 167.922C155.373 167.952 155.309 167.995 155.24 168.025C155.138 168.062 155.045 168.123 154.969 168.201C154.895 168.312 154.854 168.442 154.853 168.575C154.819 168.735 154.81 168.899 154.828 169.061C154.888 169.302 155.137 169.28 155.257 169.113C155.323 169.029 155.36 168.927 155.365 168.82C155.368 168.719 155.396 168.619 155.445 168.53C155.495 168.442 155.564 168.366 155.649 168.309L157.247 167.315C157.229 167.283 157.201 167.256 157.167 167.239C157.134 167.222 157.096 167.216 157.058 167.221Z" fill="#FFCEA9"/>
<path d="M169.798 155.224C169.579 154.313 168.865 154.605 168.251 154.072C166.828 156.089 167.774 161.541 167.967 162.121L162.5 165.608L162.13 165.836C161.508 166.245 160.82 166.545 160.097 166.722C159.551 166.786 159.268 167.556 158.683 167.625C158.638 167.626 158.595 167.641 158.559 167.667C158.523 167.693 158.495 167.729 158.479 167.771C158.463 167.812 158.459 167.858 158.469 167.902C158.478 167.945 158.501 167.985 158.533 168.016C158.765 168.24 159.392 168.055 159.822 167.556C159.82 167.567 159.82 167.579 159.822 167.59C159.825 167.67 159.849 167.748 159.892 167.816C159.934 167.883 159.993 167.939 160.063 167.977C160.094 167.996 160.129 168.008 160.166 168.012C160.166 168.048 160.176 168.084 160.196 168.115C160.227 168.178 160.273 168.233 160.33 168.274C160.387 168.315 160.453 168.342 160.523 168.352C160.553 168.44 160.612 168.516 160.689 168.568C160.767 168.619 160.859 168.645 160.952 168.64C161.078 168.633 161.196 168.58 161.283 168.489C161.75 168.311 162.161 168.015 162.478 167.629C162.758 167.338 163.054 167.063 163.364 166.804C164.847 166.163 169.295 164.262 169.493 163.992C169.802 163.583 170.116 156.514 169.798 155.224Z" fill="#FFCEA9"/>
<path d="M170.297 157.671C170.297 157.671 168.547 158.454 167.094 157.723L167.305 154.984C167.305 154.984 167.327 153.513 168.637 153.367C169.948 153.221 170.636 154.902 170.297 157.671Z" fill="#EDEDED"/>
</svg>
