<svg width="274" height="215" viewBox="0 0 274 215" fill="none" xmlns="http://www.w3.org/2000/svg">
<path opacity="0.4" d="M191.538 176.662L138.662 146.224C138.357 146.05 138.106 145.797 137.933 145.492C137.76 145.187 137.674 144.841 137.681 144.491C137.689 144.14 137.792 143.799 137.978 143.502C138.164 143.205 138.427 142.963 138.738 142.803L145.39 139.371C145.681 139.223 146.005 139.149 146.331 139.157C146.657 139.165 146.977 139.253 147.26 139.415L201.913 170.878C202.218 171.053 202.469 171.306 202.641 171.611C202.814 171.917 202.901 172.263 202.893 172.614C202.885 172.964 202.783 173.307 202.597 173.604C202.411 173.901 202.148 174.143 201.837 174.304L197.011 176.788C196.161 177.227 195.215 177.446 194.258 177.424C193.302 177.402 192.366 177.14 191.538 176.662Z" fill="#D6D8E5"/>
<path d="M194.779 170.933L149.712 144.925C145.873 142.732 142.797 136.811 142.797 131.724V6.05379C142.797 0.966258 145.895 -1.37467 149.712 0.829202L194.779 26.8864C198.618 29.0793 201.694 35.0001 201.694 40.0877V165.741C201.694 170.801 198.596 173.137 194.779 170.933Z" fill="#B1B4C4"/>
<path d="M195.552 173.197L199.122 171.393L195.7 165.527L195.552 173.197Z" fill="#B1B4C4"/>
<path d="M142.111 2.10656L145.396 0.385132L144.732 5.22597L142.111 2.10656Z" fill="#B1B4C4"/>
<path d="M191.938 172.369L146.877 146.361C143.038 144.168 139.967 138.247 139.967 133.16V7.51205C139.967 2.42451 143.06 0.0835853 146.877 2.28745L191.938 28.2953C195.777 30.4882 198.848 36.409 198.848 41.4966V167.15C198.821 172.237 195.728 174.573 191.938 172.369Z" fill="#616E84"/>
<path d="M198.338 41.8201V167.462C198.338 172.556 195.245 174.891 191.428 172.693L173.759 162.49L168.275 159.321L146.367 146.685C142.528 144.492 139.457 138.571 139.457 133.478V7.83554C139.457 2.76445 142.55 0.407074 146.367 2.60546L191.428 28.6133C195.229 30.8172 198.338 36.7545 198.338 41.8201Z" fill="#20232D"/>
<path d="M195.091 40.5426V162.918C195.091 165.999 192.925 167.254 190.255 165.708L176.166 157.578L174.938 156.86L174.521 156.619L171.478 154.859L162.665 149.782L159.007 147.671L157.537 146.822L147.518 141.06C144.848 139.519 142.687 135.764 142.687 132.683V10.308C142.687 7.22146 144.848 5.9715 147.518 7.51202L165.111 17.6706V17.72C165.186 19.0282 165.57 20.3001 166.229 21.4326C166.888 22.5651 167.805 23.5264 168.906 24.2384C170.99 25.428 172.679 24.4632 172.679 22.0455C172.679 22.0455 172.679 22.0071 172.679 21.9907L190.271 32.1493C192.925 33.7063 195.091 37.4561 195.091 40.5426Z" fill="white"/>
<path d="M170.582 23.065C171.143 22.7425 171.146 21.6953 170.589 20.7259C170.032 19.7565 169.125 19.2321 168.564 19.5546C168.002 19.877 167.999 20.9243 168.556 21.8936C169.114 22.863 170.02 23.3874 170.582 23.065Z" fill="#2B303F"/>
<path opacity="0.1" d="M168.906 21.914C168.728 21.7983 168.581 21.6419 168.476 21.4579C168.371 21.2739 168.312 21.0675 168.302 20.8559C168.302 20.4721 168.571 20.3077 168.9 20.5105C169.075 20.6237 169.22 20.7767 169.324 20.9568C169.427 21.1369 169.487 21.339 169.498 21.5467C169.498 21.9524 169.229 22.1059 168.906 21.914Z" fill="white"/>
<path d="M200.164 58.349C199.797 58.5628 199.495 58.349 199.495 57.8446V52.4885C199.5 52.2391 199.563 51.9943 199.679 51.7736C199.795 51.5528 199.961 51.3621 200.164 51.2166C200.532 51.0083 200.828 51.2166 200.828 51.721V57.0771C200.824 57.3263 200.763 57.5712 200.648 57.7921C200.532 58.0131 200.367 58.2038 200.164 58.349Z" fill="#757B89"/>
<path d="M200.164 67.1261C199.797 67.3399 199.495 67.1261 199.495 66.6272V61.2656C199.5 61.0162 199.563 60.7714 199.679 60.5507C199.795 60.3299 199.961 60.1392 200.164 59.9937C200.532 59.7854 200.828 59.9937 200.828 60.4981V65.8542C200.825 66.1035 200.763 66.3485 200.648 66.5695C200.533 66.7905 200.367 66.9812 200.164 67.1261Z" fill="#757B89"/>
<path opacity="0.4" d="M94.5762 141.981L47.4416 169.365L0 141.981L47.1345 114.597L94.5762 141.981Z" fill="#D6D8E5"/>
<path d="M98.212 135.578L98.2011 140.287L51.0665 167.671L51.0775 162.956L98.212 135.578Z" fill="#D3D3DD"/>
<path d="M51.0775 162.956L51.0665 167.671L3.62488 140.287L3.63585 135.578L51.0775 162.956Z" fill="#E0DEE9"/>
<path d="M98.212 135.578L51.0775 162.956L3.63586 135.578L50.7704 108.194L98.212 135.578Z" fill="#EAEAF4"/>
<path d="M90.8635 64.1658L90.6606 134.849L50.9897 157.896L51.1926 87.2132L90.8635 64.1658Z" fill="#D3D3DD"/>
<path d="M51.1926 87.2132L50.9897 157.896L11.0611 134.849L11.2585 64.1658L51.1926 87.2132Z" fill="#E0DEE9"/>
<path d="M90.8635 64.1657L51.1927 87.2131L11.2585 64.1657L50.9294 41.1183L90.8635 64.1657Z" fill="#EAEAF4"/>
<path d="M21.5519 95.0692L21.53 102.399L15.1577 98.7204L15.1741 91.3906L21.5519 95.0692Z" fill="#2A313F"/>
<path d="M21.5793 84.8777L21.5629 92.202L15.1851 88.5234L15.207 81.1991L21.5793 84.8777Z" fill="#2A313F"/>
<path d="M21.6122 74.6807L21.5903 82.0105L15.2125 78.3319L15.2344 71.0021L21.6122 74.6807Z" fill="#2A313F"/>
<path d="M47.3155 120.156L47.2991 127.486L24.42 114.279L24.4365 106.949L47.3155 120.156Z" fill="#2A313F"/>
<path d="M47.3484 109.959L47.3265 117.289L24.4474 104.082L24.4694 96.7523L47.3484 109.959Z" fill="#2A313F"/>
<path d="M47.3758 99.7676L47.3539 107.092L24.4749 93.8851L24.4968 86.5608L47.3758 99.7676Z" fill="#2A313F"/>
<path d="M47.4032 89.5705L47.3813 96.9003L24.5078 83.6935L24.5242 76.3638L47.4032 89.5705Z" fill="#2A313F"/>
<path d="M21.4971 115.458L21.4751 122.788L15.0973 119.109L15.1192 111.779L21.4971 115.458Z" fill="#2A313F"/>
<path d="M21.5245 105.266L21.5026 112.596L15.1248 108.917L15.1467 101.588L21.5245 105.266Z" fill="#2A313F"/>
<path d="M47.2881 130.348L47.2662 137.677L24.3871 124.471L24.4091 117.141L47.2881 130.348Z" fill="#2A313F"/>
<path d="M61.2612 96.1656L61.2831 103.495L54.9053 107.174L54.8834 99.8442L61.2612 96.1656Z" fill="#2A313F"/>
<path d="M61.2338 85.9688L61.2557 93.2985L54.8724 96.9771L54.856 89.6528L61.2338 85.9688Z" fill="#2A313F"/>
<path d="M87.14 111.861L87.1619 119.186L64.2829 132.393L64.2609 125.068L87.14 111.861Z" fill="#2A313F"/>
<path d="M87.1125 101.67L87.1289 108.994L64.2554 122.201L64.2335 114.871L87.1125 101.67Z" fill="#2A313F"/>
<path d="M87.0796 91.4729L87.1015 98.7972L64.2225 112.004L64.2006 104.68L87.0796 91.4729Z" fill="#2A313F"/>
<path d="M87.0522 81.2814L87.0741 88.6057L64.1951 101.812L64.1732 94.4827L87.0522 81.2814Z" fill="#2A313F"/>
<path d="M87.0248 71.0844L87.0467 78.4086L64.1677 91.6154L64.1458 84.2856L87.0248 71.0844Z" fill="#2A313F"/>
<path d="M61.3489 126.751L61.3708 134.076L54.9875 137.754L54.9711 130.43L61.3489 126.751Z" fill="#2A313F"/>
<path d="M61.3215 116.554L61.3434 123.884L54.9601 127.563L54.9382 120.233L61.3215 116.554Z" fill="#2A313F"/>
<path d="M61.2886 106.363L61.3105 113.687L54.9327 117.366L54.9108 110.041L61.2886 106.363Z" fill="#2A313F"/>
<path d="M90.6771 129.147L90.6606 134.849L50.9952 157.896L51.0062 152.057L90.6771 129.147Z" fill="#9052FE"/>
<path d="M51.0062 152.057L50.9897 157.896L11.0611 134.848L11.0775 129.01L51.0062 152.057Z" fill="#9052FE"/>
<path d="M50.743 65.1033C50.8965 65.1033 51.0446 65.1033 51.1927 65.1033L53.463 66.408C51.8413 66.8985 50.1108 66.8985 48.4891 66.408L50.743 65.1033Z" fill="#2A313F"/>
<path d="M40.8829 56.7922C46.6684 53.9962 55.1411 53.9962 60.9596 56.7922L58.9141 57.9818C54.2418 55.8273 47.5843 55.8273 42.9448 57.9818L40.8829 56.7922Z" fill="#2A313F"/>
<path d="M44.42 58.8152C48.6149 57.1104 53.3098 57.1104 57.5047 58.8152L55.4427 60.0103C52.5552 58.9415 49.3804 58.9415 46.4929 60.0103L44.42 58.8152Z" fill="#2A313F"/>
<path d="M48.4562 61.1616C50.0793 60.6683 51.8125 60.6683 53.4356 61.1616L51.1817 62.4718C51.0283 62.4609 50.8744 62.4609 50.721 62.4718L48.4562 61.1616Z" fill="#2A313F"/>
<path d="M53.2272 63.9191C53.2409 63.8319 53.2409 63.7431 53.2272 63.656L55.4811 62.3457C55.6815 62.5281 55.8416 62.7503 55.9512 62.9981C56.0607 63.2459 56.1173 63.5139 56.1173 63.7848C56.1173 64.0557 56.0607 64.3237 55.9512 64.5715C55.8416 64.8193 55.6815 65.0415 55.4811 65.2239L53.2272 63.9191Z" fill="#2A313F"/>
<path d="M57.4937 66.3587C59.3308 64.8072 59.3199 62.7349 57.4937 61.1779L59.5557 59.9828C62.5115 62.2086 62.528 65.3335 59.5941 67.5593L57.4937 66.3587Z" fill="#2A313F"/>
<path d="M44.42 61.1944C42.5829 62.7514 42.5993 64.8237 44.4529 66.3751L42.391 67.5757C39.4351 65.35 39.4187 62.2251 42.3471 59.9993L44.42 61.1944Z" fill="#2A313F"/>
<path d="M61.0144 68.4091C64.7161 65.7173 64.6887 61.8578 60.9651 59.166L63.0106 57.9763C67.8529 61.3315 67.8858 66.2436 63.0764 69.5987L61.0144 68.4091Z" fill="#2A313F"/>
<path d="M43.0107 69.5933C47.6775 71.7423 54.335 71.7423 58.9799 69.5933L61.0364 70.7829C55.2563 73.5789 46.7781 73.5789 40.9651 70.7829L43.0107 69.5933Z" fill="#2A313F"/>
<path d="M40.9048 59.166C37.2086 61.8578 37.2305 65.7118 40.9596 68.4091L38.936 69.5987C34.0882 66.2436 34.0608 61.3315 38.8647 57.9763L40.9048 59.166Z" fill="#2A313F"/>
<path d="M46.5093 67.5593C49.3949 68.6283 52.5681 68.6283 55.4537 67.5593L57.5321 68.7599C53.3372 70.4647 48.6423 70.4647 44.4474 68.7599L46.5093 67.5593Z" fill="#2A313F"/>
<path d="M48.6865 63.6558C48.6728 63.743 48.6728 63.8318 48.6865 63.919L46.4326 65.2293C46.2321 65.0464 46.0719 64.8237 45.9623 64.5754C45.8527 64.3272 45.7961 64.0588 45.7961 63.7874C45.7961 63.5161 45.8527 63.2477 45.9623 62.9994C46.0719 62.7512 46.2321 62.5285 46.4326 62.3456L48.6865 63.6558Z" fill="#2A313F"/>
<path d="M183.164 111.796C183.801 112.207 184.331 112.763 184.713 113.419C185.094 114.074 185.315 114.81 185.357 115.567V119.301C185.357 120.688 184.37 121.247 183.164 120.545L153.309 103.32C152.672 102.908 152.142 102.352 151.76 101.697C151.379 101.041 151.158 100.305 151.116 99.5482V95.8148C151.116 94.4278 152.108 93.8686 153.309 94.5648L183.164 111.796Z" fill="#D5D7E2"/>
<path opacity="0.4" d="M120.34 196.76C131.84 196.76 141.162 191.379 141.162 184.742C141.162 178.106 131.84 172.725 120.34 172.725C108.84 172.725 99.5172 178.106 99.5172 184.742C99.5172 191.379 108.84 196.76 120.34 196.76Z" fill="#D6D8E5"/>
<path d="M103.098 91.1494C102.851 93.2985 100.285 102.574 100.833 105.749C101.382 108.923 110.156 114.246 110.156 114.246L111.373 108.802L106.515 104.049L107.831 95.0418L103.098 91.1494Z" fill="#FFCEA9"/>
<path d="M109.871 82.005C109.018 81.6109 108.05 81.5435 107.15 81.8153C106.251 82.0871 105.482 82.6793 104.99 83.4797C103.701 85.6178 102.363 92.9421 102.248 94.192C102.248 94.192 104.058 96.6919 106.772 96.2753L109.871 82.005Z" fill="#EDEDED"/>
<path d="M119.885 185.428C121.8 185.963 123.849 185.716 125.582 184.743C126.953 184.786 134.357 181.612 135.377 184.277C136.26 186.612 133.046 188.772 131.33 189.211C127.584 190.115 124.815 191.985 123.307 192.303C122.21 192.538 120.735 192.692 119.841 191.815C118.744 190.735 118.837 186.82 119.885 185.428Z" fill="#38226D"/>
<path d="M123.279 191.634C124.787 191.316 127.557 189.441 131.302 188.542C132.744 188.191 135.223 186.617 135.47 184.742C135.804 186.891 132.903 188.799 131.302 189.189C127.557 190.093 124.787 191.963 123.279 192.281C122.182 192.516 120.707 192.67 119.813 191.793C119.583 191.535 119.416 191.227 119.325 190.894C119.881 191.317 120.528 191.604 121.214 191.733C121.901 191.861 122.608 191.827 123.279 191.634Z" fill="#9C73FF"/>
<path d="M107.853 180.028C109.758 180.554 111.793 180.307 113.518 179.342C114.889 179.386 122.292 176.207 123.312 178.876C124.195 181.212 120.987 183.372 119.27 183.81C115.519 184.715 112.75 186.585 111.242 186.902C110.145 187.138 108.67 187.292 107.776 186.409C106.712 185.324 106.805 181.42 107.853 180.028Z" fill="#38226D"/>
<path d="M111.247 186.234C112.755 185.916 115.525 184.041 119.276 183.142C120.713 182.791 123.191 181.217 123.438 179.343C123.773 181.492 120.877 183.399 119.276 183.789C115.525 184.693 112.755 186.563 111.247 186.881C110.151 187.116 108.675 187.27 107.782 186.387C107.55 186.133 107.383 185.826 107.293 185.494C107.849 185.917 108.496 186.204 109.183 186.333C109.869 186.461 110.576 186.427 111.247 186.234Z" fill="#9C73FF"/>
<path d="M107.705 159.881C108.024 157.125 108.597 154.406 109.416 151.756C109.416 151.756 108.906 144.749 108.653 138.105C108.363 130.561 105.741 123.922 107.809 117.908L131.066 123.084C131.066 123.084 129.657 153.148 129.35 156.789C129.177 159.622 128.827 162.442 128.302 165.231C127.239 171.064 125.517 184.967 125.517 184.967C123.054 186.393 119.824 185.603 119.824 185.603C119.824 185.603 120 168.06 120.159 163.839C120.351 158.707 120.51 159.097 120.51 159.097L119.742 146.306L119.237 139.942C119.237 139.942 118.59 144.612 118.174 148.784C117.806 152.419 116.929 155.714 115.947 162.49C115.097 168.367 113.715 180.165 113.715 180.165C111.253 181.596 107.913 180.412 107.913 180.412C107.913 180.412 107.041 164.974 107.705 159.881Z" fill="#8C50FF"/>
<path d="M111.105 82.1366C112.876 82.2188 114.198 82.6848 114.395 82.1366C114.588 81.2231 114.723 80.2984 114.801 79.368C114.598 78.8527 114.423 78.299 114.423 78.299C112.196 76.9339 111.494 74.5272 111.198 71.7203C110.699 66.9343 113.287 62.7458 118.075 62.2415C122.577 61.7755 125.89 64.9387 126.772 69.2807C127.25 71.4243 128.198 75.4756 126.915 79.0007C126.202 80.9743 125.27 82.5368 124.354 82.8383C123.462 82.8122 122.572 82.7335 121.689 82.6026C121.689 82.6026 121.448 83.9293 121.283 84.7955C121.118 85.6617 121.184 86.1003 122.884 87.1474C124.584 88.1945 120.312 90.3435 117.526 90.1352C114.741 89.9269 111.626 88.2877 110.776 86.4566C109.805 84.4501 109.887 82.0763 111.105 82.1366Z" fill="#FFCEA9"/>
<path d="M113.671 82.3943C113.178 83.6223 114.428 85.1354 117.757 86.1661C121.086 87.1967 121.382 85.8645 121.382 85.8645C121.382 85.8645 126.262 88.0574 127.853 89.1977C129.854 90.5957 130.737 94.6361 131.006 101.456C131.319 109.351 131.346 121.061 131.083 123.084C131.083 123.084 127.348 126.801 122.572 126.411C117.795 126.022 109.75 121.79 107.803 118.528C107.853 111.604 108.664 110.48 107.546 106.467C104.979 97.3389 103.625 93.6 104.875 87.5366C105.901 82.5368 107.343 81.9173 109.317 81.9612C110.775 82.0284 112.229 82.1729 113.671 82.3943Z" fill="#F4F4F4"/>
<path d="M149.991 102.147C146.048 101.231 140.921 100.776 139.172 99.5921C134.938 96.7249 131.456 93.8358 128.889 92.3555C125.862 90.6067 124.656 90.9795 123.021 91.5661C121.102 92.2623 120.954 94.5375 124.233 97.2731C128.116 100.502 131.187 102.465 136.512 105.634C137.905 106.461 153.391 107.909 157.493 108.068C158.59 108.112 159.424 108.188 161.541 108.271C163.657 108.353 166.109 107.942 167.666 107.108C169.224 106.275 169.657 105.727 169.624 105.338C169.586 104.85 169.136 104.724 168.379 105.025C167.217 105.588 165.963 105.937 164.677 106.056C164.677 106.056 166.366 105.507 167.343 105.052C168.215 104.67 169.032 104.172 169.772 103.572C170.474 102.98 170.348 101.626 169.58 101.928C168.812 102.229 168.291 102.64 166.838 103.26C166.066 103.59 165.258 103.827 164.431 103.967C165.388 103.494 166.305 102.944 167.173 102.322C167.89 101.864 168.461 101.21 168.818 100.436C168.999 100.031 168.681 99.2742 167.776 99.7566C166.959 100.184 166.131 101.072 164.431 101.653C163.208 102.07 162.286 102.202 162.385 101.955C162.484 101.708 163.219 101.522 163.997 100.711C164.776 99.8991 165.012 98.7259 164.546 98.3422C164.08 97.9584 164.156 98.0406 163.268 98.7204C162.38 99.4002 161.376 99.7292 160.203 100.787C159.455 101.575 158.527 102.17 157.499 102.52C156.15 102.98 153.737 103.013 149.991 102.147Z" fill="#FFCEA9"/>
<path d="M121.398 89.8884C123.257 87.9971 125.445 87.8271 128.758 90.2941C132.07 92.7611 134.68 94.8718 134.68 94.8718C134.756 96.6911 134.132 98.4703 132.936 99.8442C130.891 102.333 129.098 101.818 129.098 101.818C129.098 101.818 125.895 99.0274 123.756 97.0921C121.617 95.1569 119.1 92.2184 121.398 89.8884Z" fill="#EDEDED"/>
<path d="M126.641 68.6667C126.641 68.6667 130.781 62.3785 121.815 61.0957C115.349 60.1746 111.193 64.3247 110.715 68.8366C110.255 73.1402 112.909 77.6082 114.823 79.3845C115.755 79.7189 117.768 79.9327 120.411 78.7102C120.516 77.5382 120.556 76.3614 120.532 75.1851C120.532 75.1851 117.384 68.5515 126.641 68.6667Z" fill="#3A2C6D"/>
<g opacity="0.4">
<path opacity="0.4" d="M264.326 197.587C270.814 201.332 276.32 200.943 270.309 205.367C254.877 216.72 247.458 214.9 240.97 211.156L212.739 194.857C206.246 191.113 210.128 182.796 216.578 179.063C223.027 175.329 229.602 177.544 236.095 181.294L264.326 197.587Z" fill="#D6D8E5"/>
</g>
<path d="M273.956 155.719C273.956 155.889 273.929 156.065 273.896 156.24C273.868 156.383 273.833 156.524 273.792 156.662C273.748 156.827 273.709 156.991 273.649 157.156C273.589 157.32 273.539 157.424 273.479 157.562C273.419 157.699 273.331 157.907 273.238 158.077C273.145 158.247 273.09 158.324 273.018 158.444C272.947 158.565 272.772 158.833 272.629 159.02C272.486 159.206 272.349 159.387 272.19 159.568C272.152 159.606 272.119 159.65 272.081 159.694C271.867 159.93 271.631 160.155 271.384 160.379C271.225 160.522 271.05 160.659 270.874 160.802C270.699 160.944 270.578 161.048 270.414 161.163C270.249 161.278 270.019 161.432 269.816 161.564C269.613 161.695 269.41 161.838 269.185 161.964C268.678 162.256 268.157 162.521 267.622 162.759L267.151 162.956C266.73 163.139 266.297 163.303 265.851 163.449C265.692 163.504 265.533 163.565 265.374 163.614C265.094 163.702 264.825 163.778 264.518 163.861C264.211 163.943 264.091 163.981 263.866 164.036C263.641 164.091 263.257 164.168 262.95 164.228C262.741 164.272 262.539 164.321 262.325 164.354C261.705 164.464 261.074 164.551 260.444 164.617L259.851 164.667C259.479 164.699 259.106 164.727 258.755 164.743C258.519 164.743 258.278 164.743 258.036 164.743C257.795 164.743 257.433 164.743 257.131 164.743C256.83 164.743 256.621 164.743 256.369 164.743C256.117 164.743 255.821 164.743 255.53 164.699L254.762 164.639L253.94 164.546L253.199 164.442L252.316 164.288L251.631 164.151C251.286 164.074 250.945 163.987 250.605 163.899L250.057 163.746C249.448 163.565 248.856 163.367 248.28 163.142C247.995 163.033 247.732 162.912 247.447 162.792C247.304 162.726 247.156 162.671 247.019 162.605C246.602 162.402 246.191 162.194 245.802 161.969L217.559 145.67C214.296 143.785 212.668 141.312 212.673 138.84L212.552 183.021C212.552 185.494 214.198 187.955 217.439 189.847L245.632 206.156C246.026 206.381 246.432 206.589 246.849 206.787C246.986 206.853 247.14 206.913 247.282 206.973C247.529 207.083 247.77 207.198 248.023 207.297L248.11 207.329C248.686 207.554 249.278 207.752 249.887 207.927L250.03 207.976L250.457 208.081C250.797 208.168 251.137 208.256 251.483 208.333C251.576 208.333 251.664 208.382 251.757 208.398L252.174 208.47C252.465 208.525 252.755 208.579 253.051 208.623L253.402 208.684C253.528 208.684 253.66 208.711 253.792 208.727C254.066 208.766 254.34 208.793 254.62 208.821L255.009 208.864H255.382L256.221 208.908H256.643H258.338H258.607C258.985 208.908 259.352 208.865 259.703 208.837L260.159 208.804H260.296C260.932 208.738 261.557 208.651 262.182 208.541H262.27C262.451 208.508 262.621 208.459 262.818 208.426C263.125 208.367 263.432 208.302 263.74 208.229L264.387 208.053C264.672 207.976 264.962 207.9 265.242 207.812L265.423 207.757C265.527 207.724 265.615 207.68 265.719 207.647C266.162 207.494 266.595 207.329 267.019 207.154L267.496 206.951C268.044 206.71 268.56 206.447 269.059 206.162L269.256 206.041C269.41 205.948 269.542 205.849 269.684 205.756C269.827 205.663 270.095 205.498 270.282 205.361C270.468 205.224 270.594 205.115 270.743 204.994C270.891 204.873 271.094 204.72 271.253 204.572L271.357 204.49C271.565 204.292 271.763 204.095 271.949 203.892L272.059 203.761C272.168 203.634 272.284 203.514 272.382 203.388C272.481 203.262 272.454 203.273 272.497 203.218C272.64 203.026 272.766 202.834 272.887 202.637C272.936 202.56 273.002 202.478 273.046 202.395C273.069 202.355 273.089 202.313 273.106 202.269C273.197 202.102 273.277 201.93 273.347 201.754C273.391 201.655 273.452 201.557 273.49 201.458C273.528 201.359 273.49 201.387 273.49 201.354C273.55 201.189 273.589 201.019 273.633 200.855C273.671 200.745 273.704 200.634 273.731 200.52C273.731 200.493 273.731 200.466 273.731 200.433C273.731 200.257 273.775 200.087 273.786 199.912C273.797 199.737 273.825 199.687 273.83 199.572V199.424L273.956 155.248C273.964 155.405 273.964 155.562 273.956 155.719Z" fill="#D5D7E2"/>
<path d="M269.114 148.423C275.596 152.167 275.634 158.241 269.185 161.986C262.736 165.73 252.245 165.736 245.758 161.986L217.515 145.687C211.033 141.943 210.995 135.868 217.45 132.118C223.904 128.368 234.384 128.374 240.871 132.118L269.114 148.423Z" fill="#E9EAF4"/>
<path d="M226.953 183.251L230.792 172.835C229.652 171.338 228.996 169.529 228.911 167.649C228.911 165.511 230.106 164.359 231.763 164.639C232.285 164.724 232.786 164.91 233.238 165.187C235.618 166.563 237.548 169.886 237.537 172.627C237.537 174.332 236.775 175.395 235.629 175.626L238.502 186.897L239.402 190.45L226.953 183.251Z" fill="#3A4151"/>
<path d="M229.564 181.727L233.402 171.311C232.258 169.816 231.601 168.006 231.521 166.125C231.516 165.619 231.598 165.117 231.763 164.639C232.285 164.724 232.786 164.911 233.238 165.187C235.618 166.563 237.548 169.886 237.537 172.627C237.537 174.332 236.775 175.395 235.629 175.626L238.502 186.897L229.564 181.727Z" fill="#323944"/>
<path d="M234.263 116.538C234.001 116.699 233.753 116.882 233.523 117.086L233.402 117.196C233.195 117.403 233.011 117.633 232.854 117.881L232.706 118.122L232.673 118.182C232.643 118.226 232.618 118.272 232.596 118.319C232.509 118.482 232.434 118.651 232.371 118.824C232.371 118.824 232.371 118.824 232.371 118.857C232.223 119.267 232.125 119.694 232.081 120.129V120.178C232.049 120.418 232.034 120.66 232.037 120.902L231.998 135.704V141.038C230.732 141.674 229.33 141.994 227.913 141.97V134.761V123.292C227.915 122.904 227.95 122.517 228.017 122.135C228.017 122.058 228.045 121.976 228.066 121.894C228.087 121.786 228.115 121.68 228.149 121.576C228.149 121.576 228.149 121.543 228.149 121.527C228.179 121.43 228.213 121.335 228.253 121.241C228.247 121.226 228.247 121.208 228.253 121.192C228.286 121.115 228.313 121.044 228.346 120.973C228.363 120.91 228.387 120.849 228.417 120.792C228.437 120.767 228.454 120.739 228.467 120.71C228.535 120.563 228.616 120.421 228.708 120.288C228.708 120.288 228.708 120.288 228.735 120.288C228.817 120.166 228.905 120.049 228.999 119.937C229.097 119.827 229.196 119.717 229.3 119.613C229.332 119.568 229.373 119.531 229.421 119.504C229.532 119.4 229.649 119.303 229.772 119.213C229.877 119.127 229.991 119.054 230.112 118.994C230.146 118.964 230.183 118.936 230.222 118.912L234.263 116.538Z" fill="#323944"/>
<path d="M264.261 139.015V139.519L264.222 154.174V159.563C262.967 160.178 261.584 160.488 260.186 160.467H260.137V153.258L260.164 141.899C260.166 141.298 260.133 140.698 260.065 140.101C260.032 139.81 259.994 139.508 259.945 139.207C259.945 139.169 259.945 139.119 259.945 139.075C259.906 138.845 259.868 138.604 259.813 138.374C259.818 138.341 259.818 138.308 259.813 138.275C259.692 137.694 259.55 137.102 259.38 136.51C259.38 136.427 259.33 136.356 259.309 136.279C259.232 136.016 259.149 135.764 259.062 135.506C258.974 135.249 258.859 134.903 258.749 134.602C258.639 134.3 258.535 134.054 258.426 133.78C258.289 133.418 258.124 133.056 257.965 132.683C257.944 132.645 257.927 132.604 257.916 132.562C257.916 132.562 257.916 132.535 257.883 132.513C257.592 131.872 257.274 131.219 256.923 130.578C256.791 130.315 256.649 130.063 256.501 129.805C256.309 129.46 256.117 129.12 255.908 128.78C255.7 128.44 255.442 128.067 255.212 127.716C255.102 127.535 254.993 127.354 254.872 127.168L254.751 126.987C254.731 126.955 254.707 126.926 254.68 126.899C253.846 125.675 252.95 124.494 251.993 123.363C251.933 123.286 251.861 123.215 251.801 123.144C251.357 122.596 250.907 122.108 250.436 121.62C250.372 121.541 250.302 121.468 250.227 121.401C249.986 121.148 249.745 120.896 249.492 120.644C249.24 120.392 248.911 120.063 248.609 119.783C248.154 119.361 247.704 118.939 247.233 118.528C246.421 117.826 245.588 117.161 244.732 116.532L244.233 116.171C243.311 115.507 242.355 114.89 241.371 114.323C241.036 114.131 240.718 113.961 240.394 113.775C240.071 113.588 239.671 113.402 239.298 113.227C239.051 113.106 238.799 112.996 238.557 112.887L238.245 112.744L237.872 112.596C237.203 112.316 236.539 112.048 235.887 111.872C235.861 111.867 235.836 111.863 235.81 111.861L235.569 111.801C235.459 111.757 235.349 111.741 235.25 111.708C235.152 111.675 234.976 111.626 234.85 111.598H234.817L234.549 111.538C234.307 111.478 234.082 111.428 233.852 111.39C233.726 111.357 233.583 111.341 233.452 111.319C233.428 111.313 233.404 111.313 233.38 111.319L232.892 111.236H232.777C232.475 111.193 232.172 111.166 231.867 111.154C231.674 111.133 231.48 111.122 231.286 111.121H230.995C230.698 111.119 230.402 111.134 230.107 111.165H230.052H229.827C229.733 111.17 229.64 111.181 229.547 111.198C229.462 111.205 229.378 111.218 229.295 111.236H229.267C229.196 111.236 229.125 111.269 229.054 111.275C228.884 111.308 228.714 111.335 228.544 111.384C228.516 111.38 228.489 111.38 228.461 111.384C228.414 111.385 228.367 111.396 228.324 111.417C228.201 111.444 228.08 111.481 227.962 111.527C227.867 111.546 227.774 111.572 227.683 111.604C227.683 111.604 227.65 111.604 227.639 111.604C227.628 111.604 227.639 111.604 227.639 111.604C227.436 111.672 227.239 111.752 227.046 111.845L226.975 111.872C226.848 111.93 226.723 111.994 226.602 112.064C226.518 112.097 226.437 112.137 226.361 112.185L230.457 109.806C230.868 109.57 231.3 109.372 231.746 109.214C231.762 109.208 231.779 109.208 231.796 109.214C232.154 109.088 232.52 108.987 232.892 108.912L233.013 108.879H233.15C233.402 108.83 233.666 108.802 233.923 108.769H234.093H234.148C234.455 108.769 234.768 108.731 235.097 108.731H235.261C235.514 108.731 235.766 108.731 236.029 108.731H236.068C236.199 108.731 236.336 108.764 236.468 108.769L236.983 108.824H237.033C237.203 108.824 237.373 108.885 237.554 108.907C237.735 108.928 237.806 108.945 237.932 108.978H237.976C238.278 109.038 238.585 109.109 238.908 109.186C239.21 109.257 239.517 109.345 239.819 109.438C239.835 109.434 239.852 109.434 239.868 109.438C239.974 109.466 240.079 109.5 240.181 109.542C240.383 109.603 240.575 109.663 240.762 109.734C240.8 109.742 240.837 109.755 240.872 109.773C241.003 109.811 241.131 109.859 241.255 109.915C241.403 109.976 241.557 110.025 241.716 110.085C241.774 110.115 241.835 110.141 241.897 110.162L242.308 110.343C242.429 110.392 242.55 110.436 242.67 110.496C242.765 110.533 242.856 110.577 242.944 110.628C243.091 110.685 243.234 110.751 243.372 110.825C243.465 110.864 243.553 110.908 243.646 110.957C243.74 111.006 243.899 111.077 244.014 111.138C244.129 111.198 244.299 111.286 244.436 111.368C244.507 111.394 244.575 111.427 244.639 111.467L245.423 111.9C245.5 111.949 245.582 111.988 245.654 112.042C246.004 112.24 246.344 112.454 246.684 112.673C246.86 112.772 247.03 112.892 247.2 113.002C247.283 113.065 247.369 113.123 247.458 113.177L247.721 113.353C248.072 113.594 248.412 113.835 248.757 114.087L249.075 114.339C249.174 114.411 249.278 114.476 249.377 114.559C249.476 114.641 249.657 114.773 249.799 114.893C250.161 115.162 250.501 115.441 250.852 115.743L250.962 115.842C251.03 115.896 251.094 115.954 251.154 116.017C251.395 116.214 251.636 116.417 251.878 116.637C252.119 116.856 252.399 117.108 252.651 117.36C252.702 117.398 252.748 117.442 252.788 117.492C252.816 117.506 252.841 117.527 252.859 117.552C253.181 117.855 253.494 118.162 253.797 118.473L254.274 118.977C254.346 119.043 254.417 119.125 254.488 119.197C254.559 119.268 254.609 119.317 254.669 119.389C254.938 119.679 255.217 119.992 255.481 120.288C255.612 120.43 255.733 120.584 255.854 120.721L256.035 120.94C256.106 121.022 256.183 121.105 256.243 121.181C256.517 121.505 256.764 121.817 257.016 122.135C257.109 122.256 257.197 122.376 257.296 122.497C257.395 122.618 257.449 122.689 257.521 122.788L257.811 123.171C258.053 123.5 258.283 123.846 258.524 124.175L258.793 124.564L258.864 124.668C259.007 124.865 259.128 125.09 259.265 125.288C259.528 125.71 259.813 126.121 260.049 126.532L260.142 126.685C260.433 127.157 260.69 127.639 260.954 128.116C260.954 128.16 260.992 128.199 261.014 128.237C261.043 128.286 261.069 128.338 261.091 128.39C261.211 128.621 261.332 128.84 261.447 129.07C261.562 129.301 261.678 129.536 261.787 129.767C261.848 129.893 261.897 130.024 261.957 130.145C261.977 130.183 261.994 130.224 262.007 130.265C262.04 130.326 262.067 130.397 262.1 130.457C262.199 130.677 262.286 130.89 262.38 131.11C262.473 131.329 262.55 131.532 262.637 131.74C262.681 131.85 262.72 131.965 262.758 132.075C262.768 132.113 262.783 132.15 262.802 132.184C262.824 132.251 262.849 132.317 262.879 132.382C262.95 132.606 263.032 132.815 263.103 133.028C263.175 133.242 263.241 133.456 263.301 133.67C263.334 133.769 263.361 133.867 263.394 133.971C263.427 134.076 263.394 134.043 263.421 134.081C263.449 134.156 263.473 134.233 263.493 134.311C263.553 134.531 263.613 134.744 263.663 134.953C263.712 135.161 263.761 135.364 263.805 135.567C263.805 135.654 263.844 135.759 263.866 135.846C263.863 135.877 263.863 135.909 263.866 135.94C263.866 136.016 263.899 136.099 263.91 136.17C263.948 136.367 263.981 136.57 264.019 136.762C264.058 136.954 264.069 137.14 264.101 137.31C264.134 137.48 264.102 137.54 264.129 137.661C264.134 137.684 264.134 137.709 264.129 137.732C264.132 137.78 264.132 137.827 264.129 137.875C264.129 138.056 264.162 138.242 264.173 138.423C264.184 138.604 264.25 138.845 264.261 139.015Z" fill="#323944"/>
<path d="M260.175 141.899L260.148 153.258V160.467C257.696 160.467 255.601 159.59 254.664 158.356V155.358L254.713 138.735C254.713 133.116 248.609 124.827 241.349 120.644C238.086 118.758 235.048 117.969 232.684 118.188C231.838 118.247 231.015 118.483 230.266 118.879C230.227 118.903 230.19 118.931 230.156 118.961C230.035 119.022 229.921 119.095 229.816 119.18C229.69 119.266 229.573 119.363 229.465 119.471C229.417 119.498 229.376 119.535 229.344 119.58C229.231 119.676 229.13 119.785 229.043 119.904C228.942 120.011 228.854 120.128 228.779 120.255C228.779 120.255 228.779 120.255 228.752 120.255C228.66 120.389 228.579 120.53 228.511 120.677C228.459 120.759 228.419 120.848 228.39 120.94C228.349 121.008 228.317 121.082 228.297 121.159C228.291 121.175 228.291 121.193 228.297 121.209C228.25 121.317 228.214 121.429 228.187 121.543C228.153 121.647 228.126 121.754 228.105 121.861C228.084 121.94 228.067 122.021 228.055 122.102C227.989 122.484 227.954 122.871 227.951 123.259V134.728V141.937C225.533 141.937 223.443 141.104 222.467 139.898V136.756L222.429 120.085C222.429 116.181 223.975 113.462 226.542 112.108C226.663 112.038 226.787 111.974 226.915 111.916L226.986 111.889C227.178 111.796 227.376 111.716 227.578 111.648C227.683 111.605 227.791 111.572 227.902 111.549C228.019 111.502 228.14 111.466 228.264 111.439C228.306 111.418 228.353 111.407 228.401 111.406C228.428 111.402 228.456 111.402 228.483 111.406L228.735 111.352C228.82 111.328 228.906 111.31 228.993 111.297C229.065 111.297 229.136 111.269 229.207 111.258H229.235C229.318 111.239 229.402 111.227 229.487 111.22C229.579 111.203 229.673 111.192 229.766 111.187C229.86 111.179 229.953 111.179 230.046 111.187C230.341 111.156 230.638 111.141 230.935 111.143H231.225C231.419 111.143 231.614 111.154 231.807 111.176C232.111 111.187 232.415 111.215 232.717 111.258C232.919 111.276 233.121 111.306 233.32 111.346C233.344 111.341 233.368 111.341 233.391 111.346C233.523 111.346 233.666 111.385 233.792 111.417C234.022 111.456 234.247 111.505 234.488 111.565C234.729 111.626 234.949 111.675 235.19 111.746C235.289 111.779 235.398 111.796 235.508 111.84L235.832 111.927C236.484 112.13 237.148 112.371 237.817 112.651C238.053 112.739 238.272 112.843 238.502 112.941C238.733 113.04 238.996 113.161 239.243 113.281L239.89 113.605C240.027 113.682 240.18 113.753 240.318 113.824C240.641 114.005 240.959 114.175 241.294 114.372C242.278 114.94 243.234 115.556 244.156 116.22L244.655 116.582C245.511 117.21 246.344 117.875 247.156 118.577C247.628 118.988 248.077 119.411 248.533 119.833C248.834 120.112 249.125 120.381 249.415 120.693C249.706 121.006 249.909 121.198 250.15 121.45C250.225 121.518 250.295 121.591 250.359 121.669C250.83 122.157 251.28 122.672 251.724 123.193C251.785 123.265 251.856 123.336 251.916 123.413C252.873 124.544 253.77 125.724 254.603 126.949C254.673 127.034 254.738 127.123 254.795 127.217C255.157 127.765 255.497 128.281 255.832 128.824C256.04 129.163 256.232 129.503 256.424 129.849C256.572 130.106 256.715 130.359 256.846 130.622C257.197 131.263 257.515 131.916 257.806 132.557C257.839 132.617 257.866 132.678 257.888 132.727C258.047 133.089 258.212 133.451 258.349 133.823C258.458 134.092 258.568 134.372 258.672 134.646C258.777 134.92 258.892 135.249 258.985 135.55C259.078 135.852 259.155 136.06 259.232 136.323C259.232 136.4 259.281 136.471 259.303 136.554C259.473 137.146 259.627 137.738 259.736 138.319C259.741 138.352 259.741 138.385 259.736 138.418C259.791 138.648 259.829 138.889 259.868 139.119C259.868 139.163 259.868 139.212 259.868 139.251C259.917 139.552 259.956 139.843 259.989 140.144C260.084 140.725 260.146 141.311 260.175 141.899Z" fill="#3A4151"/>
<path d="M185.933 67.806C186.209 67.987 186.437 68.2301 186.601 68.5158C186.765 68.8015 186.859 69.1218 186.877 69.4507L186.8 96.8236C186.8 99.2358 185.078 100.217 182.961 99.0165L156.293 83.6004C155.187 82.8795 154.266 81.9081 153.606 80.7651C152.946 79.6221 152.564 78.3396 152.492 77.0217L152.569 49.6487C152.569 49.0457 153.002 48.799 153.523 49.1005L156.386 50.7452V46.3594C156.386 37.9057 162.418 34.4848 169.772 38.7336C177.126 42.9823 183.098 53.3109 183.071 61.759V66.1449L185.933 67.806ZM177.351 62.8719V58.4861C177.351 53.6508 173.956 47.7519 169.756 45.3287C165.555 42.9056 162.117 44.8572 162.106 49.6871V54.0729L177.356 62.8445L177.351 62.8719ZM172.525 82.9644L171.938 76.3857C172.92 76.1335 173.507 75.1796 173.507 73.7652C173.437 72.4467 173.056 71.1634 172.396 70.0201C171.735 68.8767 170.814 67.9058 169.706 67.1865C167.606 65.9749 165.868 66.9507 165.868 69.3794C165.929 70.9747 166.47 72.5144 167.419 73.7981L166.8 79.6641C166.781 80.0083 166.861 80.3507 167.03 80.6509C167.196 80.968 167.442 81.2363 167.743 81.4294L171.582 83.6223C171.684 83.6968 171.806 83.7405 171.932 83.7483C172.058 83.7561 172.184 83.7276 172.295 83.6662C172.393 83.5784 172.467 83.4666 172.509 83.3417C172.552 83.2167 172.561 83.083 172.536 82.9535" fill="#D5D7E2"/>
<path d="M183.943 128.001C184.351 128.259 184.692 128.61 184.938 129.026C185.184 129.441 185.328 129.909 185.357 130.391V134.229C185.357 135.106 184.727 135.463 183.965 135.024L152.454 116.85C152.051 116.588 151.715 116.234 151.474 115.818C151.233 115.402 151.093 114.935 151.066 114.455V110.617C151.066 109.734 151.697 109.383 152.459 109.827L183.943 128.001Z" fill="#D5D7E2"/>
</svg>
