<svg width="41" height="40" viewBox="0 0 41 40" fill="none" xmlns="http://www.w3.org/2000/svg">
<path d="M41 20.0957C41 8.99436 31.8246 -0.000183105 20.5 -0.000183105C9.17537 -0.000183105 -3.05176e-05 8.99436 -3.05176e-05 20.0957C-3.05176e-05 30.1258 7.49652 38.4397 17.2968 39.9485V25.9049H12.0892V20.0957H17.2968V15.6681C17.2968 10.632 20.3553 7.85019 25.0397 7.85019C27.2832 7.85019 29.6291 8.24238 29.6291 8.24238V13.1853H27.0434C24.4975 13.1853 23.7031 14.7347 23.7031 16.3237V20.0957H29.3885L28.4793 25.9049H23.7031V39.9485C33.5034 38.4397 41 30.1258 41 20.0957Z" fill="url(#paint0_linear_2_280)"/>
<defs>
<linearGradient id="paint0_linear_2_280" x1="31.5803" y1="51.8563" x2="-3.2939" y2="47.3942" gradientUnits="userSpaceOnUse">
<stop stop-color="#5D70FB"/>
<stop offset="1" stop-color="#DC79FF"/>
</linearGradient>
</defs>
</svg>
