<svg width="41" height="41" viewBox="0 0 41 41" fill="none" xmlns="http://www.w3.org/2000/svg">
<path fill-rule="evenodd" clip-rule="evenodd" d="M12.0484 0.122817C14.2344 0.0221805 14.9314 -0.000183105 20.5 -0.000183105C26.0685 -0.000183105 26.7655 0.0240441 28.9497 0.122817C31.1339 0.22159 32.6248 0.57009 33.9293 1.07514C35.2954 1.59136 36.5347 2.39832 37.5597 3.44195C38.6033 4.46509 39.4084 5.70254 39.9228 7.07045C40.4297 8.375 40.7763 9.86591 40.877 12.0464C40.9776 14.2361 41 14.9331 41 20.4998C41 26.0684 40.9757 26.7654 40.877 28.9514C40.7782 31.1319 40.4297 32.6228 39.9228 33.9273C39.4084 35.2954 38.602 36.5349 37.5597 37.5595C36.5347 38.6032 35.2954 39.4083 33.9293 39.9226C32.6248 40.4295 31.1339 40.7762 28.9534 40.8768C26.7655 40.9775 26.0685 40.9998 20.5 40.9998C14.9314 40.9998 14.2344 40.9756 12.0484 40.8768C9.86792 40.778 8.37702 40.4295 7.07247 39.9226C5.70441 39.4082 4.46491 38.6018 3.44024 37.5595C2.39731 36.5358 1.59024 35.2969 1.07529 33.9292C0.570242 32.6246 0.223606 31.1337 0.122969 28.9533C0.0223331 26.7635 -3.05176e-05 26.0665 -3.05176e-05 20.4998C-3.05176e-05 14.9313 0.0241967 14.2343 0.122969 12.0501C0.221742 9.86591 0.570242 8.375 1.07529 7.07045C1.591 5.7027 2.39869 4.46381 3.44211 3.44009C4.46532 2.39739 5.70358 1.59033 7.07061 1.07514C8.37515 0.57009 9.86606 0.223453 12.0465 0.122817H12.0484ZM28.7838 3.81282C26.622 3.71404 25.9735 3.69354 20.5 3.69354C15.0265 3.69354 14.3779 3.71404 12.2161 3.81282C10.2164 3.90413 9.13179 4.23773 8.4087 4.51913C7.45265 4.89186 6.7687 5.33354 6.0512 6.05104C5.37105 6.71273 4.84762 7.51825 4.51929 8.40854C4.23788 9.13164 3.90429 10.2163 3.81297 12.216C3.7142 14.3778 3.6937 15.0263 3.6937 20.4998C3.6937 25.9733 3.7142 26.6219 3.81297 28.7837C3.90429 30.7834 4.23788 31.868 4.51929 32.5911C4.84729 33.48 5.37097 34.287 6.0512 34.9486C6.71279 35.6288 7.51974 36.1525 8.4087 36.4805C9.13179 36.7619 10.2164 37.0955 12.2161 37.1868C14.3779 37.2856 15.0246 37.3061 20.5 37.3061C25.9753 37.3061 26.622 37.2856 28.7838 37.1868C30.7835 37.0955 31.8682 36.7619 32.5912 36.4805C33.5473 36.1078 34.2312 35.6661 34.9487 34.9486C35.629 34.287 36.1527 33.48 36.4807 32.5911C36.7621 31.868 37.0957 30.7834 37.187 28.7837C37.2857 26.6219 37.3062 25.9733 37.3062 20.4998C37.3062 15.0263 37.2857 14.3778 37.187 12.216C37.0957 10.2163 36.7621 9.13164 36.4807 8.40854C36.1079 7.4525 35.6662 6.76854 34.9487 6.05104C34.287 5.37095 33.4815 4.84753 32.5912 4.51913C31.8682 4.23773 30.7835 3.90413 28.7838 3.81282ZM17.8816 26.8194C19.3439 27.4281 20.9722 27.5103 22.4883 27.0518C24.0045 26.5934 25.3145 25.6228 26.1945 24.3058C27.0746 22.9888 27.4701 21.4072 27.3135 19.831C27.1569 18.2548 26.458 16.7818 25.3361 15.6637C24.6209 14.9489 23.7561 14.4016 22.804 14.0612C21.852 13.7208 20.8362 13.5957 19.83 13.695C18.8237 13.7942 17.852 14.1153 16.9848 14.6352C16.1175 15.1551 15.3764 15.8607 14.8146 16.7014C14.2528 17.5421 13.8844 18.4969 13.7359 19.4971C13.5874 20.4973 13.6626 21.5179 13.9559 22.4856C14.2492 23.4532 14.7534 24.3438 15.4322 25.0932C16.111 25.8426 16.9476 26.4321 17.8816 26.8194ZM13.0492 13.049C14.0276 12.0705 15.1892 11.2944 16.4676 10.7649C17.746 10.2353 19.1162 9.96277 20.5 9.96277C21.8837 9.96277 23.2539 10.2353 24.5323 10.7649C25.8107 11.2944 26.9723 12.0705 27.9508 13.049C28.9292 14.0275 29.7054 15.189 30.2349 16.4675C30.7645 17.7459 31.037 19.1161 31.037 20.4998C31.037 21.8836 30.7645 23.2538 30.2349 24.5322C29.7054 25.8106 28.9292 26.9722 27.9508 27.9506C25.9747 29.9267 23.2946 31.0369 20.5 31.0369C17.7054 31.0369 15.0252 29.9267 13.0492 27.9506C11.0731 25.9746 9.96292 23.2944 9.96292 20.4998C9.96292 17.7052 11.0731 15.0251 13.0492 13.049ZM33.374 11.532C33.6164 11.3033 33.8105 11.0282 33.9448 10.7231C34.0791 10.418 34.1508 10.0891 34.1556 9.75582C34.1605 9.42253 34.0984 9.09166 33.9731 8.78278C33.8478 8.47391 33.6618 8.19331 33.4261 7.95762C33.1904 7.72192 32.9098 7.53591 32.6009 7.4106C32.292 7.28529 31.9612 7.22323 31.6279 7.22809C31.2946 7.23294 30.9657 7.30463 30.6606 7.43889C30.3555 7.57315 30.0804 7.76726 29.8517 8.00973C29.4069 8.48128 29.1633 9.10763 29.1728 9.75582C29.1822 10.404 29.4439 11.023 29.9023 11.4814C30.3607 11.9398 30.9797 12.2015 31.6279 12.2109C32.2761 12.2204 32.9024 11.9768 33.374 11.532Z" fill="url(#paint0_linear_2_275)"/>
<defs>
<linearGradient id="paint0_linear_2_275" x1="43.05" y1="-6.6863" x2="-11.5589" y2="9.41948" gradientUnits="userSpaceOnUse">
<stop stop-color="#5D70FB"/>
<stop offset="0.171875" stop-color="#DC79FF"/>
<stop offset="0.270833" stop-color="#DC79FF"/>
<stop offset="0.760417" stop-color="#5D70FB"/>
</linearGradient>
</defs>
</svg>
