<svg width="593" height="594" viewBox="0 0 593 594" fill="none" xmlns="http://www.w3.org/2000/svg">
<path d="M419.833 28.0613C366.612 3.59953 307.332 -4.53102 249.491 4.69768C191.649 13.9264 137.843 40.1 94.8764 79.9085C51.91 119.717 21.713 171.373 8.10421 228.343C-5.50462 285.314 -1.91414 345.04 18.4216 399.97C38.7574 454.9 74.925 502.566 122.351 536.94C169.777 571.315 226.331 590.854 284.862 593.087C343.393 595.32 401.271 580.147 451.178 549.485C501.085 518.824 540.779 474.052 565.241 420.831L512.575 396.625C492.901 439.429 460.976 475.438 420.837 500.098C380.697 524.759 334.147 536.963 287.072 535.167C239.996 533.371 194.511 517.656 156.367 490.009C118.223 462.362 89.1344 424.025 72.7788 379.846C56.4231 335.667 53.5354 287.63 64.4807 241.81C75.426 195.99 99.7128 154.444 134.27 122.427C168.827 90.4097 212.102 69.3588 258.623 61.9363C305.144 54.5138 352.821 61.0531 395.626 80.7272L419.833 28.0613Z" fill="url(#paint0_linear_2_284)"/>
<path d="M73.0001 283.342L73.0214 292.916L168.786 348.56L168.754 338.986L73.0001 283.342Z" fill="#D3D3DD"/>
<path d="M168.754 338.986L168.786 348.56L265.169 292.916L265.137 283.342L168.754 338.986Z" fill="#E0DEE9"/>
<path d="M73 283.342L168.754 338.986L265.136 283.342L169.383 227.687L73 283.342Z" fill="#EAEAF4"/>
<path d="M87.9372 138.213L88.3424 281.86L168.935 328.697L168.53 185.051L87.9372 138.213Z" fill="#D3D3DD"/>
<path d="M168.53 185.051L168.935 328.697L250.061 281.86L249.656 138.213L168.53 185.051Z" fill="#E0DEE9"/>
<path d="M87.9372 138.213L168.53 185.05L249.656 138.213L169.052 91.3865L87.9372 138.213Z" fill="#EAEAF4"/>
<path d="M228.748 201.022L228.78 215.916L241.734 208.442L241.691 193.548L228.748 201.022Z" fill="#2A313F"/>
<path d="M228.684 180.317L228.726 195.201L241.681 187.716L241.638 172.832L228.684 180.317Z" fill="#2A313F"/>
<path d="M228.62 159.59L228.673 174.485L241.617 167.011L241.585 152.116L228.62 159.59Z" fill="#2A313F"/>
<path d="M176.398 251.996L176.441 266.891L222.926 240.055L222.884 225.16L176.398 251.996Z" fill="#2A313F"/>
<path d="M176.345 231.28L176.377 246.175L222.862 219.339L222.82 204.444L176.345 231.28Z" fill="#2A313F"/>
<path d="M176.281 210.564L176.324 225.448L222.809 198.612L222.756 183.728L176.281 210.564Z" fill="#2A313F"/>
<path d="M176.228 189.848L176.26 204.743L222.745 177.907L222.702 163.013L176.228 189.848Z" fill="#2A313F"/>
<path d="M228.865 242.454L228.897 257.348L241.851 249.874L241.808 234.98L228.865 242.454Z" fill="#2A313F"/>
<path d="M228.801 221.748L228.844 236.643L241.798 229.158L241.755 214.264L228.801 221.748Z" fill="#2A313F"/>
<path d="M176.462 272.712L176.505 287.606L222.98 260.771L222.937 245.876L176.462 272.712Z" fill="#2A313F"/>
<path d="M148.07 203.25L148.027 218.145L160.992 225.629L161.035 210.735L148.07 203.25Z" fill="#2A313F"/>
<path d="M148.134 182.524L148.091 197.418L161.045 204.903L161.088 190.008L148.134 182.524Z" fill="#2A313F"/>
<path d="M95.4964 235.15L95.4538 250.034L141.939 276.87L141.982 261.986L95.4964 235.15Z" fill="#2A313F"/>
<path d="M95.5604 214.434L95.5178 229.329L141.993 256.154L142.035 241.27L95.5604 214.434Z" fill="#2A313F"/>
<path d="M95.6137 193.719L95.571 208.602L142.057 235.438L142.099 220.554L95.6137 193.719Z" fill="#2A313F"/>
<path d="M95.6778 172.992L95.6351 187.887L142.11 214.722L142.153 199.828L95.6778 172.992Z" fill="#2A313F"/>
<path d="M95.7309 152.276L95.6883 167.171L142.174 194.006L142.216 179.112L95.7309 152.276Z" fill="#2A313F"/>
<path d="M147.899 265.398L147.846 280.282L160.811 287.766L160.853 272.882L147.899 265.398Z" fill="#2A313F"/>
<path d="M147.953 244.682L147.91 259.577L160.875 267.061L160.907 252.167L147.953 244.682Z" fill="#2A313F"/>
<path d="M148.006 223.966L147.974 238.85L160.928 246.335L160.971 231.451L148.006 223.966Z" fill="#2A313F"/>
<path d="M88.3104 270.27L88.3424 281.86L168.935 328.697L168.978 316.841L88.3104 270.27Z" fill="#9052FE"/>
<path d="M168.903 316.841L168.935 328.697L250.061 281.86L250.029 270.004L168.903 316.841Z" fill="#9052FE"/>
<path d="M169.436 140.122H168.519L163.913 142.787C167.209 143.784 170.725 143.784 174.021 142.787L169.436 140.122Z" fill="#2A313F"/>
<path d="M189.47 123.233C177.742 117.551 160.491 117.551 148.678 123.233L152.836 125.654C162.335 121.282 175.844 121.282 185.28 125.654L189.47 123.233Z" fill="#2A313F"/>
<path d="M182.337 127.349C173.816 123.884 164.278 123.884 155.757 127.349L159.947 129.78C165.811 127.605 172.261 127.605 178.125 129.78L182.337 127.349Z" fill="#2A313F"/>
<path d="M174.085 132.115C170.783 131.112 167.258 131.112 163.956 132.115L168.54 134.78C168.853 134.759 169.166 134.759 169.479 134.78L174.085 132.115Z" fill="#2A313F"/>
<path d="M164.329 137.712C164.308 137.535 164.308 137.356 164.329 137.179L159.744 134.524C159.337 134.895 159.011 135.347 158.788 135.851C158.565 136.355 158.45 136.9 158.45 137.451C158.45 138.002 158.565 138.547 158.788 139.051C159.011 139.555 159.337 140.007 159.744 140.377L164.329 137.712Z" fill="#2A313F"/>
<path d="M155.725 142.712C151.993 139.514 152.004 135.345 155.778 132.189L151.535 129.748C145.532 134.279 145.5 140.623 151.45 145.154L155.725 142.712Z" fill="#2A313F"/>
<path d="M182.262 132.189C186.005 135.388 185.973 139.557 182.198 142.712L186.388 145.154C192.391 140.623 192.434 134.279 186.484 129.748L182.262 132.189Z" fill="#2A313F"/>
<path d="M148.56 146.849C141.097 141.369 141.097 133.533 148.667 128.052L144.509 125.632C134.679 132.456 134.615 142.435 144.381 149.259L148.56 146.849Z" fill="#2A313F"/>
<path d="M185.152 149.259C175.663 153.619 162.133 153.619 152.697 149.259L148.518 151.668C160.246 157.351 177.496 157.351 189.299 151.668L185.152 149.259Z" fill="#2A313F"/>
<path d="M189.416 128.052C196.933 133.533 196.88 141.358 189.31 146.849L193.468 149.259C203.319 142.435 203.362 132.456 193.606 125.643L189.416 128.052Z" fill="#2A313F"/>
<path d="M178.029 145.122C172.182 147.286 165.752 147.286 159.904 145.122L155.64 147.553C164.165 151.018 173.705 151.018 182.23 147.553L178.029 145.122Z" fill="#2A313F"/>
<path d="M173.615 137.179C173.642 137.359 173.642 137.542 173.615 137.723L178.189 140.377C178.6 140.009 178.929 139.557 179.153 139.053C179.378 138.549 179.494 138.003 179.494 137.451C179.494 136.899 179.378 136.353 179.153 135.849C178.929 135.344 178.6 134.893 178.189 134.524L173.615 137.179Z" fill="#2A313F"/>
<path d="M213.459 364.67L213.491 374.244L309.244 429.899L309.223 420.325L213.459 364.67Z" fill="#D3D3DD"/>
<path d="M309.223 420.325L309.244 429.899L405.627 374.255L405.606 364.67L309.223 420.325Z" fill="#E0DEE9"/>
<path d="M213.459 364.67L309.223 420.325L405.606 364.67L309.841 309.026L213.459 364.67Z" fill="#EAEAF4"/>
<path d="M228.396 219.552L228.812 363.199L309.404 410.025L308.989 266.389L228.396 219.552Z" fill="#D3D3DD"/>
<path d="M308.988 266.389L309.404 410.025L390.519 363.188L390.114 219.552L308.988 266.389Z" fill="#E0DEE9"/>
<path d="M228.396 219.552L308.988 266.389L390.114 219.552L309.522 172.715L228.396 219.552Z" fill="#EAEAF4"/>
<path d="M369.206 282.361L369.249 297.255L382.203 289.771L382.161 274.876L369.206 282.361Z" fill="#2A313F"/>
<path d="M369.142 261.645L369.185 276.529L382.139 269.055L382.097 254.171L369.142 261.645Z" fill="#2A313F"/>
<path d="M369.089 240.929L369.132 255.824L382.086 248.339L382.043 233.444L369.089 240.929Z" fill="#2A313F"/>
<path d="M316.868 333.335L316.91 348.229L363.385 321.394L363.342 306.499L316.868 333.335Z" fill="#2A313F"/>
<path d="M316.804 312.619L316.846 327.514L363.321 300.667L363.289 285.783L316.804 312.619Z" fill="#2A313F"/>
<path d="M316.74 291.903L316.782 306.787L363.268 279.951L363.225 265.067L316.74 291.903Z" fill="#2A313F"/>
<path d="M316.686 271.177L316.729 286.071L363.204 259.235L363.161 244.351L316.686 271.177Z" fill="#2A313F"/>
<path d="M369.324 323.793L369.366 338.687L382.32 331.203L382.278 316.319L369.324 323.793Z" fill="#2A313F"/>
<path d="M369.26 303.077L369.302 317.971L382.256 310.497L382.214 295.603L369.26 303.077Z" fill="#2A313F"/>
<path d="M316.921 354.051L316.964 368.945L363.438 342.11L363.396 327.215L316.921 354.051Z" fill="#2A313F"/>
<path d="M288.528 284.578L288.486 299.473L301.451 306.958L301.493 292.063L288.528 284.578Z" fill="#2A313F"/>
<path d="M288.593 263.863L288.55 278.757L301.515 286.242L301.557 271.347L288.593 263.863Z" fill="#2A313F"/>
<path d="M235.966 316.489L235.923 331.373L282.398 358.209L282.441 343.325L235.966 316.489Z" fill="#2A313F"/>
<path d="M236.019 295.763L235.976 310.657L282.462 337.493L282.505 322.598L236.019 295.763Z" fill="#2A313F"/>
<path d="M236.083 275.057L236.04 289.941L282.515 316.777L282.558 301.883L236.083 275.057Z" fill="#2A313F"/>
<path d="M236.136 254.331L236.094 269.225L282.579 296.061L282.622 281.167L236.136 254.331Z" fill="#2A313F"/>
<path d="M236.2 233.615L236.158 248.51L282.633 275.335L282.675 260.44L236.2 233.615Z" fill="#2A313F"/>
<path d="M288.358 346.737L288.315 361.621L301.28 369.105L301.312 354.221L288.358 346.737Z" fill="#2A313F"/>
<path d="M288.411 326.01L288.379 340.905L301.333 348.389L301.376 333.495L288.411 326.01Z" fill="#2A313F"/>
<path d="M288.475 305.305L288.433 320.189L301.387 327.673L301.44 312.79L288.475 305.305Z" fill="#2A313F"/>
<path d="M228.769 351.609L228.801 363.188L309.394 410.025L309.426 398.169L228.769 351.609Z" fill="#9052FE"/>
<path d="M309.362 398.169L309.394 410.025L390.519 363.188L390.487 351.332L309.362 398.169Z" fill="#9052FE"/>
<path d="M309.895 221.45C309.593 221.471 309.29 221.471 308.989 221.45L304.372 224.115C307.667 225.117 311.185 225.117 314.479 224.115L309.895 221.45Z" fill="#2A313F"/>
<path d="M329.928 204.572C318.2 198.89 300.96 198.89 289.136 204.572L293.294 206.982C302.794 202.61 316.313 202.61 325.749 206.982L329.928 204.572Z" fill="#2A313F"/>
<path d="M322.806 208.677C314.279 205.222 304.743 205.222 296.216 208.677L300.406 211.119C306.274 208.943 312.727 208.943 318.595 211.119L322.806 208.677Z" fill="#2A313F"/>
<path d="M314.543 213.496C311.245 212.494 307.723 212.494 304.425 213.496L308.999 216.151H309.937L314.543 213.496Z" fill="#2A313F"/>
<path d="M304.841 219.051C304.82 218.874 304.82 218.695 304.841 218.518L300.256 215.852C299.85 216.224 299.526 216.676 299.304 217.18C299.082 217.684 298.967 218.229 298.967 218.779C298.967 219.33 299.082 219.874 299.304 220.378C299.526 220.882 299.85 221.334 300.256 221.706L304.841 219.051Z" fill="#2A313F"/>
<path d="M296.184 224.051C292.452 220.853 292.473 216.673 296.237 213.518L292.058 211.087C286.055 215.607 286.012 221.962 291.962 226.482L296.184 224.051Z" fill="#2A313F"/>
<path d="M322.732 213.496C326.463 216.695 326.431 220.874 322.668 224.03L326.858 226.461C332.86 221.94 332.892 215.586 326.943 211.065L322.732 213.496Z" fill="#2A313F"/>
<path d="M289.072 228.177C281.609 222.708 281.609 214.872 289.179 209.391L285.021 206.971C275.18 213.795 275.116 223.774 284.893 230.598L289.072 228.177Z" fill="#2A313F"/>
<path d="M325.61 230.555C316.132 234.916 302.602 234.916 293.166 230.555L288.987 232.965C300.715 238.647 317.955 238.647 329.768 232.965L325.61 230.555Z" fill="#2A313F"/>
<path d="M329.886 209.391C337.349 214.861 337.349 222.697 329.779 228.178L333.927 230.555C343.778 223.732 343.831 213.752 334.065 206.929L329.886 209.391Z" fill="#2A313F"/>
<path d="M318.499 226.45C312.651 228.615 306.222 228.615 300.374 226.45L296.109 228.892C304.63 232.357 314.168 232.357 322.689 228.892L318.499 226.45Z" fill="#2A313F"/>
<path d="M314.074 218.518C314.106 218.694 314.106 218.875 314.074 219.051L318.659 221.716C319.068 221.346 319.396 220.893 319.619 220.388C319.843 219.883 319.959 219.337 319.959 218.784C319.959 218.232 319.843 217.686 319.619 217.181C319.396 216.676 319.068 216.223 318.659 215.852L314.074 218.518Z" fill="#2A313F"/>
<g opacity="0.4">
<g opacity="0.4">
<path opacity="0.4" d="M137.163 516.622C135.18 511.291 142.142 503.753 152.718 499.83C163.295 495.906 173.477 497.1 175.46 502.431C177.443 507.762 170.481 515.3 159.904 519.234C149.328 523.168 139.157 521.996 137.163 516.643" fill="#D6D8E5"/>
</g>
</g>
<g opacity="0.4">
<g opacity="0.4">
<path opacity="0.4" d="M283.55 428.182C280.905 433.929 269.572 434.366 258.217 429.163C246.862 423.96 239.804 415.079 242.438 409.332C245.071 403.586 256.405 403.148 267.759 408.351C279.114 413.554 286.183 422.436 283.55 428.182Z" fill="#D6D8E5"/>
</g>
</g>
<path d="M156.685 378.605C155.714 377.038 148.294 376.014 145.852 382.305C144.925 384.693 145.063 390.834 144.285 394.619C143.507 398.404 141.694 400.622 141.033 403.735C140.372 406.848 141.449 412.051 148.933 412.968C156.418 413.885 162.186 411.262 163.956 408.874C165.726 406.486 165.768 401.411 163.956 398.681C162.143 395.952 160.757 393.745 160.757 390.152L156.685 378.605Z" fill="#3A2C6D"/>
<path d="M151.78 377.517C151.78 377.517 157.378 375.908 160.768 378.925C161.884 379.956 162.697 381.273 163.118 382.734C163.539 384.194 163.552 385.742 163.156 387.209C162.698 388.979 161.802 391.388 160.395 391.474C158.987 391.559 151.78 377.475 151.78 377.475" fill="#3A2C6D"/>
<path d="M149.648 392.764C149.648 392.764 150.01 399.001 149.904 399.459C149.797 399.918 147.451 400.355 146.801 400.899C146.151 401.443 150.192 407.765 152.249 408.703C154.307 409.641 160.661 407.243 161.109 404.076C161.514 401.165 159.286 398.894 158.422 398.105C157.84 398.066 157.256 398.066 156.674 398.105L156.482 395.088C153.699 394.193 149.648 392.806 149.648 392.806" fill="#FFCEA9"/>
<path d="M164.713 404.534C164.713 404.364 165.651 404.865 165.672 404.876C165.694 404.886 166.11 420.868 166.899 422.318C168.892 425.709 174.181 431.456 174.309 432.095C174.692 434.036 173.573 432.298 171.76 432.095C170.694 431.967 164.734 425.89 163.38 424.504L163.295 424.557C163.295 424.504 163.295 424.451 163.295 424.397L163.114 424.216C163.082 423.787 163.082 423.356 163.114 422.926C160.629 405.579 163.7 404.417 164.777 404.545" fill="#FFCEA9"/>
<path d="M148.795 400.078C147.046 400.355 145.042 401.283 144.765 402.21C144.044 405.665 144.216 409.247 145.266 412.616C146.78 416.625 147.803 419.173 148.678 420.9C148.678 420.9 156.247 424.099 162.357 420.367C162.357 420.367 162.773 416.103 162.805 413.768C168.445 408.853 163.625 402.786 158.849 398.073C158.274 398.026 157.696 398.026 157.122 398.073C157.122 398.073 161.386 403.106 158.422 405.974C152.079 404.055 150.821 401.208 148.827 400.067" fill="#F4F4F4"/>
<path d="M161.29 385.045C160.661 381.047 157.761 378.019 153.635 378.264C151.976 378.357 150.388 378.968 149.095 380.011C147.803 381.055 146.87 382.478 146.429 384.08C145.989 385.683 146.062 387.383 146.64 388.941C147.217 390.499 148.269 391.836 149.648 392.764C149.789 393.371 150.004 393.958 150.287 394.512C151.748 396.218 155.618 397.295 156.908 397.316C157.975 397.316 158.977 396.25 160.011 394.576C162.143 390.994 161.632 387.017 161.29 385.045Z" fill="#FFCEA9"/>
<path d="M152.356 378.328C149.466 378.903 147.078 379.714 146.3 382.592C145.756 384.544 145.052 388.286 145.724 389.853L146.14 390.994L149.648 392.796C149.648 392.796 151.279 391.431 150.778 387.465C150.791 386.923 150.961 386.397 151.268 385.951C151.487 385.575 151.649 385.169 151.748 384.746C152.164 383.666 152.976 382.785 154.019 382.283C156.631 380.823 160.416 382.091 160.992 382.614C160.262 381.019 159.004 379.724 157.431 378.947C155.859 378.171 154.066 377.959 152.356 378.349" fill="#3A2C6D"/>
<path d="M147.089 504.937C148.55 506.131 150.831 505.31 150.948 505.417C152.649 506.881 154.429 508.251 156.279 509.521C157.196 510.236 158.614 511.195 158.358 512.581C157.9 515.044 153.944 514.287 152.452 513.53C150.959 512.773 149.744 511.526 148.336 510.651C147.323 510.022 146.332 509.703 146.204 508.423C146.108 507.655 146.822 504.915 147.078 504.937" fill="#38226D"/>
<path d="M146.204 507.911C146.407 509.138 147.377 509.468 148.336 510.044C149.776 510.939 151.034 512.176 152.526 512.976C154.019 513.775 157.335 514.372 158.305 512.603C157.783 514.991 153.902 514.234 152.42 513.488C150.938 512.741 149.712 511.483 148.304 510.609C147.292 509.98 146.3 509.66 146.172 508.38C146.151 508.211 146.151 508.039 146.172 507.869" fill="#9C73FF"/>
<path d="M157.367 502.89C158.71 503.956 160.736 503.369 160.843 503.465C162.408 504.802 164.045 506.051 165.747 507.208C166.579 507.858 167.879 508.743 167.656 510.012C167.229 512.272 163.604 511.579 162.239 510.886C160.875 510.193 159.755 509.042 158.465 508.242C157.548 507.666 156.642 507.368 156.493 506.206C156.536 505.049 156.834 503.917 157.367 502.89Z" fill="#38226D"/>
<path d="M156.514 505.736C156.695 506.803 157.58 507.165 158.497 507.73C159.819 508.54 160.971 509.724 162.335 510.417C163.7 511.11 166.749 511.686 167.666 510.076C167.186 512.208 163.625 511.568 162.271 510.886C160.917 510.204 159.798 509.042 158.497 508.242C157.58 507.666 156.674 507.368 156.525 506.206C156.51 506.049 156.51 505.892 156.525 505.736" fill="#9C73FF"/>
<path d="M165.267 434.707C164.628 429.654 162.762 422.318 162.762 422.318C161.001 423.144 159.096 423.615 157.154 423.704C154.309 423.694 151.471 423.419 148.677 422.883C147.764 424.477 146.768 426.022 145.692 427.511C144.232 429.526 141.427 433.908 142.078 441.702C142.526 446.766 145.362 468.249 145.362 468.249C144.26 471.863 143.675 475.614 143.624 479.391C143.89 483.878 144.481 488.339 145.394 492.74L147.089 504.937C147.089 504.937 149.339 506.568 150.948 505.417L150.746 493.486C150.938 490.565 151.226 486.247 151.407 483.496C151.716 479.018 152.473 471.896 152.75 470.126C153.028 468.356 153.55 465.243 153.816 461.756C154.083 458.27 155.405 440.593 155.405 440.593L155.586 443.909C155.586 443.909 155.757 449.239 156.535 455.914C157.314 462.588 157.601 465.509 157.601 465.509C156.872 466.841 156.361 468.281 156.087 469.774C155.949 471.213 154.307 482.568 155.288 488.326L157.303 502.996C157.803 503.341 158.378 503.562 158.98 503.642C159.583 503.721 160.195 503.657 160.768 503.455L161.951 488.667C162.751 483.037 164.425 471.117 164.692 469.561C165.255 466.437 165.59 463.276 165.694 460.104C166.078 453.707 165.939 439.761 165.289 434.707" fill="#FFCEA9"/>
<path d="M148.678 420.911L144.328 429.654C144.328 429.654 137.685 439.377 144.562 464.358L143.272 472.066C143.272 472.066 156.301 480.425 165.011 472.066C165.011 472.066 168.039 448.984 166.429 438.332C165.537 432.196 164.179 426.137 162.367 420.207C162.367 420.207 160.235 422.564 149.253 421.007" fill="#FF7B7B"/>
<path d="M158.849 398.084C158.849 398.084 162.303 397.018 165.982 404.694L164.606 405.515C164.606 405.515 160.992 400.057 158.849 398.052" fill="#EDEDED"/>
<path d="M185.845 439.633L170.971 430.986L160.288 437.149L175.172 445.796L185.845 439.633Z" fill="#F4F4F4"/>
<path d="M172.859 431.615C173.791 431.714 174.692 432.009 175.503 432.479C175.792 432.74 176.106 432.973 176.441 433.172C176.59 433.247 176.729 433.343 176.889 433.407C177.117 433.482 177.32 433.618 177.475 433.801C177.643 434.042 177.736 434.328 177.742 434.622C177.793 434.976 177.793 435.335 177.742 435.688C177.614 436.221 177.059 436.189 176.761 435.816C176.621 435.626 176.536 435.401 176.516 435.166C176.51 434.939 176.45 434.717 176.341 434.518C176.231 434.32 176.076 434.15 175.886 434.025L172.336 431.818C172.382 431.737 172.452 431.673 172.536 431.635C172.62 431.597 172.715 431.586 172.805 431.605" fill="#FFCEA9"/>
<path d="M144.583 404.961C145.074 402.935 146.663 403.586 148.017 402.402C151.215 406.88 149.083 418.992 148.656 420.282L160.8 428.022L161.61 428.534C162.999 429.432 164.527 430.095 166.131 430.496C167.346 430.635 167.975 432.34 169.276 432.5C169.375 432.503 169.471 432.536 169.551 432.593C169.632 432.65 169.694 432.73 169.729 432.822C169.764 432.914 169.772 433.015 169.75 433.112C169.728 433.208 169.678 433.296 169.607 433.364C169.084 433.865 167.698 433.449 166.749 432.298C166.749 432.298 166.749 432.351 166.749 432.383C166.738 432.561 166.682 432.733 166.588 432.884C166.493 433.035 166.361 433.16 166.206 433.247C166.134 433.278 166.059 433.299 165.982 433.311C165.98 433.393 165.958 433.474 165.918 433.545C165.848 433.684 165.745 433.804 165.619 433.895C165.493 433.986 165.347 434.045 165.193 434.068C165.129 434.276 164.993 434.455 164.809 434.572C164.626 434.689 164.406 434.737 164.191 434.707C163.915 434.695 163.655 434.577 163.466 434.377C162.429 433.978 161.514 433.317 160.811 432.458C160.48 432.042 159.318 431.061 158.838 430.624C155.544 429.217 145.66 424.994 145.223 424.387C144.562 423.491 143.869 407.797 144.573 404.908" fill="#FFCEA9"/>
<path d="M143.475 410.409C143.475 410.409 147.366 412.158 150.586 410.526L150.117 404.449C150.117 404.449 150.117 401.176 147.153 400.856C144.189 400.536 142.75 404.268 143.475 410.452" fill="#EDEDED"/>
<path d="M214.194 132.381C215.869 135.372 217.903 138.147 220.25 140.644C220.911 141.401 225.954 139.482 224.899 138.938C223.843 138.394 220.538 133.789 218.886 130.718C217.498 127.049 216.32 123.304 215.356 119.502C214.29 115.749 213.427 110.237 212.67 107.635C212.474 106.673 212.005 105.788 211.318 105.086C210.632 104.385 209.757 103.896 208.799 103.68C206.987 103.264 205.814 103.754 206.145 105.951C206.72 109.81 209.738 124.79 214.194 132.36" fill="#FFCEA9"/>
<path d="M211.305 191.106C212.862 192.386 215.175 191.224 215.282 191.341C217.122 193.041 219.051 194.642 221.061 196.139C222.031 196.906 223.555 197.941 223.278 199.412C222.788 202.045 218.566 201.235 216.977 200.425C215.389 199.615 214.088 198.292 212.574 197.354C211.508 196.683 210.441 196.341 210.282 194.977C210.175 194.166 211.017 191.074 211.348 191.106" fill="#38226D"/>
<path d="M210.303 194.38C210.505 195.68 211.55 196.043 212.616 196.704C214.141 197.653 215.495 199.028 217.084 199.828C218.672 200.627 222.223 201.31 223.257 199.433C222.692 201.971 218.555 201.171 216.977 200.371C215.399 199.572 214.088 198.239 212.574 197.301C211.508 196.629 210.441 196.288 210.281 194.923C210.256 194.743 210.256 194.56 210.281 194.38" fill="#9C73FF"/>
<path d="M227.159 181.916C228.726 183.195 231.424 181.799 231.584 181.916C233.205 183.571 234.925 185.127 236.733 186.575C237.714 187.343 239.228 188.366 238.962 189.838C238.461 192.482 234.249 191.671 232.65 190.904C231.051 190.136 229.761 188.771 228.257 187.823C227.191 187.162 226.125 186.81 225.954 185.456C225.858 184.635 226.882 181.927 227.159 181.959" fill="#38226D"/>
<path d="M225.997 185.05C226.21 186.351 227.255 186.714 228.321 187.375C229.846 188.324 231.2 189.699 232.788 190.499C234.377 191.298 237.927 191.981 238.962 190.104C238.397 192.642 234.249 191.842 232.682 191.053C231.115 190.264 229.793 188.921 228.279 187.972C227.212 187.3 226.146 186.959 225.986 185.605C225.965 185.421 225.965 185.235 225.986 185.05" fill="#9C73FF"/>
<path d="M190.387 140.921C188.649 151.754 193.468 155.794 199.716 158.097C204.204 159.75 210.644 162.298 210.644 162.298C210.644 162.298 210.548 164.676 210.505 170.007C210.452 174.709 211.081 191.853 211.081 191.853C211.821 192.234 212.642 192.433 213.475 192.433C214.307 192.433 215.128 192.234 215.868 191.853C215.868 191.853 218.384 178.717 218.918 172.8C219.643 164.761 220.879 159.505 220.463 157.778C220.112 156.253 211.326 151.935 208.533 149.621L226.935 155.784C226.57 157.782 226.391 159.809 226.402 161.84C226.573 168.237 226.925 182.012 226.925 182.012C226.925 182.012 229.451 183.835 231.605 182.012C231.605 182.012 236.232 154.696 235.667 151.093C235.134 147.66 218.918 140.655 216.071 138.234C215.572 137.829 214.993 137.533 214.372 137.366C213.751 137.199 213.102 137.164 212.467 137.264L190.387 140.921Z" fill="#8C50FF"/>
<path d="M234.505 145.442L222.148 138.298C222.039 138.236 221.916 138.203 221.791 138.203C221.666 138.203 221.542 138.236 221.434 138.298L199.748 150.826L212.467 158.161L234.505 145.442Z" fill="#F4F4F4"/>
<path d="M211.891 155.539L210.942 156.082C210.868 156.082 210.879 156.21 210.942 156.253L211.849 156.775C211.895 156.799 211.946 156.811 211.998 156.811C212.05 156.811 212.101 156.799 212.147 156.775L213.086 156.232C213.16 156.232 213.149 156.114 213.086 156.061L212.19 155.539C212.144 155.515 212.093 155.503 212.041 155.503C211.989 155.503 211.938 155.515 211.891 155.539Z" fill="#3A2C6D"/>
<path d="M213.224 154.771L212.275 155.315C212.201 155.315 212.211 155.432 212.275 155.485L213.181 156.008C213.228 156.031 213.279 156.043 213.331 156.043C213.383 156.043 213.434 156.031 213.48 156.008L214.418 155.464C214.493 155.464 214.493 155.347 214.418 155.293L213.523 154.771C213.476 154.748 213.425 154.735 213.373 154.735C213.322 154.735 213.27 154.748 213.224 154.771Z" fill="#3A2C6D"/>
<path d="M214.567 153.993L213.629 154.536C213.555 154.536 213.565 154.654 213.629 154.707L214.525 155.229C214.571 155.253 214.622 155.265 214.674 155.265C214.726 155.265 214.777 155.253 214.823 155.229L215.772 154.686C215.847 154.686 215.836 154.558 215.772 154.515L214.866 153.993C214.82 153.969 214.769 153.957 214.717 153.957C214.665 153.957 214.614 153.969 214.567 153.993Z" fill="#3A2C6D"/>
<path d="M215.89 153.225L214.951 153.769C214.866 153.769 214.877 153.897 214.951 153.95L215.847 154.462C215.892 154.488 215.944 154.502 215.996 154.502C216.049 154.502 216.1 154.488 216.145 154.462L217.094 153.918C217.169 153.918 217.158 153.801 217.094 153.747L216.199 153.236C216.152 153.212 216.101 153.2 216.049 153.2C215.998 153.2 215.946 153.212 215.9 153.236" fill="#3A2C6D"/>
<path d="M217.222 152.457L216.284 153.001C216.209 153.001 216.209 153.129 216.284 153.172L217.18 153.694C217.226 153.718 217.277 153.73 217.329 153.73C217.381 153.73 217.432 153.718 217.478 153.694L218.427 153.15C218.502 153.15 218.491 153.033 218.427 152.98L217.521 152.457C217.475 152.434 217.423 152.422 217.372 152.422C217.32 152.422 217.269 152.434 217.222 152.457Z" fill="#3A2C6D"/>
<path d="M218.555 151.658L217.617 152.201C217.542 152.201 217.553 152.319 217.617 152.372L218.512 152.894C218.559 152.918 218.61 152.93 218.662 152.93C218.713 152.93 218.765 152.918 218.811 152.894L219.76 152.351C219.834 152.351 219.824 152.233 219.76 152.18L218.854 151.658C218.807 151.634 218.756 151.622 218.704 151.622C218.652 151.622 218.601 151.634 218.555 151.658Z" fill="#3A2C6D"/>
<path d="M219.888 150.922L218.949 151.466C218.875 151.466 218.886 151.583 218.949 151.636L219.845 152.159C219.894 152.18 219.947 152.19 220 152.19C220.053 152.19 220.105 152.18 220.154 152.159L221.092 151.615C221.167 151.615 221.156 151.487 221.092 151.444L220.186 150.922C220.141 150.896 220.089 150.882 220.037 150.882C219.985 150.882 219.933 150.896 219.888 150.922Z" fill="#3A2C6D"/>
<path d="M221.22 150.144L220.282 150.687C220.208 150.687 220.218 150.815 220.282 150.869L221.178 151.38C221.225 151.407 221.278 151.42 221.332 151.42C221.386 151.42 221.44 151.407 221.487 151.38L222.425 150.837C222.5 150.837 222.489 150.719 222.425 150.666L221.53 150.154C221.482 150.131 221.429 150.119 221.375 150.119C221.321 150.119 221.269 150.131 221.22 150.154" fill="#3A2C6D"/>
<path d="M222.564 149.376L221.615 149.92C221.54 149.92 221.551 150.048 221.615 150.09L222.521 150.613C222.568 150.636 222.619 150.648 222.671 150.648C222.722 150.648 222.773 150.636 222.82 150.613L223.758 150.069C223.833 150.069 223.822 149.952 223.758 149.899L222.862 149.376C222.816 149.353 222.765 149.34 222.713 149.34C222.661 149.34 222.61 149.353 222.564 149.376Z" fill="#3A2C6D"/>
<path d="M223.897 148.608L222.948 149.152C222.873 149.152 222.884 149.269 222.948 149.323L223.854 149.845C223.9 149.869 223.951 149.881 224.003 149.881C224.055 149.881 224.106 149.869 224.152 149.845L225.091 149.301C225.165 149.301 225.165 149.184 225.091 149.131L224.195 148.608C224.149 148.585 224.098 148.573 224.046 148.573C223.994 148.573 223.943 148.585 223.897 148.608Z" fill="#3A2C6D"/>
<path d="M225.229 147.841L224.28 148.385C224.206 148.385 224.217 148.502 224.28 148.555L225.176 149.078C225.223 149.099 225.274 149.11 225.325 149.11C225.377 149.11 225.428 149.099 225.475 149.078L226.413 148.534C226.498 148.534 226.487 148.406 226.413 148.363L225.517 147.841C225.472 147.815 225.42 147.801 225.368 147.801C225.316 147.801 225.264 147.815 225.219 147.841" fill="#3A2C6D"/>
<path d="M226.562 147.062L225.624 147.606C225.538 147.606 225.549 147.734 225.624 147.787L226.519 148.299C226.566 148.323 226.617 148.335 226.669 148.335C226.72 148.335 226.772 148.323 226.818 148.299L227.767 147.755C227.841 147.755 227.831 147.628 227.767 147.574L226.871 147.062C226.825 147.039 226.774 147.027 226.722 147.027C226.67 147.027 226.619 147.039 226.573 147.062" fill="#3A2C6D"/>
<path d="M227.895 146.327L226.957 146.871C226.882 146.871 226.882 146.998 226.957 147.041L227.852 147.564C227.898 147.587 227.95 147.599 228.001 147.599C228.053 147.599 228.104 147.587 228.151 147.564L229.1 147.02C229.174 147.02 229.164 146.903 229.1 146.849L228.193 146.327C228.147 146.303 228.096 146.291 228.044 146.291C227.992 146.291 227.941 146.303 227.895 146.327Z" fill="#3A2C6D"/>
<path d="M229.867 145.154L228.289 146.071C228.215 146.071 228.215 146.188 228.289 146.242L229.185 146.764C229.231 146.787 229.282 146.8 229.334 146.8C229.386 146.8 229.437 146.787 229.483 146.764L231.072 145.847C231.147 145.847 231.136 145.73 231.072 145.676L230.176 145.154C230.128 145.13 230.075 145.118 230.022 145.118C229.968 145.118 229.915 145.13 229.867 145.154Z" fill="#3A2C6D"/>
<path d="M212.574 153.651L211.635 154.195C211.55 154.195 211.561 154.312 211.635 154.366L212.531 154.888C212.577 154.912 212.628 154.924 212.68 154.924C212.732 154.924 212.783 154.912 212.83 154.888L213.779 154.344C213.853 154.344 213.842 154.227 213.779 154.174L212.883 153.651C212.837 153.628 212.786 153.616 212.734 153.616C212.682 153.616 212.631 153.628 212.584 153.651" fill="#3A2C6D"/>
<path d="M213.906 152.873L212.968 153.417C212.894 153.417 212.904 153.545 212.968 153.598L213.864 154.11C213.91 154.133 213.961 154.146 214.013 154.146C214.065 154.146 214.116 154.133 214.162 154.11L215.111 153.566C215.186 153.566 215.175 153.438 215.111 153.385L214.205 152.873C214.159 152.85 214.108 152.838 214.056 152.838C214.004 152.838 213.953 152.85 213.906 152.873Z" fill="#3A2C6D"/>
<path d="M215.25 152.105L214.301 152.649C214.226 152.649 214.237 152.777 214.301 152.82L215.207 153.342C215.253 153.366 215.305 153.378 215.356 153.378C215.408 153.378 215.459 153.366 215.506 153.342L216.444 152.799C216.519 152.799 216.508 152.681 216.444 152.628L215.548 152.105C215.502 152.082 215.451 152.07 215.399 152.07C215.347 152.07 215.296 152.082 215.25 152.105Z" fill="#3A2C6D"/>
<path d="M216.572 151.338L215.634 151.882C215.548 151.882 215.559 151.999 215.634 152.052L216.529 152.575C216.576 152.598 216.627 152.61 216.679 152.61C216.73 152.61 216.781 152.598 216.828 152.575L217.766 152.031C217.851 152.031 217.841 151.903 217.766 151.86L216.87 151.338C216.824 151.314 216.773 151.302 216.721 151.302C216.669 151.302 216.618 151.314 216.572 151.338Z" fill="#3A2C6D"/>
<path d="M217.905 150.592L216.966 151.135C216.892 151.135 216.902 151.263 216.966 151.306L217.862 151.828C217.908 151.852 217.959 151.864 218.011 151.864C218.063 151.864 218.114 151.852 218.161 151.828L219.109 151.285C219.184 151.285 219.173 151.167 219.109 151.114L218.203 150.592C218.157 150.568 218.106 150.556 218.054 150.556C218.002 150.556 217.951 150.568 217.905 150.592Z" fill="#3A2C6D"/>
<path d="M219.248 149.803L218.299 150.346C218.224 150.346 218.235 150.464 218.299 150.517L219.205 151.039C219.252 151.061 219.303 151.071 219.355 151.071C219.406 151.071 219.457 151.061 219.504 151.039L220.442 150.496C220.517 150.496 220.506 150.368 220.442 150.325L219.547 149.803C219.501 149.776 219.45 149.763 219.397 149.763C219.345 149.763 219.293 149.776 219.248 149.803Z" fill="#3A2C6D"/>
<path d="M220.581 149.024L219.643 149.568C219.557 149.568 219.568 149.696 219.643 149.749L220.538 150.261C220.584 150.287 220.635 150.301 220.687 150.301C220.74 150.301 220.791 150.287 220.837 150.261L221.775 149.717C221.86 149.717 221.85 149.6 221.775 149.547L220.879 149.024C220.832 149.003 220.782 148.992 220.73 148.992C220.679 148.992 220.628 149.003 220.581 149.024Z" fill="#3A2C6D"/>
<path d="M221.903 148.257L220.965 148.8C220.89 148.8 220.901 148.918 220.965 148.971L221.903 149.525C221.949 149.549 222 149.561 222.052 149.561C222.104 149.561 222.155 149.549 222.201 149.525L223.15 148.982C223.225 148.982 223.214 148.864 223.15 148.811L222.244 148.289C222.198 148.265 222.147 148.253 222.095 148.253C222.043 148.253 221.992 148.265 221.946 148.289" fill="#3A2C6D"/>
<path d="M223.257 147.489L222.308 148.033C222.233 148.033 222.244 148.15 222.308 148.203L223.214 148.726C223.261 148.747 223.312 148.758 223.363 148.758C223.415 148.758 223.466 148.747 223.513 148.726L224.451 148.182C224.526 148.182 224.515 148.054 224.451 148.001L223.555 147.489C223.51 147.463 223.459 147.449 223.406 147.449C223.354 147.449 223.302 147.463 223.257 147.489Z" fill="#3A2C6D"/>
<path d="M224.59 146.711L223.651 147.254C223.566 147.254 223.577 147.382 223.651 147.425L224.547 147.947C224.593 147.971 224.644 147.983 224.696 147.983C224.748 147.983 224.799 147.971 224.845 147.947L225.794 147.404C225.869 147.404 225.858 147.286 225.794 147.233L224.899 146.711C224.853 146.687 224.801 146.675 224.75 146.675C224.698 146.675 224.647 146.687 224.6 146.711" fill="#3A2C6D"/>
<path d="M225.922 145.943L224.984 146.487C224.91 146.487 224.92 146.604 224.984 146.657L225.88 147.18C225.926 147.203 225.977 147.215 226.029 147.215C226.081 147.215 226.132 147.203 226.178 147.18L227.127 146.636C227.202 146.636 227.191 146.508 227.127 146.465L226.221 145.943C226.175 145.92 226.123 145.907 226.072 145.907C226.02 145.907 225.969 145.92 225.922 145.943Z" fill="#3A2C6D"/>
<path d="M227.234 145.165L226.285 145.708C226.21 145.708 226.221 145.836 226.285 145.89L227.191 146.401C227.237 146.425 227.288 146.437 227.34 146.437C227.392 146.437 227.443 146.425 227.49 146.401L228.428 145.858C228.502 145.858 228.492 145.73 228.428 145.676L227.532 145.165C227.486 145.141 227.435 145.129 227.383 145.129C227.331 145.129 227.28 145.141 227.234 145.165Z" fill="#3A2C6D"/>
<path d="M211.241 154.419L209.652 155.336C209.578 155.336 209.588 155.464 209.652 155.507L210.548 156.029C210.594 156.052 210.645 156.065 210.697 156.065C210.749 156.065 210.8 156.052 210.847 156.029L212.435 155.112C212.51 155.112 212.499 154.995 212.435 154.942L211.54 154.419C211.493 154.398 211.442 154.387 211.39 154.387C211.339 154.387 211.288 154.398 211.241 154.419Z" fill="#3A2C6D"/>
<path d="M229.803 145.111L228.865 145.655C228.822 145.676 228.774 145.687 228.726 145.687C228.678 145.687 228.631 145.676 228.588 145.655L227.639 145.101C227.554 145.101 227.554 144.983 227.639 144.941H227.714C227.727 144.933 227.738 144.923 227.746 144.909C227.753 144.896 227.758 144.881 227.758 144.866C227.758 144.851 227.753 144.836 227.746 144.823C227.738 144.81 227.727 144.799 227.714 144.791L226.701 144.205C226.684 144.199 226.67 144.188 226.66 144.174C226.65 144.16 226.645 144.143 226.645 144.125C226.645 144.108 226.65 144.091 226.66 144.076C226.67 144.062 226.684 144.051 226.701 144.045L227.298 143.704C227.343 143.683 227.392 143.672 227.442 143.672C227.491 143.672 227.54 143.683 227.586 143.704L228.524 144.248L228.716 144.354L228.854 144.44L228.993 144.525L229.803 144.983C229.889 144.983 229.889 145.101 229.803 145.154" fill="#3A2C6D"/>
<path d="M206.72 152.553L205.782 153.097C205.697 153.097 205.708 153.214 205.782 153.268L206.678 153.79C206.725 153.811 206.776 153.822 206.827 153.822C206.879 153.822 206.929 153.811 206.976 153.79L207.925 153.246C208 153.246 207.989 153.118 207.925 153.076L207.03 152.553C206.984 152.527 206.933 152.513 206.88 152.513C206.828 152.513 206.776 152.527 206.731 152.553" fill="#3A2C6D"/>
<path d="M208.042 151.786L207.094 152.329C207.019 152.329 207.03 152.447 207.094 152.5L208 153.022C208.047 153.044 208.098 153.055 208.149 153.055C208.201 153.055 208.251 153.044 208.298 153.022L209.237 152.479C209.311 152.479 209.311 152.351 209.237 152.308L208.341 151.786C208.296 151.759 208.244 151.746 208.192 151.746C208.139 151.746 208.088 151.759 208.042 151.786Z" fill="#3A2C6D"/>
<path d="M209.386 151.018L208.437 151.562C208.362 151.562 208.373 151.679 208.437 151.732L209.333 152.255C209.381 152.276 209.434 152.286 209.487 152.286C209.54 152.286 209.593 152.276 209.642 152.255L210.58 151.711C210.655 151.711 210.644 151.583 210.58 151.54L209.684 151.018C209.639 150.992 209.588 150.978 209.535 150.978C209.483 150.978 209.431 150.992 209.386 151.018Z" fill="#3A2C6D"/>
<path d="M220.709 144.472L219.77 145.015C219.685 145.015 219.696 145.143 219.77 145.186L220.666 145.708C220.712 145.732 220.763 145.744 220.815 145.744C220.867 145.744 220.918 145.732 220.965 145.708L221.914 145.165C221.988 145.165 221.977 145.047 221.914 144.994L221.007 144.472C220.961 144.448 220.91 144.436 220.858 144.436C220.806 144.436 220.755 144.448 220.709 144.472Z" fill="#3A2C6D"/>
<path d="M222.041 143.704L221.093 144.248C221.018 144.248 221.029 144.376 221.093 144.418L221.999 144.941C222.045 144.964 222.096 144.976 222.148 144.976C222.2 144.976 222.251 144.964 222.297 144.941L223.236 144.397C223.321 144.397 223.31 144.28 223.236 144.226L222.34 143.704C222.294 143.681 222.243 143.668 222.191 143.668C222.139 143.668 222.088 143.681 222.041 143.704Z" fill="#3A2C6D"/>
<path d="M223.374 142.936L222.425 143.48C222.351 143.48 222.361 143.608 222.425 143.651L223.332 144.173C223.378 144.197 223.429 144.209 223.481 144.209C223.533 144.209 223.584 144.197 223.63 144.173L224.568 143.629C224.643 143.629 224.632 143.512 224.568 143.459L223.673 142.936C223.626 142.913 223.575 142.901 223.523 142.901C223.472 142.901 223.42 142.913 223.374 142.936Z" fill="#3A2C6D"/>
<path d="M224.696 142.169L223.758 142.712C223.683 142.712 223.694 142.84 223.758 142.883L224.654 143.405C224.702 143.429 224.755 143.441 224.808 143.441C224.862 143.441 224.915 143.429 224.963 143.405L225.901 142.862C225.976 142.862 225.965 142.744 225.901 142.691L224.995 142.169C224.948 142.145 224.897 142.133 224.845 142.133C224.794 142.133 224.742 142.145 224.696 142.169Z" fill="#3A2C6D"/>
<path d="M211.049 150.048L209.77 150.794C209.695 150.794 209.706 150.911 209.77 150.965L210.665 151.487C210.712 151.508 210.763 151.519 210.815 151.519C210.866 151.519 210.917 151.508 210.964 151.487L212.254 150.741C212.329 150.741 212.318 150.624 212.254 150.57L211.358 150.048C211.31 150.024 211.257 150.012 211.204 150.012C211.15 150.012 211.097 150.024 211.049 150.048Z" fill="#3A2C6D"/>
<path d="M219.376 145.261L218.097 146.007C218.022 146.007 218.022 146.124 218.097 146.178L218.992 146.7C219.038 146.723 219.09 146.736 219.141 146.736C219.193 146.736 219.244 146.723 219.291 146.7L220.581 145.954C220.655 145.954 220.645 145.836 220.581 145.783L219.674 145.261C219.628 145.239 219.577 145.228 219.525 145.228C219.474 145.228 219.423 145.239 219.376 145.261Z" fill="#3A2C6D"/>
<path d="M217.702 146.21L211.444 149.824C211.369 149.824 211.38 149.941 211.444 149.994L212.339 150.517C212.386 150.54 212.437 150.553 212.489 150.553C212.54 150.553 212.592 150.54 212.638 150.517L218.907 146.903C218.982 146.903 218.971 146.775 218.907 146.732L218.011 146.21C217.963 146.186 217.91 146.174 217.857 146.174C217.803 146.174 217.75 146.186 217.702 146.21Z" fill="#3A2C6D"/>
<path d="M211.646 152.724L210.697 153.268C210.623 153.268 210.633 153.396 210.697 153.438L211.603 153.961C211.649 153.987 211.7 154.001 211.753 154.001C211.805 154.001 211.857 153.987 211.902 153.961L212.84 153.417C212.915 153.417 212.915 153.3 212.84 153.246L211.945 152.724C211.898 152.703 211.847 152.692 211.795 152.692C211.744 152.692 211.693 152.703 211.646 152.724Z" fill="#3A2C6D"/>
<path d="M212.979 151.924L212.03 152.468C211.955 152.468 211.966 152.596 212.03 152.639L212.936 153.161C212.983 153.184 213.034 153.197 213.086 153.197C213.137 153.197 213.189 153.184 213.235 153.161L214.173 152.617C214.248 152.617 214.248 152.5 214.173 152.447L213.277 151.924C213.231 151.901 213.18 151.889 213.128 151.889C213.076 151.889 213.025 151.901 212.979 151.924Z" fill="#3A2C6D"/>
<path d="M214.312 151.157L213.363 151.7C213.288 151.7 213.299 151.818 213.363 151.871L214.269 152.393C214.315 152.417 214.366 152.429 214.418 152.429C214.47 152.429 214.521 152.417 214.567 152.393L215.506 151.85C215.58 151.85 215.58 151.732 215.506 151.679L214.61 151.157C214.564 151.133 214.513 151.121 214.461 151.121C214.409 151.121 214.358 151.133 214.312 151.157Z" fill="#3A2C6D"/>
<path d="M215.644 150.389L214.695 150.933C214.621 150.933 214.631 151.05 214.695 151.103L215.602 151.626C215.648 151.649 215.699 151.661 215.751 151.661C215.803 151.661 215.854 151.649 215.9 151.626L216.838 151.082C216.913 151.082 216.913 150.954 216.838 150.911L215.943 150.389C215.897 150.366 215.845 150.353 215.794 150.353C215.742 150.353 215.691 150.366 215.644 150.389Z" fill="#3A2C6D"/>
<path d="M216.977 149.621L216.028 150.165C215.954 150.165 215.964 150.282 216.028 150.336L216.934 150.858C216.981 150.879 217.032 150.89 217.084 150.89C217.135 150.89 217.186 150.879 217.233 150.858L218.171 150.314C218.246 150.314 218.235 150.186 218.171 150.133L217.276 149.621C217.23 149.595 217.179 149.581 217.126 149.581C217.074 149.581 217.022 149.595 216.977 149.621Z" fill="#3A2C6D"/>
<path d="M218.31 148.843L217.361 149.387C217.286 149.387 217.297 149.515 217.361 149.568L218.267 150.08C218.313 150.103 218.365 150.115 218.416 150.115C218.468 150.115 218.519 150.103 218.566 150.08L219.504 149.536C219.579 149.536 219.568 149.408 219.504 149.355L218.608 148.843C218.562 148.82 218.511 148.807 218.459 148.807C218.407 148.807 218.356 148.82 218.31 148.843Z" fill="#3A2C6D"/>
<path d="M219.643 148.075L218.694 148.619C218.619 148.619 218.63 148.747 218.694 148.79L219.6 149.312C219.645 149.338 219.697 149.352 219.749 149.352C219.802 149.352 219.853 149.338 219.898 149.312L220.837 148.768C220.911 148.768 220.901 148.651 220.837 148.598L219.941 148.075C219.894 148.054 219.843 148.043 219.792 148.043C219.74 148.043 219.689 148.054 219.643 148.075Z" fill="#3A2C6D"/>
<path d="M220.975 147.308L220.026 147.851C219.952 147.851 219.962 147.979 220.026 148.022L220.933 148.544C220.979 148.568 221.03 148.58 221.082 148.58C221.134 148.58 221.185 148.568 221.231 148.544L222.169 148.001C222.244 148.001 222.233 147.883 222.169 147.83L221.274 147.308C221.228 147.284 221.176 147.272 221.125 147.272C221.073 147.272 221.022 147.284 220.975 147.308Z" fill="#3A2C6D"/>
<path d="M222.308 146.54L221.359 147.084C221.284 147.084 221.295 147.201 221.359 147.254L222.265 147.777C222.312 147.8 222.363 147.812 222.415 147.812C222.466 147.812 222.518 147.8 222.564 147.777L223.502 147.233C223.577 147.233 223.566 147.116 223.502 147.062L222.606 146.54C222.56 146.517 222.509 146.504 222.457 146.504C222.405 146.504 222.354 146.517 222.308 146.54Z" fill="#3A2C6D"/>
<path d="M223.63 145.772L222.692 146.316C222.617 146.316 222.628 146.433 222.692 146.487L223.598 147.009C223.644 147.033 223.695 147.045 223.747 147.045C223.799 147.045 223.85 147.033 223.897 147.009L224.835 146.465C224.909 146.465 224.899 146.337 224.835 146.295L223.939 145.772C223.891 145.749 223.838 145.737 223.785 145.737C223.731 145.737 223.678 145.749 223.63 145.772Z" fill="#3A2C6D"/>
<path d="M224.963 145.005L224.025 145.548C223.95 145.548 223.961 145.666 224.025 145.719L224.931 146.241C224.978 146.263 225.029 146.274 225.08 146.274C225.132 146.274 225.182 146.263 225.229 146.241L226.168 145.698C226.242 145.698 226.232 145.57 226.168 145.516L225.272 145.005C225.225 144.979 225.171 144.965 225.117 144.965C225.063 144.965 225.01 144.979 224.963 145.005Z" fill="#3A2C6D"/>
<path d="M226.295 144.194L225.357 144.738C225.283 144.738 225.293 144.866 225.357 144.919L226.253 145.431C226.301 145.455 226.354 145.467 226.407 145.467C226.461 145.467 226.514 145.455 226.562 145.431L227.5 144.887C227.575 144.887 227.564 144.76 227.5 144.706L226.605 144.194C226.557 144.171 226.504 144.159 226.45 144.159C226.396 144.159 226.344 144.171 226.295 144.194Z" fill="#3A2C6D"/>
<path d="M210.313 153.46L208.362 154.59C208.288 154.59 208.298 154.707 208.362 154.76L209.258 155.283C209.304 155.306 209.355 155.318 209.407 155.318C209.459 155.318 209.51 155.306 209.556 155.283L211.508 154.153C211.593 154.153 211.582 154.035 211.508 153.982L210.612 153.47C210.566 153.447 210.515 153.435 210.463 153.435C210.411 153.435 210.36 153.447 210.313 153.47" fill="#3A2C6D"/>
<path d="M209.684 152.329L208.746 152.873C208.672 152.873 208.682 152.99 208.746 153.044L209.642 153.566C209.688 153.59 209.739 153.602 209.791 153.602C209.843 153.602 209.894 153.59 209.94 153.566L210.889 153.022C210.964 153.022 210.953 152.905 210.889 152.852L209.983 152.329C209.937 152.306 209.886 152.294 209.834 152.294C209.782 152.294 209.731 152.306 209.684 152.329Z" fill="#3A2C6D"/>
<path d="M211.017 151.562L210.079 152.105C210.004 152.105 210.015 152.223 210.079 152.276L210.974 152.799C211.021 152.822 211.072 152.834 211.124 152.834C211.176 152.834 211.227 152.822 211.273 152.799L212.222 152.255C212.297 152.255 212.286 152.127 212.222 152.084L211.316 151.562C211.269 151.538 211.218 151.526 211.166 151.526C211.115 151.526 211.063 151.538 211.017 151.562Z" fill="#3A2C6D"/>
<path d="M212.307 150.794L211.369 151.338C211.294 151.338 211.305 151.455 211.369 151.508L212.265 152.031C212.313 152.054 212.366 152.067 212.419 152.067C212.473 152.067 212.526 152.054 212.574 152.031L213.512 151.487C213.587 151.487 213.576 151.359 213.512 151.317L212.606 150.794C212.559 150.771 212.508 150.758 212.456 150.758C212.405 150.758 212.353 150.771 212.307 150.794Z" fill="#3A2C6D"/>
<path d="M213.683 150.026L212.744 150.57C212.67 150.57 212.68 150.687 212.744 150.741L213.64 151.263C213.687 151.284 213.738 151.295 213.789 151.295C213.841 151.295 213.892 151.284 213.938 151.263L214.887 150.719C214.962 150.719 214.951 150.592 214.887 150.538L213.981 150.026C213.936 150 213.884 149.986 213.832 149.986C213.779 149.986 213.728 150 213.683 150.026Z" fill="#3A2C6D"/>
<path d="M215.015 149.248L214.077 149.792C214.002 149.792 214.013 149.92 214.077 149.973L214.973 150.485C215.019 150.508 215.07 150.521 215.122 150.521C215.174 150.521 215.225 150.508 215.271 150.485L216.22 149.941C216.295 149.941 216.284 149.813 216.22 149.76L215.314 149.248C215.268 149.225 215.216 149.213 215.165 149.213C215.113 149.213 215.062 149.225 215.015 149.248Z" fill="#3A2C6D"/>
<path d="M216.348 148.459L215.41 149.003C215.335 149.003 215.346 149.131 215.41 149.184L216.305 149.696C216.351 149.722 216.402 149.736 216.455 149.736C216.507 149.736 216.559 149.722 216.604 149.696L217.553 149.152C217.627 149.152 217.617 149.035 217.553 148.982L216.647 148.459C216.6 148.438 216.549 148.427 216.497 148.427C216.446 148.427 216.395 148.438 216.348 148.459Z" fill="#3A2C6D"/>
<path d="M217.638 147.713L216.7 148.257C216.625 148.257 216.636 148.385 216.7 148.427L217.595 148.95C217.642 148.973 217.693 148.985 217.745 148.985C217.797 148.985 217.848 148.973 217.894 148.95L218.843 148.406C218.917 148.406 218.907 148.289 218.843 148.235L217.937 147.713C217.89 147.689 217.839 147.677 217.787 147.677C217.735 147.677 217.684 147.689 217.638 147.713Z" fill="#3A2C6D"/>
<path d="M219.014 146.945L218.075 147.489C217.99 147.489 218.011 147.606 218.075 147.66L218.971 148.182C219.017 148.205 219.068 148.218 219.12 148.218C219.172 148.218 219.223 148.205 219.269 148.182L220.218 147.638C220.293 147.638 220.282 147.521 220.218 147.468L219.312 146.945C219.266 146.922 219.215 146.91 219.163 146.91C219.111 146.91 219.06 146.922 219.014 146.945Z" fill="#3A2C6D"/>
<path d="M220.346 146.178L219.408 146.721C219.323 146.721 219.333 146.839 219.408 146.892L220.304 147.414C220.35 147.438 220.401 147.45 220.453 147.45C220.505 147.45 220.556 147.438 220.602 147.414L221.551 146.871C221.626 146.871 221.615 146.743 221.551 146.7L220.645 146.178C220.599 146.154 220.547 146.142 220.495 146.142C220.444 146.142 220.393 146.154 220.346 146.178Z" fill="#3A2C6D"/>
<path d="M221.679 145.41L220.741 145.954C220.655 145.954 220.666 146.071 220.741 146.124L221.636 146.647C221.683 146.668 221.734 146.679 221.786 146.679C221.837 146.679 221.888 146.668 221.935 146.647L222.884 146.103C222.958 146.103 222.948 145.975 222.884 145.932L221.977 145.41C221.932 145.384 221.881 145.37 221.828 145.37C221.776 145.37 221.724 145.384 221.679 145.41Z" fill="#3A2C6D"/>
<path d="M222.969 144.642L222.031 145.186C221.945 145.186 221.956 145.303 222.031 145.357L222.926 145.879C222.973 145.9 223.024 145.911 223.076 145.911C223.127 145.911 223.178 145.9 223.225 145.879L224.174 145.335C224.248 145.335 224.238 145.207 224.174 145.154L223.268 144.642C223.222 144.616 223.171 144.602 223.118 144.602C223.066 144.602 223.014 144.616 222.969 144.642Z" fill="#3A2C6D"/>
<path d="M225.997 142.915L223.406 144.408C223.321 144.408 223.332 144.536 223.406 144.589L224.302 145.101C224.347 145.127 224.399 145.141 224.451 145.141C224.503 145.141 224.555 145.127 224.6 145.101L227.191 143.608C227.266 143.608 227.255 143.491 227.191 143.437L226.296 142.915C226.249 142.892 226.198 142.879 226.146 142.879C226.094 142.879 226.043 142.892 225.997 142.915Z" fill="#3A2C6D"/>
<path d="M208.352 153.097L207.072 153.843C206.998 153.843 207.008 153.961 207.072 154.014L207.968 154.536C208.015 154.558 208.066 154.569 208.117 154.569C208.169 154.569 208.219 154.558 208.266 154.536L209.556 153.79C209.631 153.79 209.62 153.673 209.556 153.619L208.65 153.097C208.604 153.074 208.553 153.061 208.501 153.061C208.449 153.061 208.398 153.074 208.352 153.097Z" fill="#3A2C6D"/>
<path d="M231.211 145.932L212.307 156.85C212.233 156.85 212.243 156.978 212.307 157.031L212.755 157.287C212.803 157.311 212.856 157.323 212.91 157.323C212.963 157.323 213.016 157.311 213.064 157.287L231.978 146.327C232.064 146.327 232.053 146.21 231.978 146.156L231.53 145.9C231.485 145.874 231.434 145.86 231.381 145.86C231.329 145.86 231.277 145.874 231.232 145.9" fill="#3A2C6D"/>
<path d="M209.077 146.412L209.205 146.487L212.467 148.374L218.278 145.015L218.406 144.951L215.005 142.99L209.077 146.412Z" fill="#BFBFBF"/>
<path d="M209.205 146.487L212.467 148.374L218.278 145.015L215.005 143.128L209.205 146.487Z" fill="#E5E5E5"/>
<path d="M199.748 150.826V151.114C199.741 151.329 199.793 151.542 199.898 151.73C200.003 151.918 200.158 152.074 200.345 152.18L211.87 158.833C212.05 158.938 212.254 158.993 212.462 158.993C212.67 158.993 212.874 158.938 213.054 158.833L233.908 146.796C234.095 146.689 234.25 146.534 234.355 146.346C234.46 146.158 234.512 145.945 234.505 145.73V145.442L212.467 158.161L199.748 150.826Z" fill="#E5E5E5"/>
<path d="M212.798 158.343C212.995 158.417 213.206 158.447 213.416 158.431C213.626 158.414 213.83 158.351 214.013 158.247L234.772 146.263C234.953 146.159 235.109 146.016 235.229 145.845C235.349 145.673 235.429 145.477 235.465 145.271L237.736 131.72C237.741 131.642 237.741 131.564 237.736 131.486C237.735 131.11 237.586 130.749 237.32 130.483L215.74 142.947C215.608 143.024 215.494 143.129 215.405 143.254C215.317 143.379 215.257 143.522 215.229 143.672L212.798 158.343Z" fill="#F4F4F4"/>
<path d="M212.467 158.161L212.606 158.247L212.798 158.343L215.25 143.672C215.278 143.522 215.338 143.379 215.427 143.254C215.515 143.129 215.629 143.024 215.762 142.947L237.341 130.483C237.257 130.397 237.16 130.325 237.053 130.27L215.431 142.744C215.298 142.823 215.183 142.929 215.094 143.056C215.006 143.183 214.946 143.328 214.919 143.48L212.467 158.161Z" fill="#E5E5E5"/>
<path d="M196.794 100.161C196.794 100.161 197.061 105.321 196.944 105.78C196.826 106.238 194.577 107.742 193.916 108.285C193.255 108.829 197.487 112.987 199.534 113.936C201.581 114.885 208.064 112.39 208.213 109.202C208.362 106.014 207.094 103.328 206.081 103.178C205.068 103.029 196.773 100.161 196.773 100.161" fill="#FFCEA9"/>
<path d="M196.219 106.665C196.219 106.665 199.961 112.241 205.174 112.763C206.827 111.143 206.976 105.364 204.695 103.52C204.695 103.52 206.827 101.835 208.224 102.166C209.756 103.097 210.894 104.557 211.422 106.27C212.753 110.107 213.378 114.152 213.267 118.212C213.181 123.681 213.267 137.52 213.267 137.52C212.958 139.154 212.307 140.705 211.357 142.07C210.407 143.435 209.18 144.584 207.755 145.442C203.99 147.558 199.562 148.168 195.366 147.148C192.721 146.529 191.741 145.015 190.834 143.128C191.069 139.301 192.583 131.4 191.9 126.581C191.218 121.762 190.248 118.158 189.981 114.256C189.715 110.354 190.493 110.439 192.444 109.042C193.619 108.163 194.856 107.369 196.144 106.665" fill="#F4F4F4"/>
<path d="M202.221 151.114C201.28 150.492 200.3 149.93 199.289 149.429C198.341 149.134 197.478 148.615 196.773 147.915C195.856 147.009 194.353 143.651 193.287 140.303C192.221 136.563 191.803 132.669 192.05 128.788C192.508 124.129 194.182 117.625 194.609 114.928C195.035 112.23 194.171 111.185 192.924 110.194C191.463 109.042 189.448 109.554 188.371 113.296C186.966 118.513 186.147 123.87 185.93 129.268C185.899 133.253 186.526 137.215 187.785 140.996C188.894 144.242 190.398 147.339 192.263 150.218C192.775 151.082 192.935 151.85 193.724 153.619C194.479 155.391 195.654 156.954 197.146 158.172C198.458 159.11 199.076 159.238 199.385 159.068C199.694 158.897 199.694 158.417 199.14 157.916C198.211 157.192 197.421 156.308 196.805 155.304C196.805 155.304 197.956 156.456 198.703 157.074C199.364 157.638 200.099 158.108 200.888 158.471C201.656 158.812 202.722 158.161 202.179 157.65C201.635 157.138 201.112 156.871 199.982 155.933C199.401 155.432 198.882 154.863 198.436 154.238C199.202 154.83 200.015 155.358 200.867 155.816C201.533 156.225 202.303 156.433 203.085 156.413C203.49 156.413 203.98 155.837 203.223 155.283C202.178 154.74 201.2 154.074 200.313 153.3C199.481 152.468 199.001 151.764 199.247 151.754C199.492 151.743 199.94 152.255 200.92 152.564C201.901 152.873 202.957 152.564 203.053 152.063C203.149 151.562 203.149 151.615 202.232 151.167" fill="#FFCEA9"/>
<path d="M208.458 92.474C207.851 88.4651 204.961 85.4372 200.835 85.6611C198.733 85.7902 196.768 86.7466 195.369 88.3211C193.97 89.8956 193.252 91.96 193.372 94.0626C193.439 95.2777 193.787 96.4606 194.388 97.5187C194.99 98.5768 195.828 99.4813 196.837 100.161C196.98 100.767 197.195 101.354 197.477 101.91C198.937 103.616 203.351 104.671 204.62 104.49C205.374 104.423 206.09 104.131 206.675 103.652C207.261 103.172 207.689 102.528 207.904 101.803C209.279 98.6578 208.842 94.4464 208.501 92.474" fill="#FFCEA9"/>
<path d="M196.794 100.161L197.167 96.6641C197.167 96.6641 194.321 89.2754 201.059 90.6935C205.505 91.6317 206.624 92.0369 207.979 89.0515C209.333 86.0662 204.556 83.3795 198.884 84.1258C196.931 84.3311 195.126 85.2626 193.826 86.7356C192.527 88.2086 191.828 90.1158 191.869 92.0795C192.018 94.2758 192.604 98.7218 196.794 100.161Z" fill="#3A2C6D"/>
<path d="M185.248 120.205C185.248 120.205 188.926 123.873 193.287 122.818C193.905 122.391 195.419 113.84 195.419 113.84C195.419 113.84 195.419 109.096 191.783 109.224C188.148 109.352 185.269 120.205 185.269 120.205" fill="#EDEDED"/>
<path d="M213.032 113.115C214.063 113.074 215.037 112.634 215.751 111.889C215.612 109.981 213.16 102.709 208.224 102.166C209.567 103.106 210.632 104.391 211.305 105.887C212.067 108.248 212.644 110.665 213.032 113.115Z" fill="#EDEDED"/>
<g opacity="0.4">
<g opacity="0.4">
<path opacity="0.4" d="M232.565 556.455C229.931 562.201 218.598 562.638 207.243 557.435C195.888 552.233 188.851 543.351 191.474 537.615C194.097 531.879 205.441 531.431 216.796 536.634C228.151 541.837 235.22 550.719 232.575 556.465" fill="#D6D8E5"/>
</g>
</g>
<path d="M193.958 453.547C193.958 453.547 194.662 464.134 196.091 465.659C197.519 467.183 202.178 468.228 202.178 468.228L205.803 474.177C205.803 474.177 202.498 455.253 201.773 454.794C201.048 454.336 194.001 453.547 194.001 453.547" fill="#FFCEA9"/>
<path d="M200.92 441.787C200.039 441.382 199.039 441.313 198.11 441.594C197.181 441.875 196.387 442.486 195.877 443.311C194.545 445.518 193.169 453.088 193.041 454.378C193.041 454.378 194.907 456.959 197.711 456.511L200.92 441.787Z" fill="#EDEDED"/>
<path d="M211.635 547.467C213.606 548.019 215.715 547.766 217.499 546.763C218.907 546.763 226.562 543.565 227.607 546.283C228.524 548.693 225.208 550.921 223.427 551.358C219.568 552.297 216.7 554.216 215.143 554.557C213.992 554.802 212.488 554.962 211.572 554.056C210.505 552.99 210.559 548.917 211.635 547.477" fill="#38226D"/>
<path d="M215.143 553.874C216.7 553.555 219.568 551.625 223.428 550.676C224.92 550.313 227.479 548.693 227.692 546.752C228.033 548.97 225.037 550.942 223.428 551.337C219.568 552.275 216.7 554.205 215.143 554.535C213.992 554.781 212.488 554.941 211.572 554.034C211.332 553.769 211.157 553.451 211.06 553.107C211.634 553.543 212.302 553.839 213.012 553.97C213.721 554.102 214.451 554.065 215.143 553.864" fill="#9C73FF"/>
<path d="M199.716 543.756C201.685 544.3 203.788 544.043 205.569 543.042C206.987 543.042 214.642 539.844 215.687 542.562C216.593 544.972 213.277 547.2 211.508 547.637C207.637 548.576 204.78 550.505 203.223 550.836C202.061 551.081 200.569 551.241 199.641 550.335C198.575 549.269 198.628 545.206 199.716 543.767" fill="#38226D"/>
<path d="M203.223 550.164C204.78 549.834 207.637 547.904 211.508 546.966C212.99 546.603 215.548 544.983 215.772 543.042C216.124 545.27 213.128 547.232 211.508 547.637C207.637 548.576 204.78 550.505 203.223 550.836C202.061 551.081 200.569 551.241 199.641 550.335C199.401 550.071 199.229 549.753 199.14 549.407C199.714 549.845 200.382 550.142 201.091 550.275C201.8 550.408 202.53 550.374 203.223 550.175" fill="#9C73FF"/>
<path d="M198.863 522.22C199.197 519.375 199.789 516.566 200.632 513.829C200.632 513.829 200.11 506.589 199.844 499.723C199.545 491.94 196.848 485.084 198.98 478.869L222.692 484.2C222.692 484.2 221.551 515.311 221.231 519.074C221.057 522.001 220.701 524.914 220.165 527.796C219.099 533.82 217.873 547.307 217.873 547.307C215.324 548.789 211.603 547.573 211.603 547.573C211.603 547.573 211.604 530.685 211.753 526.346C211.955 521.015 212.115 521.441 212.115 521.441L211.316 508.231L210.804 501.664C210.804 501.664 210.132 506.483 209.738 510.79C209.354 514.543 208.448 517.944 207.435 524.938C206.56 531.005 205.654 543.362 205.654 543.362C203.106 544.844 199.694 543.82 199.694 543.82C199.694 543.82 198.223 527.529 198.905 522.273" fill="#8C50FF"/>
<path d="M202.189 441.925C204.023 442.011 205.388 442.48 205.612 441.925C205.809 440.979 205.948 440.021 206.027 439.057C205.825 438.535 205.644 437.991 205.644 437.991C203.341 436.573 202.616 434.089 202.317 431.2C201.795 426.253 204.449 421.924 209.407 421.412C214.056 420.932 217.478 424.195 218.395 428.683C218.885 430.89 219.856 435.081 218.534 438.716C217.798 440.753 216.849 442.373 215.89 442.693C214.969 442.661 214.051 442.579 213.139 442.448C213.139 442.448 212.894 443.823 212.723 444.708C212.552 445.593 212.616 446.052 214.376 447.128C216.135 448.205 211.721 450.434 208.842 450.22C205.963 450.007 202.722 448.259 201.827 446.393C200.835 444.324 200.92 441.872 202.178 441.936" fill="#FFCEA9"/>
<path d="M204.844 442.192C204.332 443.461 205.622 445.007 209.055 446.084C212.488 447.16 212.808 445.774 212.808 445.774C215.096 446.796 217.324 447.946 219.483 449.218C221.551 450.657 222.468 454.837 222.745 461.874C223.065 470.03 223.086 482.131 222.82 484.263C222.82 484.263 218.96 488.112 214.034 487.707C209.109 487.302 200.792 482.931 198.777 479.562C198.841 472.408 199.673 471.245 198.511 467.13C195.867 457.705 194.47 453.845 195.76 447.576C196.826 442.416 198.308 441.776 200.345 441.819C201.851 441.882 203.353 442.024 204.844 442.245" fill="#F4F4F4"/>
<path d="M218.48 490.49L215.975 462.098L221.306 459.294L223.374 461.021L222.734 486.524V487.227V488.123C222.734 488.123 222.852 490.255 218.8 492.836C218.8 492.836 218.736 492.164 218.683 491.535L218.587 490.469L218.48 490.49Z" fill="#FFCEA9"/>
<path d="M217.851 447.459C220.581 447.406 222.329 448.856 222.99 453.067C223.651 457.278 224.057 460.722 224.057 460.722C222.803 462.124 221.058 462.99 219.184 463.142C215.879 463.505 214.919 461.831 214.919 461.831C214.919 461.831 214.578 457.449 214.386 454.485C214.194 451.521 214.472 447.523 217.851 447.459Z" fill="#EDEDED"/>
<path d="M213.245 420.197C206.571 419.248 202.285 423.534 201.784 428.182C201.315 432.628 204.055 437.245 206.049 439.079C207.99 439.579 210.049 439.332 211.817 438.386C211.929 437.174 211.972 435.956 211.945 434.739C211.945 434.739 208.693 427.895 218.256 428.012C218.256 428.012 222.521 421.519 213.267 420.197" fill="#3A2C6D"/>
<path d="M245.593 322.886C245.348 325.093 242.715 334.614 243.28 337.813C243.845 341.011 252.822 346.513 252.822 346.513L254.059 340.937L249.09 336.107L250.434 326.874L245.593 322.886Z" fill="#FFCEA9"/>
<path d="M252.534 313.525C251.662 313.12 250.671 313.051 249.75 313.33C248.83 313.609 248.045 314.218 247.544 315.039C246.222 317.225 244.847 324.731 244.73 326.01C244.73 326.01 246.574 328.569 249.357 328.143L252.534 313.525Z" fill="#EDEDED"/>
<path d="M262.791 419.45C264.745 419.991 266.833 419.738 268.602 418.747C269.998 418.747 277.589 415.548 278.624 418.267C279.53 420.655 276.235 422.873 274.487 423.299C270.649 424.227 267.813 426.135 266.267 426.498C265.115 426.743 263.633 426.903 262.716 425.997C261.65 424.931 261.714 420.911 262.791 419.482" fill="#38226D"/>
<path d="M266.267 425.805C267.813 425.474 270.649 423.566 274.487 422.606C275.958 422.244 278.496 420.634 278.752 418.715C279.093 420.922 276.118 422.873 274.487 423.267C270.649 424.195 267.813 426.103 266.267 426.466C265.115 426.711 263.633 426.871 262.716 425.965C262.482 425.701 262.311 425.387 262.215 425.048C262.786 425.479 263.449 425.772 264.152 425.904C264.855 426.035 265.579 426.001 266.267 425.805Z" fill="#9C73FF"/>
<path d="M250.466 413.938C252.42 414.48 254.508 414.227 256.276 413.235C257.684 413.235 265.275 410.036 266.309 412.755C267.215 415.154 263.921 417.361 262.162 417.787C258.324 418.715 255.487 420.634 253.952 420.986C252.801 421.231 251.319 421.391 250.402 420.485C249.336 419.418 249.4 415.399 250.466 413.97" fill="#38226D"/>
<path d="M253.952 420.271C255.487 419.951 258.324 418.032 262.162 417.073C263.633 416.721 266.171 415.1 266.427 413.181C266.768 415.388 263.804 417.339 262.162 417.734C258.324 418.661 255.487 420.58 253.952 420.932C252.801 421.178 251.319 421.337 250.402 420.431C250.161 420.172 249.989 419.857 249.901 419.514C250.47 419.948 251.133 420.242 251.837 420.374C252.54 420.505 253.265 420.47 253.952 420.271Z" fill="#9C73FF"/>
<path d="M250.317 393.286C250.645 390.462 251.234 387.675 252.076 384.959C252.076 384.959 251.553 377.784 251.287 370.982C250.988 363.252 248.312 356.46 250.423 350.298L274.252 355.629C274.252 355.629 272.813 386.42 272.493 390.152C272.321 393.05 271.965 395.935 271.427 398.788C270.361 404.769 268.57 418.992 268.57 418.992C266.758 419.859 264.706 420.088 262.748 419.642C262.748 419.642 262.929 401.666 263.089 397.359C263.292 392.092 263.452 392.497 263.452 392.497L262.663 379.394L262.14 372.88C262.14 372.88 261.479 377.667 261.074 381.931C260.701 385.663 259.806 389.032 258.803 395.962C257.929 401.976 256.511 414.087 256.511 414.087C253.995 415.548 250.572 414.333 250.572 414.333C250.572 414.333 249.656 398.553 250.338 393.34" fill="#FF7B7B"/>
<path d="M253.803 313.653C255.616 313.749 257.002 314.218 257.193 313.653C257.392 312.718 257.53 311.77 257.609 310.817C257.396 310.295 257.215 309.751 257.215 309.751C254.954 308.386 254.219 305.881 253.888 303.055C253.377 298.151 256.021 293.865 260.925 293.353C265.542 292.873 268.932 296.115 269.828 300.561C270.318 302.757 271.288 306.904 269.977 310.519C269.252 312.534 268.303 314.133 267.354 314.453C266.441 314.421 265.529 314.339 264.625 314.208C264.625 314.208 264.38 315.572 264.209 316.447C264.038 317.321 264.102 317.779 265.851 318.856C267.599 319.933 263.217 322.129 260.36 321.916C257.503 321.703 254.293 319.976 253.409 318.131C252.428 316.063 252.513 313.643 253.76 313.696" fill="#FFCEA9"/>
<path d="M256.426 313.93C255.925 315.178 257.204 316.713 260.605 317.79C264.006 318.867 264.326 317.481 264.326 317.481C266.596 318.491 268.807 319.631 270.947 320.893C272.994 322.321 273.9 326.458 274.146 333.442C274.466 341.534 274.498 353.528 274.22 355.597C274.22 355.597 270.403 359.403 265.51 359.009C260.616 358.614 252.385 354.275 250.391 350.927C250.444 343.837 251.265 342.685 250.125 338.602C247.491 329.251 246.116 325.424 247.385 319.208C248.451 314.09 249.922 313.451 251.937 313.504C253.429 313.567 254.917 313.71 256.394 313.93" fill="#F4F4F4"/>
<path d="M281.876 340.126C277.856 341.193 276.918 338.613 276.385 336.512C275.105 331.437 274.423 326.853 273.463 323.974C272.344 320.573 271.171 320.04 269.519 319.368C267.578 318.6 265.915 320.232 266.555 324.56C267.349 329.573 268.58 334.507 270.233 339.306C270.734 340.894 271.853 343.698 273.538 345.052C275.606 346.726 278.73 346.662 283.443 345.479C285.458 344.978 287.708 343.783 291.482 342.003C292.495 341.523 293.294 341.214 295.256 340.297C297.227 339.412 298.954 338.062 300.288 336.363C301.355 334.881 301.451 334.177 301.248 333.836C301.046 333.495 300.512 333.506 299.969 334.135C299.176 335.194 298.197 336.101 297.079 336.811C297.079 336.811 298.348 335.499 299.03 334.678C299.647 333.922 300.16 333.086 300.555 332.194C300.918 331.33 300.171 330.147 299.595 330.765C299.02 331.384 298.764 332.013 297.719 333.26C297.17 333.922 296.547 334.519 295.864 335.041C296.505 334.167 297.076 333.244 297.57 332.279C298.017 331.527 298.236 330.66 298.199 329.785C298.199 329.337 297.527 328.793 296.93 329.657C296.348 330.833 295.632 331.938 294.798 332.951C293.881 333.9 293.092 334.444 293.07 334.177C293.049 333.911 293.625 333.399 293.955 332.29C294.286 331.181 293.955 330.008 293.337 329.88C292.719 329.753 292.847 329.785 292.356 330.819C291.682 331.886 291.073 332.994 290.533 334.135C290.223 335.204 289.656 336.182 288.88 336.981C287.889 338.047 285.682 339.188 281.897 340.18" fill="#FFCEA9"/>
<path d="M268.036 318.675C270.713 318.28 272.61 319.496 273.794 323.558C274.977 327.62 275.809 330.947 275.809 330.947C274.743 332.478 273.134 333.545 271.31 333.932C268.111 334.71 266.949 333.175 266.949 333.175C266.949 333.175 266.064 328.91 265.51 326.021C264.955 323.132 264.71 319.165 268.036 318.675Z" fill="#EDEDED"/>
<path d="M269.71 299.857C269.71 299.857 273.975 293.46 264.763 292.106C258.142 291.157 253.888 295.411 253.398 300.027C252.929 304.431 255.647 309.015 257.609 310.828C259.537 311.321 261.58 311.074 263.335 310.135C263.439 308.937 263.478 307.734 263.452 306.531C263.452 306.531 260.253 299.74 269.71 299.857Z" fill="#3A2C6D"/>
<path d="M353.502 445.753L353.534 455.327L449.287 510.982L449.255 501.408L353.502 445.753Z" fill="#D3D3DD"/>
<path d="M449.255 501.408L449.287 510.982L545.67 455.338L545.638 445.764L449.255 501.408Z" fill="#E0DEE9"/>
<path d="M353.502 445.753L449.255 501.408L545.638 445.764L449.884 390.109L353.502 445.753Z" fill="#EAEAF4"/>
<path d="M368.439 300.635L368.844 444.282L449.437 491.108L449.031 347.472L368.439 300.635Z" fill="#D3D3DD"/>
<path d="M449.031 347.472L449.437 491.108L530.562 444.282L530.157 300.635L449.031 347.472Z" fill="#E0DEE9"/>
<path d="M368.439 300.635L449.031 347.472L530.157 300.635L449.564 253.798L368.439 300.635Z" fill="#EAEAF4"/>
<path d="M509.249 363.444L509.292 378.338L522.246 370.854L522.203 355.97L509.249 363.444Z" fill="#2A313F"/>
<path d="M509.185 342.728L509.228 357.612L522.182 350.138L522.139 335.254L509.185 342.728Z" fill="#2A313F"/>
<path d="M509.132 322.012L509.175 336.907L522.118 329.422L522.086 314.527L509.132 322.012Z" fill="#2A313F"/>
<path d="M456.9 414.418L456.942 429.313L503.428 402.477L503.385 387.582L456.9 414.418Z" fill="#2A313F"/>
<path d="M456.847 393.702L456.889 408.597L503.364 381.761L503.321 366.866L456.847 393.702Z" fill="#2A313F"/>
<path d="M456.783 372.986L456.825 387.87L503.311 361.034L503.268 346.15L456.783 372.986Z" fill="#2A313F"/>
<path d="M456.729 352.26L456.772 367.154L503.247 340.318L503.204 325.434L456.729 352.26Z" fill="#2A313F"/>
<path d="M509.367 404.876L509.409 419.77L522.363 412.286L522.321 397.402L509.367 404.876Z" fill="#2A313F"/>
<path d="M509.303 384.16L509.345 399.054L522.299 391.58L522.257 376.686L509.303 384.16Z" fill="#2A313F"/>
<path d="M456.964 435.134L457.006 450.028L503.481 423.193L503.439 408.298L456.964 435.134Z" fill="#2A313F"/>
<path d="M428.571 365.662L428.529 380.556L441.493 388.041L441.536 373.146L428.571 365.662Z" fill="#2A313F"/>
<path d="M428.635 344.946L428.593 359.84L441.547 367.325L441.589 352.43L428.635 344.946Z" fill="#2A313F"/>
<path d="M375.998 397.572L375.955 412.456L422.441 439.292L422.484 424.408L375.998 397.572Z" fill="#2A313F"/>
<path d="M376.062 376.846L376.019 391.74L422.494 418.576L422.537 403.682L376.062 376.846Z" fill="#2A313F"/>
<path d="M376.115 356.141L376.073 371.024L422.558 397.86L422.601 382.966L376.115 356.141Z" fill="#2A313F"/>
<path d="M376.179 335.414L376.137 350.309L422.611 377.144L422.654 362.25L376.179 335.414Z" fill="#2A313F"/>
<path d="M376.233 314.698L376.19 329.582L422.675 356.428L422.718 341.534L376.233 314.698Z" fill="#2A313F"/>
<path d="M428.401 427.82L428.358 442.704L441.312 450.188L441.355 435.304L428.401 427.82Z" fill="#2A313F"/>
<path d="M428.454 407.093L428.411 421.988L441.376 429.472L441.419 414.578L428.454 407.093Z" fill="#2A313F"/>
<path d="M428.518 386.388L428.475 401.272L441.43 408.757L441.472 393.873L428.518 386.388Z" fill="#2A313F"/>
<path d="M368.812 432.692L368.844 444.271L449.437 491.108L449.415 479.252L368.812 432.692Z" fill="#9052FE"/>
<path d="M449.415 479.252L449.447 491.108L530.562 444.282L530.53 432.415L449.415 479.252Z" fill="#9052FE"/>
<path d="M449.938 302.533C449.632 302.554 449.326 302.554 449.021 302.533L444.415 305.198C447.709 306.2 451.228 306.2 454.522 305.198L449.938 302.533Z" fill="#2A313F"/>
<path d="M469.971 285.655C458.243 279.973 440.992 279.973 429.179 285.655L433.337 288.065C442.837 283.694 456.345 283.694 465.781 288.065L469.971 285.655Z" fill="#2A313F"/>
<path d="M462.86 289.76C454.336 286.306 444.803 286.306 436.28 289.76L440.47 292.202C446.318 290.04 452.747 290.04 458.595 292.202L462.86 289.76Z" fill="#2A313F"/>
<path d="M454.586 294.526C451.288 293.524 447.766 293.524 444.468 294.526L448.999 297.191H449.938L454.586 294.526Z" fill="#2A313F"/>
<path d="M444.884 300.134C444.863 299.957 444.863 299.778 444.884 299.601L440.299 296.935C439.893 297.307 439.569 297.759 439.347 298.263C439.125 298.767 439.01 299.312 439.01 299.862C439.01 300.413 439.125 300.957 439.347 301.461C439.569 301.965 439.893 302.417 440.299 302.789L444.884 300.134Z" fill="#2A313F"/>
<path d="M436.205 305.188C432.474 301.989 432.484 297.81 436.205 294.654L432.015 292.223C426.013 296.744 425.981 303.098 431.93 307.619L436.205 305.188Z" fill="#2A313F"/>
<path d="M462.774 294.601C466.506 297.799 466.474 301.979 462.7 305.134L466.901 307.565C472.903 303.045 472.935 296.69 466.986 292.17L462.774 294.601Z" fill="#2A313F"/>
<path d="M429.062 309.271C421.599 303.791 421.599 295.955 429.168 290.474L425.01 288.054C415.18 294.878 415.116 304.857 424.882 311.681L429.062 309.271Z" fill="#2A313F"/>
<path d="M465.653 311.67C456.164 316.031 442.634 316.031 433.209 311.67L429.03 314.09C440.758 319.762 457.998 319.762 469.801 314.09L465.653 311.67Z" fill="#2A313F"/>
<path d="M469.929 290.474C477.392 295.944 477.392 303.78 469.822 309.271L473.969 311.681C483.821 304.857 483.874 294.878 474.108 288.054L469.929 290.474Z" fill="#2A313F"/>
<path d="M458.542 307.533C452.693 309.695 446.265 309.695 440.417 307.533L436.152 309.975C444.677 313.44 454.217 313.44 462.742 309.975L458.542 307.533Z" fill="#2A313F"/>
<path d="M454.117 299.601C454.144 299.778 454.144 299.957 454.117 300.134L458.702 302.8C459.111 302.429 459.438 301.976 459.662 301.471C459.886 300.966 460.002 300.42 460.002 299.867C460.002 299.315 459.886 298.769 459.662 298.264C459.438 297.759 459.111 297.306 458.702 296.935L454.117 299.601Z" fill="#2A313F"/>
<defs>
<linearGradient id="paint0_linear_2_284" x1="768.856" y1="137.08" x2="705.996" y2="641.298" gradientUnits="userSpaceOnUse">
<stop stop-color="#5D70FB"/>
<stop offset="1" stop-color="#DC79FF"/>
</linearGradient>
</defs>
</svg>
