<svg width="141" height="39" viewBox="0 0 141 39" fill="none" xmlns="http://www.w3.org/2000/svg">
<path d="M39.24 31V8.6H45.576V31H39.24ZM54.8518 31V13.624H47.9718V8.6H68.0358V13.624H61.1878V31H54.8518ZM77.0623 31.288C75.1636 31.288 73.4783 30.904 72.0063 30.136C70.5343 29.368 69.3716 28.312 68.5182 26.968C67.6863 25.6027 67.2703 24.0453 67.2703 22.296C67.2703 20.5467 67.6863 19 68.5182 17.656C69.3716 16.312 70.5343 15.2667 72.0063 14.52C73.4783 13.752 75.1636 13.368 77.0623 13.368C78.9609 13.368 80.6463 13.752 82.1183 14.52C83.6116 15.2667 84.7743 16.312 85.6063 17.656C86.4383 19 86.8543 20.5467 86.8543 22.296C86.8543 24.0453 86.4383 25.6027 85.6063 26.968C84.7743 28.312 83.6116 29.368 82.1183 30.136C80.6463 30.904 78.9609 31.288 77.0623 31.288ZM77.0623 26.456C77.7663 26.456 78.3849 26.296 78.9183 25.976C79.4729 25.656 79.9103 25.1867 80.2303 24.568C80.5503 23.928 80.7103 23.1707 80.7103 22.296C80.7103 21.4213 80.5503 20.6853 80.2303 20.088C79.9103 19.4693 79.4729 19 78.9183 18.68C78.3849 18.36 77.7663 18.2 77.0623 18.2C76.3796 18.2 75.7609 18.36 75.2063 18.68C74.6729 19 74.2356 19.4693 73.8943 20.088C73.5743 20.6853 73.4143 21.4213 73.4143 22.296C73.4143 23.1707 73.5743 23.928 73.8943 24.568C74.2356 25.1867 74.6729 25.656 75.2063 25.976C75.7609 26.296 76.3796 26.456 77.0623 26.456ZM93.33 31L87.154 13.656H92.914L97.81 28.152H95.058L100.146 13.656H105.33L110.226 28.152H107.538L112.594 13.656H117.938L111.762 31H105.874L101.714 19H103.506L99.218 31H93.33ZM131.092 13.368C132.436 13.368 133.652 13.6453 134.74 14.2C135.828 14.7333 136.681 15.5653 137.3 16.696C137.94 17.8267 138.26 19.288 138.26 21.08V31H132.18V22.072C132.18 20.8347 131.924 19.9387 131.412 19.384C130.921 18.808 130.228 18.52 129.332 18.52C128.692 18.52 128.105 18.6693 127.572 18.968C127.038 19.2453 126.622 19.6827 126.324 20.28C126.025 20.8773 125.876 21.656 125.876 22.616V31H119.796V13.656H125.588V18.584L124.468 17.144C125.129 15.8853 126.036 14.9467 127.188 14.328C128.34 13.688 129.641 13.368 131.092 13.368Z" fill="white"/>
<rect y="9" width="32" height="22" fill="white"/>
<rect x="4" y="11" width="5" height="20" fill="#1D1D1F"/>
<rect x="13" y="11" width="6" height="20" fill="#1D1D1F"/>
<rect x="23" y="11" width="5" height="20" fill="#1D1D1F"/>
<rect x="4" y="7" width="24" height="5" fill="white"/>
<rect x="13" y="5" width="6" height="2" fill="white"/>
</svg>
